InterAlia-MediumItalic.ufo
<glyph name="exclam" format="2">
  <advance height="2479.0" width="601.4"/>
  <unicode hex="0021"/>
  <outline>
    <contour>
      <point x="574.2" y="1489.0" type="line"/>
      <point x="334.8" y="1489.0" type="line"/>
      <point x="178.20000000000002" y="428.2" type="line"/>
      <point x="379.2" y="428.2" type="line"/>
    </contour>
    <component base="period" xOffset="11.8"/>
  </outline>
</glyph>
<glyph name="numbersign" format="2">
  <advance height="2479.0" width="1304.8"/>
  <unicode hex="0023"/>
  <outline>
    <contour>
      <point x="721.8" y="0.0" type="line"/>
      <point x="896.8" y="0.0" type="line"/>
      <point x="1167.0" y="1489.0" type="line"/>
      <point x="992.8" y="1489.0" type="line"/>
    </contour>
    <contour>
      <point x="55.0" y="398.4" type="line"/>
      <point x="1183.3999999999999" y="398.4" type="line"/>
      <point x="1215.4" y="573.4" type="line"/>
      <point x="86.8" y="573.4" type="line"/>
    </contour>
    <contour>
      <point x="198.8" y="0.0" type="line"/>
      <point x="373.0" y="0.0" type="line"/>
      <point x="643.8" y="1489.0" type="line"/>
      <point x="468.8" y="1489.0" type="line"/>
    </contour>
    <contour>
      <point x="150.60000000000002" y="916.4" type="line"/>
      <point x="1279.2" y="916.4" type="line"/>
      <point x="1310.8000000000002" y="1090.6" type="line"/>
      <point x="182.2" y="1090.6" type="line"/>
    </contour>
  </outline>
</glyph>
<glyph name="dollar" format="2">
  <advance height="2479.0" width="1317.6"/>
  <unicode hex="0024"/>
  <anchor x="566.4" y="-20.8" name="bottom"/>
  <anchor x="569.8" y="0.0" name="cedilla"/>
  <anchor x="844.4" y="1676.0" name="top"/>
  <outline>
    <contour>
      <point x="480.0" y="-186.0" type="line"/>
      <point x="600.0" y="-186.0" type="line"/>
      <point x="908.0" y="1676.0" type="line"/>
      <point x="789.0" y="1676.0" type="line"/>
    </contour>
    <component base="S"/>
  </outline>
</glyph>
<glyph name="percent" format="2">
  <advance height="2479.0" width="1696.0"/>
  <unicode hex="0025"/>
  <anchor x="1129.6" y="791.0" name="dnom"/>
  <anchor x="613.6" y="698.0" name="numr"/>
  <outline>
    <contour>
      <point x="874.6" y="279.0" type="line" smooth="yes"/>
      <point x="843.6" y="111.8"/>
      <point x="929.2" y="-30.6"/>
      <point x="1126.2" y="-30.6" type="curve" smooth="yes"/>
      <point x="1321.4" y="-30.6"/>
      <point x="1448.2" y="111.8"/>
      <point x="1479.2" y="279.0" type="curve" smooth="yes"/>
      <point x="1493.2" y="358.0" type="line" smooth="yes"/>
      <point x="1524.4" y="525.8"/>
      <point x="1441.0" y="667.6"/>
      <point x="1243.3999999999999" y="667.6" type="curve" smooth="yes"/>
      <point x="1049.6" y="667.6"/>
      <point x="919.6" y="525.2"/>
      <point x="888.6" y="358.0" type="curve" smooth="yes"/>
    </contour>
    <contour>
      <point x="1058.4" y="358.0" type="line" smooth="yes"/>
      <point x="1074.2" y="441.6"/>
      <point x="1123.0" y="522.2"/>
      <point x="1219.2" y="522.2" type="curve" smooth="yes"/>
      <point x="1319.8000000000002" y="522.2"/>
      <point x="1339.3999999999999" y="441.6"/>
      <point x="1323.6" y="358.0" type="curve" smooth="yes"/>
      <point x="1308.8" y="279.0" type="line" smooth="yes"/>
      <point x="1293.8" y="195.6"/>
      <point x="1248.0" y="115.4"/>
      <point x="1150.3999999999999" y="115.4" type="curve" smooth="yes"/>
      <point x="1051.0" y="115.4"/>
      <point x="1028.8000000000002" y="196.2"/>
      <point x="1043.6000000000001" y="279.0" type="curve" smooth="yes"/>
    </contour>
    <contour>
      <point x="268.0" y="1132.0" type="line" smooth="yes"/>
      <point x="243.0" y="962.8"/>
      <point x="322.59999999999997" y="822.2"/>
      <point x="519.4000000000001" y="822.2" type="curve" smooth="yes"/>
      <point x="714.0" y="822.2"/>
      <point x="847.6" y="962.4000000000001"/>
      <point x="872.6" y="1132.0" type="curve" smooth="yes"/>
      <point x="883.6" y="1210.0" type="line" smooth="yes"/>
      <point x="908.6" y="1379.0"/>
      <point x="831.4" y="1520.4"/>
      <point x="633.8000000000001" y="1520.4" type="curve" smooth="yes"/>
      <point x="439.8" y="1520.4"/>
      <point x="304.0" y="1379.0"/>
      <point x="279.0" y="1210.0" type="curve" smooth="yes"/>
    </contour>
    <contour>
      <point x="449.40000000000003" y="1210.0" type="line" smooth="yes"/>
      <point x="461.40000000000003" y="1293.0"/>
      <point x="512.6" y="1375.0"/>
      <point x="609.6" y="1375.0" type="curve" smooth="yes"/>
      <point x="710.2" y="1375.0"/>
      <point x="726.2" y="1293.6"/>
      <point x="714.0" y="1210.0" type="curve" smooth="yes"/>
      <point x="702.2" y="1132.0" type="line" smooth="yes"/>
      <point x="689.2" y="1047.4"/>
      <point x="640.6" y="967.4"/>
      <point x="543.0" y="967.4" type="curve" smooth="yes"/>
      <point x="445.0" y="967.4"/>
      <point x="424.6" y="1047.4"/>
      <point x="437.6" y="1132.0" type="curve" smooth="yes"/>
    </contour>
    <component base="fraction" xOffset="560.0"/>
  </outline>
</glyph>
<glyph name="ampersand" format="2">
  <advance height="2479.0" width="1341.2"/>
  <unicode hex="0026"/>
  <outline>
    <contour>
      <point x="482.6" y="-20.6" type="curve"/>
      <point x="621.4000000000001" y="-20.6"/>
      <point x="784.6" y="26.8"/>
      <point x="901.8000000000001" y="128.2" type="curve"/>
      <point x="921.6" y="143.6"/>
      <point x="944.2" y="159.0"/>
      <point x="964.2" y="174.4" type="curve"/>
      <point x="1056.8000000000002" y="248.0"/>
      <point x="1192.0" y="387.6"/>
      <point x="1239.2" y="677.0" type="curve"/>
      <point x="1043.8" y="677.0" type="line"/>
      <point x="992.1999999999999" y="364.6"/>
      <point x="733.8" y="163.0"/>
      <point x="515.0" y="163.0" type="curve" smooth="yes"/>
      <point x="353.59999999999997" y="163.0"/>
      <point x="266.4" y="272.8"/>
      <point x="287.0" y="401.8" type="curve"/>
      <point x="294.2" y="447.2"/>
      <point x="348.40000000000003" y="538.4"/>
      <point x="478.59999999999997" y="624.8" type="curve" smooth="yes"/>
      <point x="813.5999999999999" y="845.4" type="line" smooth="yes"/>
      <point x="951.0" y="936.1999999999999"/>
      <point x="1044.2" y="1039.0"/>
      <point x="1067.2" y="1181.4" type="curve"/>
      <point x="1097.3999999999999" y="1355.4"/>
      <point x="981.4000000000001" y="1505.8"/>
      <point x="752.0" y="1505.8" type="curve" smooth="yes"/>
      <point x="525.4000000000001" y="1505.8"/>
      <point x="352.0" y="1359.0"/>
      <point x="318.6" y="1153.6" type="curve" smooth="yes"/>
      <point x="289.2" y="972.8"/>
      <point x="394.6" y="843.0"/>
      <point x="510.2" y="672.8" type="curve" smooth="yes"/>
      <point x="969.8" y="0.0" type="line"/>
      <point x="1215.6" y="0.0" type="line"/>
      <point x="662.4000000000001" y="826.8" type="line" smooth="yes"/>
      <point x="584.8" y="946.8000000000001"/>
      <point x="504.2" y="1048.6"/>
      <point x="520.0" y="1150.0" type="curve" smooth="yes"/>
      <point x="534.4" y="1237.3999999999999"/>
      <point x="621.2" y="1324.0"/>
      <point x="724.8" y="1324.0" type="curve" smooth="yes"/>
      <point x="826.4" y="1324.0"/>
      <point x="878.1999999999999" y="1244.8"/>
      <point x="867.4" y="1175.4" type="curve"/>
      <point x="851.6" y="1087.0"/>
      <point x="795.1999999999999" y="1032.8"/>
      <point x="705.8" y="979.4" type="curve"/>
      <point x="438.59999999999997" y="809.6" type="line"/>
      <point x="241.2" y="688.6"/>
      <point x="99.0" y="578.4000000000001"/>
      <point x="70.4" y="396.0" type="curve"/>
      <point x="30.200000000000006" y="156.39999999999998"/>
      <point x="183.6" y="-20.6"/>
    </contour>
  </outline>
</glyph>
<glyph name="quotesingle" format="2">
  <advance height="2479.0" width="430.8"/>
  <unicode hex="0027"/>
  <outline>
    <contour>
      <point x="481.2" y="1489.0" type="line"/>
      <point x="257.6" y="1489.0" type="line"/>
      <point x="205.6" y="959.0" type="line"/>
      <point x="359.2" y="959.0" type="line"/>
    </contour>
  </outline>
</glyph>
<glyph name="parenleft" format="2">
  <advance height="2479.0" width="774.0"/>
  <unicode hex="0028"/>
  <outline>
    <contour>
      <point x="219.4" y="617.6" type="curve" smooth="yes"/>
      <point x="159.0" y="253.2"/>
      <point x="207.0" y="-51.0"/>
      <point x="348.0" y="-309.8" type="curve"/>
      <point x="547.1999999999999" y="-309.8" type="line"/>
      <point x="436.0" y="-117.8"/>
      <point x="386.79999999999995" y="272.2"/>
      <point x="444.79999999999995" y="617.6" type="curve" smooth="yes"/>
      <point x="503.0" y="963.8"/>
      <point x="679.0" y="1353.0"/>
      <point x="855.0" y="1545.0" type="curve"/>
      <point x="654.8" y="1545.0" type="line"/>
      <point x="426.8" y="1286.2"/>
      <point x="280.0" y="982.8"/>
    </contour>
  </outline>
</glyph>
<glyph name="asterisk" format="2">
  <advance height="2479.0" width="1068.2"/>
  <unicode hex="002A"/>
  <outline>
    <contour>
      <point x="469.8" y="652.0" type="line"/>
      <point x="627.4" y="652.0" type="line"/>
      <point x="666.8000000000001" y="959.2" type="line"/>
      <point x="899.1999999999999" y="791.8" type="line"/>
      <point x="1002.2" y="930.2" type="line"/>
      <point x="749.6" y="1071.0" type="line"/>
      <point x="1043.6" y="1210.8" type="line"/>
      <point x="985.8" y="1349.2" type="line"/>
      <point x="702.8000000000001" y="1181.8" type="line"/>
      <point x="767.4" y="1489.0" type="line"/>
      <point x="608.8" y="1489.0" type="line"/>
      <point x="572.8" y="1181.8" type="line"/>
      <point x="339.6" y="1349.2" type="line"/>
      <point x="237.4" y="1210.8" type="line"/>
      <point x="490.0" y="1071.0" type="line"/>
      <point x="195.2" y="930.2" type="line"/>
      <point x="251.4" y="791.8" type="line"/>
      <point x="536.8" y="959.2" type="line"/>
    </contour>
  </outline>
</glyph>
<glyph name="plus" format="2">
  <advance height="2479.0" width="1364.0"/>
  <unicode hex="002B"/>
  <outline>
    <contour>
      <point x="507.4" y="95.0" type="line"/>
      <point x="703.8" y="95.0" type="line"/>
      <point x="866.6" y="1078.2" type="line"/>
      <point x="669.4" y="1078.2" type="line"/>
    </contour>
    <contour>
      <point x="178.20000000000002" y="488.4" type="line"/>
      <point x="1161.6" y="488.4" type="line"/>
      <point x="1194.1999999999998" y="684.0" type="line"/>
      <point x="211.0" y="684.0" type="line"/>
    </contour>
  </outline>
</glyph>
<glyph name="comma" format="2">
  <advance height="2479.0" width="588.8"/>
  <unicode hex="002C"/>
  <outline>
    <contour>
      <point x="370.6" y="204.0" type="line"/>
      <point x="161.4" y="204.0" type="line"/>
      <point x="139.2" y="122.0" type="line" smooth="yes"/>
      <point x="91.4" y="-76.0"/>
      <point x="9.599999999999989" y="-274.4"/>
      <point x="-22.399999999999995" y="-364.0" type="curve"/>
      <point x="131.8" y="-364.0" type="line"/>
      <point x="181.20000000000002" y="-268.40000000000003"/>
      <point x="293.6" y="-50.199999999999996"/>
      <point x="345.8" y="124.4" type="curve" smooth="yes"/>
    </contour>
  </outline>
</glyph>
<glyph name="hyphen" format="2">
  <advance height="2479.0" width="948.8"/>
  <unicode hex="002D"/>
  <outline>
    <contour>
      <point x="831.4" y="724.2" type="line"/>
      <point x="171.0" y="724.2" type="line"/>
      <point x="139.6" y="535.6" type="line"/>
      <point x="800.8000000000001" y="535.6" type="line"/>
    </contour>
  </outline>
</glyph>
<glyph name="period" format="2">
  <advance height="2479.0" width="579.2"/>
  <unicode hex="002E"/>
  <outline>
    <contour>
      <point x="214.40000000000003" y="-14.2" type="curve" smooth="yes"/>
      <point x="292.8" y="-14.2"/>
      <point x="360.8" y="51.0"/>
      <point x="364.0" y="131.2" type="curve" smooth="yes"/>
      <point x="367.8" y="209.4"/>
      <point x="302.20000000000005" y="273.8"/>
      <point x="223.00000000000003" y="273.8" type="curve" smooth="yes"/>
      <point x="143.6" y="273.8"/>
      <point x="74.4" y="211.8"/>
      <point x="73.6" y="131.2" type="curve" smooth="yes"/>
      <point x="72.20000000000002" y="51.0"/>
      <point x="132.4" y="-14.2"/>
    </contour>
  </outline>
</glyph>
<glyph name="slash" format="2">
  <advance height="2479.0" width="752.8"/>
  <unicode hex="002F"/>
  <outline>
    <contour>
      <point x="878.8000000000001" y="1559.0" type="line"/>
      <point x="685.0" y="1559.0" type="line"/>
      <point x="-88.0" y="-224.0" type="line"/>
      <point x="105.6" y="-224.0" type="line"/>
    </contour>
  </outline>
</glyph>
<glyph name="zero" format="2">
  <advance height="2479.0" width="1322.6"/>
  <unicode hex="0030"/>
  <outline>
    <contour>
      <point x="563.8000000000001" y="-24.2" type="curve" smooth="yes"/>
      <point x="907.8" y="-24.2"/>
      <point x="1155.8" y="257.2"/>
      <point x="1237.6000000000001" y="744.4" type="curve" smooth="yes"/>
      <point x="1318.0" y="1228.3999999999999"/>
      <point x="1159.0" y="1510.0"/>
      <point x="817.4" y="1510.0" type="curve" smooth="yes"/>
      <point x="475.8" y="1510.0"/>
      <point x="226.0" y="1229.0"/>
      <point x="145.79999999999998" y="744.4" type="curve" smooth="yes"/>
      <point x="65.80000000000001" y="256.6"/>
      <point x="219.2" y="-24.2"/>
    </contour>
    <contour>
      <point x="595.6" y="169.6" type="curve" smooth="yes"/>
      <point x="395.8" y="169.6"/>
      <point x="308.0" y="372.0"/>
      <point x="369.59999999999997" y="744.4" type="curve" smooth="yes"/>
      <point x="431.0" y="1115.0"/>
      <point x="585.4" y="1319.2"/>
      <point x="786.2" y="1319.2" type="curve" smooth="yes"/>
      <point x="986.0" y="1319.2"/>
      <point x="1075.6000000000001" y="1115.0"/>
      <point x="1013.8000000000001" y="744.4" type="curve" smooth="yes"/>
      <point x="952.0" y="372.0"/>
      <point x="798.0" y="169.6"/>
    </contour>
  </outline>
</glyph>
<glyph name="one" format="2">
  <advance height="2479.0" width="968.0"/>
  <unicode hex="0031"/>
  <outline>
    <contour>
      <point x="862.2" y="1489.0" type="line"/>
      <point x="643.8" y="1489.0" type="line"/>
      <point x="232.6" y="1246.6" type="line"/>
      <point x="195.8" y="1031.6" type="line"/>
      <point x="590.6" y="1263.4" type="line"/>
      <point x="599.6" y="1263.4" type="line"/>
      <point x="389.6" y="0.0" type="line"/>
      <point x="615.2" y="0.0" type="line"/>
    </contour>
  </outline>
</glyph>
<glyph name="two" format="2">
  <advance height="2479.0" width="1256.0"/>
  <unicode hex="0032"/>
  <anchor x="878.4" y="777.8" name="cross"/>
  <outline>
    <contour>
      <point x="50.0" y="0.0" type="line"/>
      <point x="1030.6" y="0.0" type="line"/>
      <point x="1062.1999999999998" y="192.6" type="line"/>
      <point x="392.2" y="192.6" type="line"/>
      <point x="394.2" y="204.0" type="line"/>
      <point x="740.1999999999999" y="512.8" type="line" smooth="yes"/>
      <point x="1058.3999999999999" y="789.6"/>
      <point x="1159.0" y="920.6"/>
      <point x="1188.0" y="1087.6" type="curve" smooth="yes"/>
      <point x="1227.8" y="1327.2"/>
      <point x="1066.3999999999999" y="1510.0"/>
      <point x="786.2" y="1510.0" type="curve" smooth="yes"/>
      <point x="507.2" y="1510.0"/>
      <point x="269.40000000000003" y="1329.2"/>
      <point x="223.8" y="1057.6" type="curve"/>
      <point x="438.2" y="1057.6" type="line"/>
      <point x="465.4" y="1217.0"/>
      <point x="590.4" y="1322.2"/>
      <point x="750.4" y="1322.2" type="curve" smooth="yes"/>
      <point x="902.0" y="1322.2"/>
      <point x="997.4" y="1229.2"/>
      <point x="972.8000000000001" y="1080.6" type="curve" smooth="yes"/>
      <point x="950.8000000000001" y="950.2"/>
      <point x="856.0" y="854.5999999999999"/>
      <point x="667.8" y="685.4" type="curve" smooth="yes"/>
      <point x="78.0" y="163.0" type="line"/>
    </contour>
  </outline>
</glyph>
<glyph name="three" format="2">
  <advance height="2479.0" width="1318.8"/>
  <unicode hex="0033"/>
  <outline>
    <contour>
      <point x="577.0" y="-20.0" type="curve" smooth="yes"/>
      <point x="881.8" y="-20.0"/>
      <point x="1119.4" y="143.8"/>
      <point x="1161.0" y="395.8" type="curve" smooth="yes"/>
      <point x="1192.0" y="584.4"/>
      <point x="1096.8" y="732.0"/>
      <point x="908.1999999999999" y="762.6" type="curve"/>
      <point x="908.1999999999999" y="772.2" type="line"/>
      <point x="1071.6" y="813.0"/>
      <point x="1193.6000000000001" y="925.0"/>
      <point x="1220.2" y="1091.2" type="curve" smooth="yes"/>
      <point x="1256.2" y="1312.0"/>
      <point x="1105.0" y="1510.0"/>
      <point x="813.0" y="1510.0" type="curve" smooth="yes"/>
      <point x="545.4" y="1510.0"/>
      <point x="303.6" y="1343.4"/>
      <point x="258.59999999999997" y="1102.4" type="curve"/>
      <point x="475.40000000000003" y="1102.4" type="line"/>
      <point x="500.40000000000003" y="1239.0"/>
      <point x="653.0" y="1322.2"/>
      <point x="801.8" y="1322.2" type="curve" smooth="yes"/>
      <point x="953.4" y="1322.2"/>
      <point x="1027.2" y="1235.2"/>
      <point x="1005.4" y="1105.4" type="curve" smooth="yes"/>
      <point x="980.4000000000001" y="954.0"/>
      <point x="844.1999999999999" y="854.4"/>
      <point x="677.8000000000001" y="854.4" type="curve" smooth="yes"/>
      <point x="559.0" y="854.4" type="line"/>
      <point x="528.0" y="670.6" type="line"/>
      <point x="658.4000000000001" y="670.6" type="line" smooth="yes"/>
      <point x="864.6" y="670.6"/>
      <point x="959.8000000000001" y="571.8"/>
      <point x="938.4" y="429.40000000000003" type="curve" smooth="yes"/>
      <point x="914.6" y="272.20000000000005"/>
      <point x="759.4" y="173.0"/>
      <point x="584.0" y="173.0" type="curve" smooth="yes"/>
      <point x="422.2" y="173.0"/>
      <point x="321.0" y="257.40000000000003"/>
      <point x="335.40000000000003" y="388.4" type="curve"/>
      <point x="110.4" y="388.4" type="line"/>
      <point x="76.8" y="144.79999999999998"/>
      <point x="271.40000000000003" y="-20.0"/>
    </contour>
  </outline>
</glyph>
<glyph name="four" format="2">
  <advance height="2479.0" width="1339.4"/>
  <unicode hex="0034"/>
  <outline>
    <contour>
      <point x="69.0" y="290.6" type="line"/>
      <point x="1186.4" y="290.6" type="line"/>
      <point x="1217.6000000000001" y="481.4" type="line"/>
      <point x="336.0" y="481.4" type="line"/>
      <point x="336.6" y="493.4" type="line"/>
      <point x="918.0" y="1222.2" type="line"/>
      <point x="1009.0" y="1222.2" type="line"/>
      <point x="1053.3999999999999" y="1489.0" type="line"/>
      <point x="910.0" y="1489.0" type="line"/>
      <point x="97.8" y="472.6" type="line"/>
    </contour>
    <contour>
      <point x="724.8" y="0.0" type="line"/>
      <point x="939.8" y="0.0" type="line"/>
      <point x="1186.8" y="1489.0" type="line"/>
      <point x="974.4" y="1489.0" type="line"/>
      <point x="798.1999999999999" y="428.2" type="line"/>
      <point x="782.1999999999999" y="347.40000000000003" type="line"/>
    </contour>
  </outline>
</glyph>
<glyph name="five" format="2">
  <advance height="2479.0" width="1270.0"/>
  <unicode hex="0035"/>
  <outline>
    <contour>
      <point x="539.0" y="-20.0" type="curve" smooth="yes"/>
      <point x="840.0" y="-20.0"/>
      <point x="1087.3999999999999" y="191.39999999999998"/>
      <point x="1134.8" y="481.6" type="curve" smooth="yes"/>
      <point x="1183.3999999999999" y="768.4"/>
      <point x="1018.0" y="979.0"/>
      <point x="746.6" y="979.0" type="curve" smooth="yes"/>
      <point x="634.8" y="979.0"/>
      <point x="526.4" y="937.5999999999999"/>
      <point x="458.2" y="879.6" type="curve"/>
      <point x="450.0" y="879.6" type="line"/>
      <point x="566.8" y="1296.6" type="line"/>
      <point x="1198.2" y="1296.6" type="line"/>
      <point x="1230.4" y="1489.0" type="line"/>
      <point x="411.0" y="1489.0" type="line"/>
      <point x="201.6" y="738.6" type="line"/>
      <point x="403.0" y="708.6" type="line"/>
      <point x="468.59999999999997" y="758.4"/>
      <point x="574.2" y="792.8"/>
      <point x="663.4" y="792.8" type="curve" smooth="yes"/>
      <point x="841.6" y="792.8000000000001"/>
      <point x="946.6" y="659.0"/>
      <point x="916.8000000000001" y="476.8" type="curve" smooth="yes"/>
      <point x="886.6" y="297.0"/>
      <point x="741.4000000000001" y="169.0"/>
      <point x="569.8" y="169.0" type="curve" smooth="yes"/>
      <point x="427.59999999999997" y="169.0"/>
      <point x="326.0" y="261.6"/>
      <point x="336.0" y="388.4" type="curve"/>
      <point x="117.39999999999999" y="388.4" type="line"/>
      <point x="88.00000000000001" y="151.39999999999998"/>
      <point x="265.8" y="-20.0"/>
    </contour>
  </outline>
</glyph>
<glyph name="six" format="2">
  <advance height="2479.0" width="1302.0"/>
  <unicode hex="0036"/>
  <outline>
    <contour>
      <point x="579.8" y="-20.0" type="curve" smooth="yes"/>
      <point x="885.0" y="-22.4"/>
      <point x="1119.0" y="194.4"/>
      <point x="1166.8000000000002" y="472.79999999999995" type="curve" smooth="yes"/>
      <point x="1215.6" y="764.4"/>
      <point x="1038.3999999999999" y="976.6"/>
      <point x="773.1999999999999" y="976.6" type="curve" smooth="yes"/>
      <point x="619.6" y="976.6"/>
      <point x="478.0" y="906.1999999999999"/>
      <point x="380.4" y="781.2" type="curve"/>
      <point x="369.2" y="767.4" type="line"/>
      <point x="429.40000000000003" y="1118.2"/>
      <point x="600.2" y="1313.4"/>
      <point x="820.1999999999999" y="1313.4" type="curve" smooth="yes"/>
      <point x="962.4" y="1313.4"/>
      <point x="1035.6" y="1229.1999999999998"/>
      <point x="1039.6" y="1103.0" type="curve"/>
      <point x="1255.8" y="1103.0" type="line"/>
      <point x="1261.4" y="1340.6000000000001"/>
      <point x="1093.4" y="1510.0"/>
      <point x="829.4" y="1510.0" type="curve" smooth="yes"/>
      <point x="488.0" y="1510.0"/>
      <point x="230.39999999999998" y="1219.6000000000001"/>
      <point x="144.8" y="708.0" type="curve" smooth="yes"/>
      <point x="51.8" y="154.0"/>
      <point x="308.6" y="-18.400000000000002"/>
    </contour>
    <contour>
      <point x="587.4" y="169.0" type="curve" smooth="yes"/>
      <point x="418.8" y="169.0"/>
      <point x="321.8" y="307.0"/>
      <point x="348.2" y="467.4" type="curve" smooth="yes"/>
      <point x="375.8" y="641.6"/>
      <point x="541.0" y="794.0"/>
      <point x="717.4" y="794.0" type="curve" smooth="yes"/>
      <point x="881.8" y="794.0"/>
      <point x="978.6" y="661.4"/>
      <point x="951.8000000000001" y="497.2" type="curve" smooth="yes"/>
      <point x="922.8" y="314.40000000000003"/>
      <point x="762.2" y="169.0"/>
    </contour>
  </outline>
</glyph>
<glyph name="seven" format="2">
  <advance height="2479.0" width="1185.4"/>
  <unicode hex="0037"/>
  <outline>
    <contour>
      <point x="101.0" y="0.0" type="line"/>
      <point x="335.4" y="0.0" type="line"/>
      <point x="1196.6000000000001" y="1290.2" type="line"/>
      <point x="1230.4" y="1489.0" type="line"/>
      <point x="246.0" y="1489.0" type="line"/>
      <point x="214.8" y="1296.6" type="line"/>
      <point x="966.4" y="1296.6" type="line"/>
      <point x="963.4" y="1286.0" type="line"/>
    </contour>
  </outline>
</glyph>
<glyph name="eight" format="2">
  <advance height="2479.0" width="1292.6000000000001"/>
  <unicode hex="0038"/>
  <outline>
    <contour>
      <point x="559.2" y="-20.0" type="curve" smooth="yes"/>
      <point x="863.4" y="-20.0"/>
      <point x="1107.0" y="149.6"/>
      <point x="1147.0" y="388.0" type="curve" smooth="yes"/>
      <point x="1179.8" y="579.4"/>
      <point x="1070.0" y="740.8"/>
      <point x="906.8" y="772.2" type="curve"/>
      <point x="906.8" y="779.4" type="line"/>
      <point x="1055.6" y="813.1999999999999"/>
      <point x="1182.6000000000001" y="937.4"/>
      <point x="1210.4" y="1103.4" type="curve" smooth="yes"/>
      <point x="1249.8" y="1335.4"/>
      <point x="1070.8" y="1510.0"/>
      <point x="793.8000000000001" y="1510.0" type="curve" smooth="yes"/>
      <point x="523.1999999999999" y="1510.0"/>
      <point x="305.20000000000005" y="1348.6"/>
      <point x="263.2" y="1121.8" type="curve" smooth="yes"/>
      <point x="233.2" y="958.4"/>
      <point x="303.59999999999997" y="814.8"/>
      <point x="445.6" y="779.4" type="curve"/>
      <point x="445.6" y="772.2" type="line"/>
      <point x="273.40000000000003" y="743.1999999999999"/>
      <point x="120.0" y="590.1999999999999"/>
      <point x="89.60000000000001" y="406.40000000000003" type="curve" smooth="yes"/>
      <point x="48.60000000000001" y="163.6"/>
      <point x="242.4" y="-20.0"/>
    </contour>
    <contour>
      <point x="573.4000000000001" y="163.8" type="curve" smooth="yes"/>
      <point x="393.2" y="163.8"/>
      <point x="295.20000000000005" y="255.79999999999998"/>
      <point x="318.0" y="402.2" type="curve" smooth="yes"/>
      <point x="343.8" y="562.0"/>
      <point x="494.0" y="677.0"/>
      <point x="673.0" y="677.0" type="curve" smooth="yes"/>
      <point x="843.2" y="677.0"/>
      <point x="950.2" y="574.2"/>
      <point x="925.8" y="420.6" type="curve" smooth="yes"/>
      <point x="901.6" y="267.4"/>
      <point x="764.2" y="163.8"/>
    </contour>
    <contour>
      <point x="687.0" y="856.8" type="curve" smooth="yes"/>
      <point x="542.6" y="856.8"/>
      <point x="452.6" y="943.6"/>
      <point x="475.79999999999995" y="1084.6000000000001" type="curve" smooth="yes"/>
      <point x="499.8" y="1228.8"/>
      <point x="621.1999999999999" y="1326.2"/>
      <point x="782.2" y="1326.2" type="curve" smooth="yes"/>
      <point x="931.8" y="1326.2"/>
      <point x="1017.6" y="1242.6000000000001"/>
      <point x="992.8000000000001" y="1103.0" type="curve" smooth="yes"/>
      <point x="967.2" y="958.1999999999999"/>
      <point x="843.4" y="856.8"/>
    </contour>
  </outline>
</glyph>
<glyph name="nine" format="2">
  <advance height="2479.0" width="1302.0"/>
  <unicode hex="0039"/>
  <outline>
    <contour>
      <point x="786.2" y="1510.0" type="curve" smooth="yes"/>
      <point x="480.4" y="1512.4"/>
      <point x="247.20000000000002" y="1297.8"/>
      <point x="199.2" y="1019.4" type="curve" smooth="yes"/>
      <point x="150.6" y="728.2"/>
      <point x="327.8" y="516.8"/>
      <point x="592.8000000000001" y="516.8" type="curve" smooth="yes"/>
      <point x="746.6" y="516.8"/>
      <point x="888.2" y="587.4"/>
      <point x="985.6" y="712.1999999999999" type="curve"/>
      <point x="997.6" y="725.1999999999999" type="line"/>
      <point x="937.6" y="371.0"/>
      <point x="765.2" y="176.6"/>
      <point x="546.6" y="176.6" type="curve" smooth="yes"/>
      <point x="402.8" y="176.6"/>
      <point x="331.0" y="259.79999999999995"/>
      <point x="326.4" y="389.59999999999997" type="curve"/>
      <point x="110.20000000000002" y="389.59999999999997" type="line"/>
      <point x="104.8" y="149.20000000000002"/>
      <point x="271.8" y="-20.0"/>
      <point x="536.6" y="-20.0" type="curve" smooth="yes"/>
      <point x="878.1999999999999" y="-20.0"/>
      <point x="1135.6000000000001" y="270.40000000000003"/>
      <point x="1221.4" y="784.8" type="curve" smooth="yes"/>
      <point x="1314.2" y="1338.4"/>
      <point x="1057.6" y="1507.6"/>
    </contour>
    <contour>
      <point x="778.6" y="1320.8" type="curve" smooth="yes"/>
      <point x="947.4000000000001" y="1320.8"/>
      <point x="1044.1999999999998" y="1185.0"/>
      <point x="1017.8" y="1024.6" type="curve" smooth="yes"/>
      <point x="990.6" y="852.0"/>
      <point x="825.2" y="699.4"/>
      <point x="648.6" y="699.4" type="curve" smooth="yes"/>
      <point x="484.2" y="699.4"/>
      <point x="388.0" y="831.0"/>
      <point x="414.2" y="995.8000000000001" type="curve" smooth="yes"/>
      <point x="443.2" y="1177.8"/>
      <point x="604.0" y="1320.8"/>
    </contour>
  </outline>
</glyph>
<glyph name="less" format="2">
  <advance height="2479.0" width="1364.0"/>
  <unicode hex="003C"/>
  <outline>
    <contour>
      <point x="188.8" y="505.4" type="line"/>
      <point x="1077.1999999999998" y="37.0" type="line"/>
      <point x="1115.0" y="259.2" type="line"/>
      <point x="454.2" y="583.6" type="line"/>
      <point x="460.79999999999995" y="570.6" type="line"/>
      <point x="465.0" y="601.8" type="line"/>
      <point x="457.2" y="589.6" type="line"/>
      <point x="1224.1999999999998" y="914.2" type="line"/>
      <point x="1259.8" y="1136.2" type="line"/>
      <point x="217.4" y="668.0" type="line"/>
    </contour>
  </outline>
</glyph>
<glyph name="equal" format="2">
  <advance height="2479.0" width="1364.0"/>
  <unicode hex="003D"/>
  <outline>
    <contour>
      <point x="241.4" y="715.4" type="line"/>
      <point x="1173.4" y="715.4" type="line"/>
      <point x="1205.4" y="906.2" type="line"/>
      <point x="273.2" y="906.2" type="line"/>
    </contour>
    <contour>
      <point x="167.8" y="267.0" type="line"/>
      <point x="1099.8" y="267.0" type="line"/>
      <point x="1131.0" y="457.8" type="line"/>
      <point x="199.0" y="457.8" type="line"/>
    </contour>
  </outline>
</glyph>
<glyph name="greater" format="2">
  <advance height="2479.0" width="1364.0"/>
  <unicode hex="003E"/>
  <outline>
    <contour>
      <point x="1183.8" y="505.4" type="line"/>
      <point x="1212.1999999999998" y="668.0" type="line"/>
      <point x="323.2" y="1136.2" type="line"/>
      <point x="287.0" y="914.2" type="line"/>
      <point x="946.2" y="589.6" type="line"/>
      <point x="939.6" y="601.8" type="line"/>
      <point x="935.4" y="570.6" type="line"/>
      <point x="943.2" y="583.6" type="line"/>
      <point x="178.6" y="259.2" type="line"/>
      <point x="140.8" y="37.0" type="line"/>
    </contour>
  </outline>
</glyph>
<glyph name="question" format="2">
  <advance height="2479.0" width="1076.8"/>
  <unicode hex="003F"/>
  <outline>
    <contour>
      <point x="362.6" y="428.2" type="line"/>
      <point x="570.4" y="428.2" type="line"/>
      <point x="574.0" y="448.79999999999995" type="line" smooth="yes"/>
      <point x="603.6" y="612.2"/>
      <point x="665.4" y="686.1999999999999"/>
      <point x="800.6" y="761.5999999999999" type="curve" smooth="yes"/>
      <point x="943.8" y="838.6"/>
      <point x="1043.0" y="950.0"/>
      <point x="1069.6" y="1113.6" type="curve" smooth="yes"/>
      <point x="1109.0" y="1349.8"/>
      <point x="955.4000000000001" y="1510.0"/>
      <point x="688.8000000000001" y="1510.0" type="curve" smooth="yes"/>
      <point x="443.0" y="1510.0"/>
      <point x="224.6" y="1366.4"/>
      <point x="172.0" y="1104.8" type="curve"/>
      <point x="392.8" y="1104.8" type="line"/>
      <point x="425.59999999999997" y="1259.2"/>
      <point x="547.8" y="1327.0"/>
      <point x="659.4" y="1327.0" type="curve" smooth="yes"/>
      <point x="782.8" y="1327.0"/>
      <point x="867.8" y="1244.2"/>
      <point x="846.4" y="1116.0" type="curve" smooth="yes"/>
      <point x="830.1999999999999" y="1006.2"/>
      <point x="748.6" y="931.4"/>
      <point x="653.8" y="877.6" type="curve" smooth="yes"/>
      <point x="507.6" y="795.4"/>
      <point x="412.6" y="714.2"/>
      <point x="366.2" y="448.79999999999995" type="curve" smooth="yes"/>
    </contour>
    <component base="period" xOffset="203.6"/>
  </outline>
</glyph>
<glyph name="at" format="2">
  <advance height="2479.0" width="1981.6"/>
  <unicode hex="0040"/>
  <outline>
    <contour>
      <point x="883.6" y="-405.2" type="curve" smooth="yes"/>
      <point x="1052.0" y="-405.2"/>
      <point x="1251.4" y="-359.4"/>
      <point x="1351.2" y="-316.8" type="curve"/>
      <point x="1325.4" y="-157.4" type="line"/>
      <point x="1260.8000000000002" y="-179.8"/>
      <point x="1084.6" y="-232.6"/>
      <point x="922.0000000000001" y="-232.6" type="curve" smooth="yes"/>
      <point x="432.80000000000007" y="-232.6"/>
      <point x="215.20000000000002" y="37.0"/>
      <point x="294.4" y="520.4" type="curve" smooth="yes"/>
      <point x="370.0" y="983.0"/>
      <point x="679.6" y="1280.8"/>
      <point x="1144.8" y="1280.8" type="curve" smooth="yes"/>
      <point x="1570.2" y="1280.8"/>
      <point x="1780.1999999999998" y="1008.6"/>
      <point x="1717.2" y="639.0" type="curve" smooth="yes"/>
      <point x="1665.3999999999999" y="322.8"/>
      <point x="1602.0" y="181.0"/>
      <point x="1470.0" y="181.0" type="curve" smooth="yes"/>
      <point x="1394.6000000000001" y="181.0"/>
      <point x="1363.2" y="242.4"/>
      <point x="1374.2" y="318.8" type="curve" smooth="yes"/>
      <point x="1487.4" y="993.4" type="line"/>
      <point x="1308.1999999999998" y="993.4" type="line"/>
      <point x="1294.6" y="912.2" type="line"/>
      <point x="1285.0" y="912.2" type="line"/>
      <point x="1274.1999999999998" y="976.2"/>
      <point x="1157.2" y="1033.0"/>
      <point x="1001.6" y="1015.4" type="curve" smooth="yes"/>
      <point x="787.8000000000001" y="989.8"/>
      <point x="579.4" y="816.8"/>
      <point x="532.0" y="529.8" type="curve" smooth="yes"/>
      <point x="481.79999999999995" y="231.6"/>
      <point x="601.8" y="31.799999999999997"/>
      <point x="844.0" y="21.599999999999998" type="curve" smooth="yes"/>
      <point x="1009.0" y="14.599999999999998"/>
      <point x="1130.8" y="91.6"/>
      <point x="1178.0" y="177.6" type="curve"/>
      <point x="1186.2" y="177.6" type="line"/>
      <point x="1184.0" y="60.8"/>
      <point x="1303.8000000000002" y="8.599999999999998"/>
      <point x="1428.0" y="12.8" type="curve" smooth="yes"/>
      <point x="1740.0" y="18.6"/>
      <point x="1849.8" y="324.2"/>
      <point x="1900.3999999999999" y="631.4" type="curve" smooth="yes"/>
      <point x="1971.8" y="1069.0"/>
      <point x="1735.6000000000001" y="1450.4"/>
      <point x="1180.2" y="1450.4" type="curve" smooth="yes"/>
      <point x="597.8000000000001" y="1450.4"/>
      <point x="195.0" y="1094.6"/>
      <point x="100.60000000000001" y="521.6" type="curve" smooth="yes"/>
      <point x="4.2000000000000055" y="-68.6"/>
      <point x="282.2" y="-405.2"/>
    </contour>
    <contour>
      <point x="917.0" y="200.0" type="curve" smooth="yes"/>
      <point x="727.8" y="200.0"/>
      <point x="689.2" y="363.2"/>
      <point x="716.8" y="538.8" type="curve" smooth="yes"/>
      <point x="745.6" y="706.6"/>
      <point x="861.0" y="839.4"/>
      <point x="1025.6000000000001" y="839.4" type="curve" smooth="yes"/>
      <point x="1203.8" y="839.4"/>
      <point x="1270.2" y="760.2"/>
      <point x="1233.6000000000001" y="539.4" type="curve" smooth="yes"/>
      <point x="1196.8" y="312.8"/>
      <point x="1106.6000000000001" y="200.0"/>
    </contour>
  </outline>
</glyph>
<glyph name="A" format="2">
  <advance height="2479.0" width="1433.8"/>
  <unicode hex="0041"/>
  <anchor x="623.4" y="0.0" name="bottom"/>
  <anchor x="1289.0" y="0.0" name="ogonek"/>
  <anchor x="642.0" y="1489.0" name="tonos"/>
  <anchor x="903.4" y="1676.0" name="top"/>
  <outline>
    <contour>
      <point x="196.39999999999998" y="0.0" type="line"/>
      <point x="821.6" y="1219.0" type="line"/>
      <point x="833.6" y="1219.0" type="line"/>
      <point x="1050.6" y="0.0" type="line"/>
      <point x="1289.0" y="0.0" type="line"/>
      <point x="1001.0" y="1489.0" type="line"/>
      <point x="740.8" y="1489.0" type="line"/>
      <point x="-42.2" y="0.0" type="line"/>
    </contour>
    <contour>
      <point x="332.6" y="583.2" type="line"/>
      <point x="301.4" y="394.6" type="line"/>
      <point x="1075.0" y="394.6" type="line"/>
      <point x="1106.3999999999999" y="583.2" type="line"/>
    </contour>
  </outline>
</glyph>
<glyph name="B" format="2">
  <advance height="2479.0" width="1339.0"/>
  <unicode hex="0042"/>
  <anchor x="556.4" y="0.0" name="bottom"/>
  <anchor x="828.8" y="1676.0" name="top"/>
  <outline>
    <contour>
      <point x="70.19999999999999" y="0.0" type="line"/>
      <point x="640.8000000000001" y="0.0" type="line" smooth="yes"/>
      <point x="987.0" y="0.0"/>
      <point x="1173.0" y="173.0"/>
      <point x="1211.4" y="401.2" type="curve" smooth="yes"/>
      <point x="1248.8" y="631.0"/>
      <point x="1108.1999999999998" y="761.4"/>
      <point x="962.5999999999999" y="769.8" type="curve"/>
      <point x="965.5999999999999" y="784.6" type="line"/>
      <point x="1106.0" y="818.8000000000001"/>
      <point x="1235.8" y="912.4000000000001"/>
      <point x="1267.2" y="1098.6" type="curve" smooth="yes"/>
      <point x="1305.0" y="1318.4"/>
      <point x="1180.8" y="1489.0"/>
      <point x="863.2" y="1489.0" type="curve" smooth="yes"/>
      <point x="318.0" y="1489.0" type="line"/>
    </contour>
    <contour>
      <point x="327.8" y="192.6" type="line"/>
      <point x="407.2" y="669.8" type="line"/>
      <point x="739.8000000000001" y="669.8" type="line" smooth="yes"/>
      <point x="920.8000000000001" y="669.8"/>
      <point x="1012.0" y="553.4"/>
      <point x="990.1999999999999" y="411.6" type="curve" smooth="yes"/>
      <point x="968.8" y="287.0"/>
      <point x="866.6" y="192.6"/>
      <point x="652.0" y="192.6" type="curve" smooth="yes"/>
    </contour>
    <contour>
      <point x="436.8" y="845.4" type="line"/>
      <point x="511.59999999999997" y="1297.6" type="line"/>
      <point x="818.0" y="1297.6" type="line" smooth="yes"/>
      <point x="996.2" y="1297.6"/>
      <point x="1065.6000000000001" y="1204.6000000000001"/>
      <point x="1043.4" y="1081.2" type="curve" smooth="yes"/>
      <point x="1022.2" y="937.6"/>
      <point x="889.1999999999999" y="845.4"/>
      <point x="737.8000000000001" y="845.4" type="curve" smooth="yes"/>
    </contour>
  </outline>
</glyph>
<glyph name="C" format="2">
  <advance height="2479.0" width="1515.2"/>
  <unicode hex="0043"/>
  <anchor x="697.2" y="-8.4" name="cedilla"/>
  <anchor x="974.0" y="1676.0" name="top"/>
  <outline>
    <contour>
      <point x="1473.0" y="1005.4" type="line"/>
      <point x="1474.0" y="1323.2"/>
      <point x="1251.2" y="1510.0"/>
      <point x="931.0" y="1510.0" type="curve" smooth="yes"/>
      <point x="551.2" y="1510.0"/>
      <point x="227.79999999999998" y="1229.0"/>
      <point x="148.4" y="758.4" type="curve"/>
      <point x="69.6" y="275.59999999999997"/>
      <point x="309.2" y="-20.0"/>
      <point x="702.8" y="-20.0" type="curve" smooth="yes"/>
      <point x="1023.4000000000001" y="-20.0"/>
      <point x="1289.6000000000001" y="185.0"/>
      <point x="1387.3999999999999" y="479.6" type="curve"/>
      <point x="1162.0" y="479.6" type="line"/>
      <point x="1090.6000000000001" y="289.79999999999995"/>
      <point x="907.8" y="184.8"/>
      <point x="712.1999999999999" y="184.8" type="curve" smooth="yes"/>
      <point x="463.40000000000003" y="184.8"/>
      <point x="308.0" y="373.6"/>
      <point x="367.40000000000003" y="730.6" type="curve"/>
      <point x="427.8" y="1099.2"/>
      <point x="659.8000000000001" y="1304.4"/>
      <point x="923.2" y="1304.4" type="curve" smooth="yes"/>
      <point x="1106.3999999999999" y="1304.4"/>
      <point x="1244.8" y="1198.4"/>
      <point x="1249.8000000000002" y="1005.4" type="curve"/>
    </contour>
  </outline>
</glyph>
<glyph name="D" format="2">
  <advance height="2479.0" width="1477.8"/>
  <unicode hex="0044"/>
  <anchor x="465.2" y="0.0" name="bottom"/>
  <anchor x="339.0" y="772.0" name="cross"/>
  <anchor x="947.2" y="1676.0" name="top"/>
  <outline>
    <contour>
      <point x="559.4" y="0.0" type="line" smooth="yes"/>
      <point x="1013.4" y="0.0"/>
      <point x="1314.6000000000001" y="274.4"/>
      <point x="1390.6000000000001" y="733.6" type="curve" smooth="yes"/>
      <point x="1468.8" y="1203.0"/>
      <point x="1247.2" y="1489.0"/>
      <point x="809.0" y="1489.0" type="curve" smooth="yes"/>
      <point x="424.40000000000003" y="1489.0" type="line"/>
      <point x="391.20000000000005" y="1292.4" type="line"/>
      <point x="776.0" y="1292.4" type="line" smooth="yes"/>
      <point x="1101.6" y="1292.4"/>
      <point x="1232.0" y="1104.8"/>
      <point x="1173.3999999999999" y="760.1999999999999" type="curve" smooth="yes"/>
      <point x="1114.0" y="401.0"/>
      <point x="908.8000000000001" y="196.6"/>
      <point x="569.4" y="196.6" type="curve" smooth="yes"/>
      <point x="217.4" y="196.6" type="line"/>
      <point x="185.0" y="0.0" type="line"/>
    </contour>
    <contour>
      <point x="543.0" y="1489.0" type="line"/>
      <point x="318.0" y="1489.0" type="line"/>
      <point x="70.19999999999999" y="0.0" type="line"/>
      <point x="295.8" y="0.0" type="line"/>
    </contour>
  </outline>
</glyph>
<glyph name="E" format="2">
  <advance height="2479.0" width="1234.8"/>
  <unicode hex="0045"/>
  <anchor x="525.6" y="0.0" name="bottom"/>
  <anchor x="528.6" y="0.0" name="cedilla"/>
  <anchor x="1013.0" y="0.0" name="ogonek"/>
  <anchor x="272.2" y="1489.0" name="tonos"/>
  <anchor x="816.5999999999999" y="1676.0" name="top"/>
  <outline>
    <contour>
      <point x="70.19999999999999" y="0.0" type="line"/>
      <point x="1013.0" y="0.0" type="line"/>
      <point x="1045.0" y="193.2" type="line"/>
      <point x="327.8" y="193.2" type="line"/>
      <point x="403.0" y="649.2" type="line"/>
      <point x="1063.4" y="649.2" type="line"/>
      <point x="1095.2" y="842.4" type="line"/>
      <point x="435.0" y="842.4" type="line"/>
      <point x="510.99999999999994" y="1296.0" type="line"/>
      <point x="1219.2" y="1296.0" type="line"/>
      <point x="1251.2" y="1489.0" type="line"/>
      <point x="318.0" y="1489.0" type="line"/>
    </contour>
  </outline>
</glyph>
<glyph name="F" format="2">
  <advance height="2479.0" width="1200.0"/>
  <unicode hex="0046"/>
  <anchor x="484.99999999999994" y="12.0" name="bottom"/>
  <anchor x="237.6" y="329.2" name="cross"/>
  <anchor x="827.4" y="1676.0" name="top"/>
  <outline>
    <contour>
      <point x="70.19999999999999" y="0.0" type="line"/>
      <point x="295.8" y="0.0" type="line"/>
      <point x="403.0" y="649.2" type="line"/>
      <point x="1035.6000000000001" y="649.2" type="line"/>
      <point x="1067.4" y="842.4" type="line"/>
      <point x="435.0" y="842.4" type="line"/>
      <point x="510.99999999999994" y="1296.0" type="line"/>
      <point x="1209.2" y="1296.0" type="line"/>
      <point x="1241.8" y="1489.0" type="line"/>
      <point x="318.0" y="1489.0" type="line"/>
    </contour>
  </outline>
</glyph>
<glyph name="G" format="2">
  <advance height="2479.0" width="1578.8000000000002"/>
  <unicode hex="0047"/>
  <anchor x="683.1999999999999" y="1.2000000000000002" name="bottom"/>
  <anchor x="964.6" y="1676.0" name="top"/>
  <outline>
    <contour>
      <point x="1245.0" y="1018.8" type="curve"/>
      <point x="1475.4" y="1018.8" type="line"/>
      <point x="1474.4" y="1309.0"/>
      <point x="1260.0" y="1510.0"/>
      <point x="938.6" y="1510.0" type="curve" smooth="yes"/>
      <point x="553.4" y="1510.0"/>
      <point x="223.0" y="1219.4"/>
      <point x="145.79999999999998" y="744.4" type="curve" smooth="yes"/>
      <point x="67.19999999999999" y="272.6"/>
      <point x="291.8" y="-20.0"/>
      <point x="694.6" y="-20.0" type="curve" smooth="yes"/>
      <point x="1056.8" y="-20.0"/>
      <point x="1355.6000000000001" y="215.6"/>
      <point x="1415.6000000000001" y="593.0" type="curve" smooth="yes"/>
      <point x="1445.4" y="762.4" type="line"/>
      <point x="859.8000000000001" y="762.4" type="line"/>
      <point x="827.2" y="576.8" type="line"/>
      <point x="1253.8" y="576.8" type="line"/>
      <point x="1198.2" y="587.0" type="line"/>
      <point x="1158.8" y="341.8"/>
      <point x="959.2" y="184.8"/>
      <point x="717.4" y="184.8" type="curve" smooth="yes"/>
      <point x="454.0" y="184.8"/>
      <point x="309.40000000000003" y="383.6"/>
      <point x="369.40000000000003" y="745.6" type="curve" smooth="yes"/>
      <point x="429.0" y="1106.8"/>
      <point x="669.0" y="1304.4"/>
      <point x="922.0" y="1304.4" type="curve" smooth="yes"/>
      <point x="1119.2" y="1304.4"/>
      <point x="1220.2" y="1195.2"/>
    </contour>
  </outline>
</glyph>
<glyph name="H" format="2">
  <advance height="2479.0" width="1520.0"/>
  <unicode hex="0048"/>
  <anchor x="665.4" y="0.0" name="bottom"/>
  <anchor x="197.4" y="0.0" name="cedilla"/>
  <anchor x="1369.8" y="83.8" name="cyrtic"/>
  <anchor x="1260.6" y="0.0" name="right"/>
  <anchor x="278.2" y="1489.0" name="tonos"/>
  <anchor x="951.6" y="1678.4" name="top"/>
  <outline>
    <contour>
      <point x="70.19999999999999" y="0.0" type="line"/>
      <point x="295.8" y="0.0" type="line"/>
      <point x="403.0" y="649.2" type="line"/>
      <point x="1145.4" y="649.2" type="line"/>
      <point x="1038.2" y="0.0" type="line"/>
      <point x="1263.0" y="0.0" type="line"/>
      <point x="1510.0" y="1489.0" type="line"/>
      <point x="1285.2" y="1489.0" type="line"/>
      <point x="1178.0" y="842.4" type="line"/>
      <point x="435.0" y="842.4" type="line"/>
      <point x="543.0" y="1489.0" type="line"/>
      <point x="318.0" y="1489.0" type="line"/>
    </contour>
  </outline>
</glyph>
<glyph name="J" format="2">
  <advance height="2479.0" width="1130.6000000000001"/>
  <unicode hex="004A"/>
  <anchor x="908.8" y="884.0" name="cross"/>
  <anchor x="1040.4" y="1676.0" name="top"/>
  <outline>
    <contour>
      <point x="896.8" y="1489.0" type="line"/>
      <point x="723.0" y="438.40000000000003" type="line"/>
      <point x="693.4" y="266.2"/>
      <point x="590.6" y="170.8"/>
      <point x="445.4" y="170.8" type="curve" smooth="yes"/>
      <point x="316.79999999999995" y="170.8"/>
      <point x="242.2" y="244.0"/>
      <point x="259.4" y="372.2" type="curve"/>
      <point x="41.0" y="372.2" type="line"/>
      <point x="1.3999999999999944" y="121.2"/>
      <point x="170.2" y="-20.0"/>
      <point x="427.20000000000005" y="-20.0" type="curve" smooth="yes"/>
      <point x="703.1999999999999" y="-20.0"/>
      <point x="897.6" y="142.6"/>
      <point x="945.1999999999999" y="428.8" type="curve"/>
      <point x="1120.6000000000001" y="1489.0" type="line"/>
    </contour>
  </outline>
</glyph>
<glyph name="K" format="2">
  <advance height="2479.0" width="1360.6"/>
  <unicode hex="004B"/>
  <anchor x="603.0" y="0.6000000000000001" name="bottom"/>
  <anchor x="866.1999999999999" y="1676.0" name="top"/>
  <outline>
    <contour>
      <point x="70.19999999999999" y="0.0" type="line"/>
      <point x="295.8" y="0.0" type="line"/>
      <point x="373.40000000000003" y="462.59999999999997" type="line"/>
      <point x="583.4" y="665.4" type="line"/>
      <point x="952.8" y="0.0" type="line"/>
      <point x="1223.8" y="0.0" type="line"/>
      <point x="757.4" y="818.8" type="line"/>
      <point x="1468.4" y="1489.0" type="line"/>
      <point x="1185.4" y="1489.0" type="line"/>
      <point x="443.20000000000005" y="778.2" type="line"/>
      <point x="425.6" y="778.2" type="line"/>
      <point x="543.0" y="1489.0" type="line"/>
      <point x="318.0" y="1489.0" type="line"/>
    </contour>
  </outline>
</glyph>
<glyph name="L" format="2">
  <advance height="2479.0" width="1155.4"/>
  <unicode hex="004C"/>
  <anchor x="517.6" y="0.0" name="bottom"/>
  <anchor x="311.0" y="772.0" name="cross"/>
  <anchor x="645.8" y="809.8" name="dot"/>
  <anchor x="784.2" y="1489.0" name="raccent"/>
  <anchor x="464.0" y="1676.0" name="top"/>
  <outline>
    <contour>
      <point x="70.19999999999999" y="0.0" type="line"/>
      <point x="969.8" y="0.0" type="line"/>
      <point x="1001.8" y="193.2" type="line"/>
      <point x="327.8" y="193.2" type="line"/>
      <point x="543.0" y="1489.0" type="line"/>
      <point x="318.0" y="1489.0" type="line"/>
    </contour>
  </outline>
</glyph>
<glyph name="M" format="2">
  <advance height="2479.0" width="1839.4"/>
  <unicode hex="004D"/>
  <anchor x="825.8000000000001" y="0.0" name="bottom"/>
  <anchor x="1565.4" y="0.0" name="right"/>
  <anchor x="1105.6" y="1676.0" name="top"/>
  <outline>
    <contour>
      <point x="318.0" y="1489.0" type="line"/>
      <point x="70.19999999999999" y="0.0" type="line"/>
      <point x="284.6" y="0.0" type="line"/>
      <point x="464.8" y="1079.0" type="line"/>
      <point x="479.2" y="1079.0" type="line"/>
      <point x="737.4000000000001" y="0.0" type="line"/>
      <point x="915.4000000000001" y="0.0" type="line"/>
      <point x="1533.3999999999999" y="1077.8" type="line"/>
      <point x="1547.6" y="1077.8" type="line"/>
      <point x="1368.0" y="0.0" type="line"/>
      <point x="1582.2" y="0.0" type="line"/>
      <point x="1829.4" y="1489.0" type="line"/>
      <point x="1556.6" y="1489.0" type="line"/>
      <point x="891.4" y="331.6" type="line"/>
      <point x="873.6" y="331.6" type="line"/>
      <point x="590.6" y="1489.0" type="line"/>
    </contour>
  </outline>
</glyph>
<glyph name="N" format="2">
  <advance height="2479.0" width="1530.6"/>
  <unicode hex="004E"/>
  <anchor x="672.2" y="0.0" name="bottom"/>
  <anchor x="1284.2" y="0.0" name="right"/>
  <anchor x="951.2" y="1676.0" name="top"/>
  <outline>
    <contour>
      <point x="1520.6" y="1489.0" type="line"/>
      <point x="1297.4" y="1489.0" type="line"/>
      <point x="1115.8" y="395.6" type="line"/>
      <point x="1102.2" y="395.6" type="line"/>
      <point x="525.8" y="1489.0" type="line"/>
      <point x="318.0" y="1489.0" type="line"/>
      <point x="70.19999999999999" y="0.0" type="line"/>
      <point x="295.8" y="0.0" type="line"/>
      <point x="478.0" y="1091.8" type="line"/>
      <point x="491.0" y="1091.8" type="line"/>
      <point x="1066.0" y="0.0" type="line"/>
      <point x="1272.8" y="0.0" type="line"/>
    </contour>
  </outline>
</glyph>
<glyph name="O" format="2">
  <advance height="2479.0" width="1573.0"/>
  <unicode hex="004F"/>
  <anchor x="702.6" y="4.8" name="bottom"/>
  <anchor x="859.0" y="1.2000000000000002" name="ogonek"/>
  <anchor x="328.40000000000003" y="1489.0" name="tonos"/>
  <anchor x="970.6" y="1676.0" name="top"/>
  <outline>
    <contour>
      <point x="1485.8000000000002" y="730.2" type="curve"/>
      <point x="1565.8000000000002" y="1213.6000000000001"/>
      <point x="1323.0" y="1510.0"/>
      <point x="932.6" y="1510.0" type="curve" smooth="yes"/>
      <point x="551.2" y="1510.0"/>
      <point x="227.2" y="1227.8"/>
      <point x="148.2" y="757.8" type="curve"/>
      <point x="69.0" y="275.0"/>
      <point x="311.0" y="-20.0"/>
      <point x="704.4" y="-20.0" type="curve" smooth="yes"/>
      <point x="1083.8" y="-20.0"/>
      <point x="1407.2" y="261.0"/>
    </contour>
    <contour>
      <point x="1267.6" y="757.8" type="curve"/>
      <point x="1207.0" y="389.0"/>
      <point x="975.4" y="184.8"/>
      <point x="712.0" y="184.8" type="curve" smooth="yes"/>
      <point x="462.8" y="184.8"/>
      <point x="306.8" y="373.6"/>
      <point x="367.2" y="730.2" type="curve"/>
      <point x="427.2" y="1099.8"/>
      <point x="658.6" y="1304.4"/>
      <point x="922.6" y="1304.4" type="curve" smooth="yes"/>
      <point x="1172.4" y="1304.4"/>
      <point x="1327.0" y="1113.8"/>
    </contour>
  </outline>
</glyph>
<glyph name="P" format="2">
  <advance height="2479.0" width="1306.3999999999999"/>
  <unicode hex="0050"/>
  <anchor x="286.0" y="1489.0" name="tonos"/>
  <anchor x="836.8000000000001" y="1676.0" name="top"/>
  <outline>
    <contour>
      <point x="70.19999999999999" y="0.0" type="line"/>
      <point x="295.8" y="0.0" type="line"/>
      <point x="511.59999999999997" y="1296.6" type="line"/>
      <point x="793.8" y="1296.6" type="line" smooth="yes"/>
      <point x="1015.0" y="1296.6"/>
      <point x="1085.0" y="1177.3999999999999"/>
      <point x="1057.8" y="1007.0" type="curve" smooth="yes"/>
      <point x="1030.3999999999999" y="839.8"/>
      <point x="918.4" y="714.4"/>
      <point x="698.1999999999999" y="714.4" type="curve" smooth="yes"/>
      <point x="353.6" y="714.4" type="line"/>
      <point x="322.40000000000003" y="523.6" type="line"/>
      <point x="688.0" y="523.6" type="line" smooth="yes"/>
      <point x="1033.4" y="523.6"/>
      <point x="1238.8000000000002" y="732.8"/>
      <point x="1283.8000000000002" y="1007.0" type="curve" smooth="yes"/>
      <point x="1329.4" y="1282.3999999999999"/>
      <point x="1194.6000000000001" y="1489.0"/>
      <point x="849.0" y="1489.0" type="curve" smooth="yes"/>
      <point x="318.0" y="1489.0" type="line"/>
    </contour>
  </outline>
</glyph>
<glyph name="R" format="2">
  <advance height="2479.0" width="1324.8"/>
  <unicode hex="0052"/>
  <anchor x="584.2" y="0.0" name="bottom"/>
  <anchor x="837.8" y="1676.0" name="top"/>
  <outline>
    <contour>
      <point x="70.19999999999999" y="0.0" type="line"/>
      <point x="295.8" y="0.0" type="line"/>
      <point x="511.59999999999997" y="1296.6" type="line"/>
      <point x="793.8" y="1296.6" type="line" smooth="yes"/>
      <point x="1014.4000000000001" y="1296.6"/>
      <point x="1088.0" y="1192.6"/>
      <point x="1060.8" y="1023.0" type="curve" smooth="yes"/>
      <point x="1033.3999999999999" y="855.0"/>
      <point x="926.0" y="757.2"/>
      <point x="707.1999999999999" y="757.2" type="curve" smooth="yes"/>
      <point x="325.0" y="757.2" type="line"/>
      <point x="291.4" y="564.0" type="line"/>
      <point x="693.8" y="564.0" type="line" smooth="yes"/>
      <point x="1039.4" y="564.0"/>
      <point x="1241.8000000000002" y="749.4"/>
      <point x="1286.6000000000001" y="1023.0" type="curve" smooth="yes"/>
      <point x="1332.4" y="1297.6"/>
      <point x="1194.6000000000001" y="1489.0"/>
      <point x="849.0" y="1489.0" type="curve" smooth="yes"/>
      <point x="318.0" y="1489.0" type="line"/>
    </contour>
    <contour>
      <point x="917.0" y="672.0" type="line"/>
      <point x="667.8" y="672.0" type="line"/>
      <point x="917.8000000000001" y="0.0" type="line"/>
      <point x="1173.6" y="0.0" type="line"/>
    </contour>
  </outline>
</glyph>
<glyph name="S" format="2">
  <advance height="2479.0" width="1317.6"/>
  <unicode hex="0053"/>
  <anchor x="566.4" y="-20.8" name="bottom"/>
  <anchor x="569.8" y="0.0" name="cedilla"/>
  <anchor x="844.4" y="1676.0" name="top"/>
  <outline>
    <contour>
      <point x="1063.0" y="1088.8000000000002" type="curve"/>
      <point x="1280.2" y="1088.8000000000002" type="line"/>
      <point x="1311.0" y="1336.3999999999999"/>
      <point x="1132.0" y="1510.0"/>
      <point x="829.4" y="1510.0" type="curve" smooth="yes"/>
      <point x="530.4" y="1510.0"/>
      <point x="274.59999999999997" y="1339.4"/>
      <point x="230.20000000000002" y="1082.4" type="curve" smooth="yes"/>
      <point x="197.0" y="875.0"/>
      <point x="324.8" y="754.1999999999999"/>
      <point x="553.0" y="689.0" type="curve" smooth="yes"/>
      <point x="720.8" y="641.0" type="line" smooth="yes"/>
      <point x="873.5999999999999" y="598.8"/>
      <point x="988.8" y="546.0"/>
      <point x="965.8000000000001" y="413.4" type="curve" smooth="yes"/>
      <point x="942.6" y="268.59999999999997"/>
      <point x="787.4" y="172.4"/>
      <point x="596.6" y="172.4" type="curve" smooth="yes"/>
      <point x="423.2" y="172.4"/>
      <point x="291.0" y="249.4"/>
      <point x="305.6" y="412.0" type="curve"/>
      <point x="80.0" y="412.0" type="line"/>
      <point x="49.400000000000006" y="142.2"/>
      <point x="232.39999999999998" y="-24.2"/>
      <point x="565.8" y="-24.2" type="curve" smooth="yes"/>
      <point x="915.8" y="-24.2"/>
      <point x="1145.6" y="159.4"/>
      <point x="1188.4" y="411.0" type="curve" smooth="yes"/>
      <point x="1232.8" y="680.4"/>
      <point x="1010.5999999999999" y="784.4000000000001"/>
      <point x="831.2" y="831.2" type="curve" smooth="yes"/>
      <point x="691.1999999999999" y="868.4" type="line" smooth="yes"/>
      <point x="579.8000000000001" y="897.4"/>
      <point x="433.79999999999995" y="953.4"/>
      <point x="458.0" y="1095.4" type="curve" smooth="yes"/>
      <point x="478.79999999999995" y="1222.4"/>
      <point x="609.4" y="1315.6"/>
      <point x="792.8000000000001" y="1315.6" type="curve" smooth="yes"/>
      <point x="963.8000000000001" y="1315.6"/>
      <point x="1064.6" y="1236.0"/>
    </contour>
  </outline>
</glyph>
<glyph name="U" format="2">
  <advance height="2479.0" width="1509.8"/>
  <unicode hex="0055"/>
  <anchor x="658.8" y="-14.2" name="bottom"/>
  <anchor x="818.8000000000001" y="2.0" name="ogonek"/>
  <anchor x="753.8000000000001" y="0.0" name="right"/>
  <anchor x="938.2" y="1676.0" name="top"/>
  <outline>
    <contour>
      <point x="1274.2" y="1489.0" type="line"/>
      <point x="1114.8" y="528.4" type="line" smooth="yes"/>
      <point x="1080.6" y="326.4"/>
      <point x="918.4" y="180.8"/>
      <point x="691.2" y="180.8" type="curve" smooth="yes"/>
      <point x="464.4" y="180.8"/>
      <point x="347.6" y="326.4"/>
      <point x="381.8" y="528.4" type="curve" smooth="yes"/>
      <point x="541.1999999999999" y="1489.0" type="line"/>
      <point x="316.2" y="1489.0" type="line"/>
      <point x="154.2" y="509.4" type="line" smooth="yes"/>
      <point x="102.79999999999998" y="197.4"/>
      <point x="299.2" y="-24.2"/>
      <point x="656.4" y="-24.2" type="curve" smooth="yes"/>
      <point x="1013.6" y="-24.2"/>
      <point x="1286.3999999999999" y="197.4"/>
      <point x="1337.6" y="509.4" type="curve" smooth="yes"/>
      <point x="1499.8" y="1489.0" type="line"/>
    </contour>
  </outline>
</glyph>
<glyph name="V" format="2">
  <advance height="2479.0" width="1433.8"/>
  <unicode hex="0056"/>
  <anchor x="624.0" y="0.0" name="bottom"/>
  <anchor x="901.4" y="1676.0" name="top"/>
  <outline>
    <contour>
      <point x="446.4" y="1489.0" type="line"/>
      <point x="203.8" y="1489.0" type="line"/>
      <point x="491.79999999999995" y="0.0" type="line"/>
      <point x="752.0" y="0.0" type="line"/>
      <point x="1535.0" y="1489.0" type="line"/>
      <point x="1292.3999999999999" y="1489.0" type="line"/>
      <point x="677.1999999999999" y="276.6" type="line"/>
      <point x="661.4" y="276.6" type="line"/>
    </contour>
  </outline>
</glyph>
<glyph name="W" format="2">
  <advance height="2479.0" width="2002.3999999999999"/>
  <unicode hex="0057"/>
  <anchor x="909.0" y="9.6" name="bottom"/>
  <anchor x="1186.3999999999999" y="1676.0" name="top"/>
  <outline>
    <contour>
      <point x="361.40000000000003" y="0.0" type="line"/>
      <point x="587.6" y="0.0" type="line"/>
      <point x="1087.8" y="1116.0" type="line"/>
      <point x="1099.0" y="1116.0" type="line"/>
      <point x="1226.3999999999999" y="0.0" type="line"/>
      <point x="1452.6" y="0.0" type="line"/>
      <point x="2114.0" y="1489.0" type="line"/>
      <point x="1877.3999999999999" y="1489.0" type="line"/>
      <point x="1396.8000000000002" y="334.8" type="line"/>
      <point x="1382.3999999999999" y="334.8" type="line"/>
      <point x="1271.6" y="1489.0" type="line"/>
      <point x="1037.3999999999999" y="1489.0" type="line"/>
      <point x="544.4" y="335.4" type="line"/>
      <point x="531.0" y="335.4" type="line"/>
      <point x="431.6" y="1489.0" type="line"/>
      <point x="195.0" y="1489.0" type="line"/>
    </contour>
  </outline>
</glyph>
<glyph name="X" format="2">
  <advance height="2479.0" width="1364.4"/>
  <unicode hex="0058"/>
  <anchor x="591.0" y="8.4" name="bottom"/>
  <anchor x="713.6" y="745.0" name="cross"/>
  <anchor x="1188.6000000000001" y="83.8" name="cyrtic"/>
  <anchor x="1068.6" y="0.0" name="right"/>
  <anchor x="868.4" y="1676.0" name="top"/>
  <outline>
    <contour>
      <point x="470.8" y="1489.0" type="line"/>
      <point x="213.2" y="1489.0" type="line"/>
      <point x="563.6" y="745.0" type="line"/>
      <point x="-36.8" y="0.0" type="line"/>
      <point x="227.8" y="0.0" type="line"/>
      <point x="681.0" y="574.8" type="line"/>
      <point x="693.0" y="574.8" type="line"/>
      <point x="954.6000000000001" y="0.0" type="line"/>
      <point x="1215.2" y="0.0" type="line"/>
      <point x="872.6" y="745.0" type="line"/>
      <point x="1458.8" y="1489.0" type="line"/>
      <point x="1194.6000000000001" y="1489.0" type="line"/>
      <point x="742.6" y="907.2" type="line"/>
      <point x="730.8" y="907.2" type="line"/>
    </contour>
  </outline>
</glyph>
<glyph name="Y" format="2">
  <advance height="2479.0" width="1401.8"/>
  <unicode hex="0059"/>
  <anchor x="608.1999999999999" y="0.0" name="bottom"/>
  <anchor x="706.1999999999999" y="585.6" name="cross"/>
  <anchor x="720.4" y="0.0" name="ogonek"/>
  <anchor x="128.79999999999998" y="1489.0" name="tonos"/>
  <anchor x="887.4" y="1676.0" name="top"/>
  <outline>
    <contour>
      <point x="203.4" y="1489.0" type="line"/>
      <point x="592.6" y="584.8" type="line"/>
      <point x="495.40000000000003" y="0.0" type="line"/>
      <point x="720.4" y="0.0" type="line"/>
      <point x="817.8" y="584.8" type="line"/>
      <point x="1507.2" y="1489.0" type="line"/>
      <point x="1252.2" y="1489.0" type="line"/>
      <point x="752.8" y="812.0" type="line"/>
      <point x="736.2" y="812.0" type="line"/>
      <point x="458.4" y="1489.0" type="line"/>
    </contour>
  </outline>
</glyph>
<glyph name="Z" format="2">
  <advance height="2479.0" width="1308.6"/>
  <unicode hex="005A"/>
  <anchor x="584.8" y="0.0" name="bottom"/>
  <anchor x="707.1999999999999" y="772.0" name="cross"/>
  <anchor x="853.2" y="1676.0" name="top"/>
  <outline>
    <contour>
      <point x="32.2" y="0.0" type="line"/>
      <point x="1097.0" y="0.0" type="line"/>
      <point x="1128.8" y="193.2" type="line"/>
      <point x="338.4" y="193.2" type="line"/>
      <point x="1313.8000000000002" y="1340.2" type="line"/>
      <point x="1337.4" y="1489.0" type="line"/>
      <point x="272.6" y="1489.0" type="line"/>
      <point x="240.79999999999998" y="1296.0" type="line"/>
      <point x="1031.2" y="1296.0" type="line"/>
      <point x="58.2" y="149.6" type="line"/>
    </contour>
  </outline>
</glyph>
<glyph name="bracketleft" format="2">
  <advance height="2479.0" width="774.0"/>
  <unicode hex="005B"/>
  <outline>
    <contour>
      <point x="89.0" y="-309.8" type="line"/>
      <point x="567.0" y="-309.8" type="line"/>
      <point x="596.0" y="-137.4" type="line"/>
      <point x="325.79999999999995" y="-137.4" type="line"/>
      <point x="576.0" y="1373.4" type="line"/>
      <point x="846.4" y="1373.4" type="line"/>
      <point x="874.6" y="1545.0" type="line"/>
      <point x="396.0" y="1545.0" type="line"/>
    </contour>
  </outline>
</glyph>
<glyph name="backslash" format="2">
  <advance height="2479.0" width="751.8"/>
  <unicode hex="005C"/>
  <outline>
    <contour>
      <point x="391.00000000000006" y="-224.0" type="line"/>
      <point x="579.8" y="-224.0" type="line"/>
      <point x="394.6" y="1559.0" type="line"/>
      <point x="206.0" y="1559.0" type="line"/>
    </contour>
  </outline>
</glyph>
<glyph name="asciicircum" format="2">
  <advance height="2479.0" width="972.8"/>
  <unicode hex="005E"/>
  <outline>
    <contour>
      <point x="599.0" y="1350.0" type="line"/>
      <point x="587.1999999999999" y="1275.6" type="line"/>
      <point x="639.1999999999999" y="1275.6" type="line"/>
      <point x="651.8" y="1350.0" type="line"/>
    </contour>
    <contour>
      <point x="120.4" y="815.0" type="line"/>
      <point x="322.0" y="815.0" type="line"/>
      <point x="624.5999999999999" y="1304.6" type="line"/>
      <point x="607.8" y="1304.6" type="line"/>
      <point x="753.8" y="815.0" type="line"/>
      <point x="939.4" y="815.0" type="line"/>
      <point x="740.4000000000001" y="1447.6" type="line"/>
      <point x="525.8000000000001" y="1447.6" type="line"/>
    </contour>
  </outline>
</glyph>
<glyph name="underscore" format="2">
  <advance height="2479.0" width="941.8"/>
  <unicode hex="005F"/>
  <anchor x="407.4" y="150.6" name="_bottom"/>
  <outline>
    <contour>
      <point x="851.2" y="0.0" type="line"/>
      <point x="-95.4" y="0.0" type="line"/>
      <point x="-125.60000000000001" y="-185.0" type="line"/>
      <point x="821.2" y="-185.0" type="line"/>
    </contour>
  </outline>
</glyph>
<glyph name="grave" format="2">
  <advance height="2479.0" width="1018.0"/>
  <unicode hex="0060"/>
  <anchor x="741.4" y="1303.0" name="_top"/>
  <anchor x="787.0" y="1676.0" name="top"/>
  <outline>
    <contour>
      <point x="650.8" y="1265.8" type="line"/>
      <point x="825.4" y="1265.8" type="line"/>
      <point x="712.0" y="1601.4" type="line"/>
      <point x="483.20000000000005" y="1601.4" type="line"/>
    </contour>
  </outline>
</glyph>
<glyph name="a" format="2">
  <advance height="2479.0" width="1166.0"/>
  <unicode hex="0061"/>
  <anchor x="497.79999999999995" y="0.0" name="bottom"/>
  <anchor x="929.4" y="0.0" name="ogonek"/>
  <anchor x="715.2" y="1303.0" name="rhalfring"/>
  <anchor x="723.0" y="1303.0" name="top"/>
  <outline>
    <contour>
      <point x="375.4" y="-24.6" type="curve" smooth="yes"/>
      <point x="560.6" y="-24.6"/>
      <point x="679.6" y="69.6"/>
      <point x="734.5999999999999" y="152.2" type="curve"/>
      <point x="742.8" y="152.2" type="line"/>
      <point x="716.8" y="0.0" type="line"/>
      <point x="929.4" y="0.0" type="line"/>
      <point x="1052.6000000000001" y="741.8" type="line" smooth="yes"/>
      <point x="1106.8000000000002" y="1067.2"/>
      <point x="862.0" y="1132.0"/>
      <point x="685.0" y="1132.0" type="curve" smooth="yes"/>
      <point x="483.0" y="1132.0"/>
      <point x="280.8" y="1049.8"/>
      <point x="176.2" y="846.6" type="curve"/>
      <point x="371.0" y="800.2" type="line"/>
      <point x="417.4" y="879.0"/>
      <point x="517.0" y="955.0"/>
      <point x="662.6" y="955.0" type="curve" smooth="yes"/>
      <point x="802.2" y="955.0"/>
      <point x="837.0" y="883.2"/>
      <point x="837.0" y="755.4" type="curve" smooth="yes"/>
      <point x="837.0" y="750.8" type="line" smooth="yes"/>
      <point x="837.0" y="671.4"/>
      <point x="740.4" y="673.2"/>
      <point x="537.8" y="649.4" type="curve" smooth="yes"/>
      <point x="320.8" y="625.2"/>
      <point x="96.2" y="569.0"/>
      <point x="53.0" y="315.2" type="curve" smooth="yes"/>
      <point x="17.4" y="96.60000000000001"/>
      <point x="162.6" y="-24.6"/>
    </contour>
    <contour>
      <point x="449.59999999999997" y="149.2" type="curve" smooth="yes"/>
      <point x="326.8" y="149.2"/>
      <point x="248.2" y="205.4"/>
      <point x="266.79999999999995" y="312.8" type="curve" smooth="yes"/>
      <point x="284.59999999999997" y="429.2"/>
      <point x="396.79999999999995" y="470.6"/>
      <point x="525.6" y="487.2" type="curve" smooth="yes"/>
      <point x="596.0" y="496.79999999999995"/>
      <point x="766.0" y="515.8"/>
      <point x="802.8" y="546.6" type="curve"/>
      <point x="779.0" y="402.4" type="line" smooth="yes"/>
      <point x="757.4" y="270.8"/>
      <point x="630.8" y="149.2"/>
    </contour>
  </outline>
</glyph>
<glyph name="c" format="2">
  <advance height="2479.0" width="1162.0"/>
  <unicode hex="0063"/>
  <anchor x="528.4" y="0.0" name="cedilla"/>
  <anchor x="733.8000000000001" y="1303.0" name="top"/>
  <outline>
    <contour>
      <point x="520.0" y="-22.4" type="curve" smooth="yes"/>
      <point x="783.2" y="-22.4"/>
      <point x="979.1999999999999" y="136.2"/>
      <point x="1041.6" y="353.8" type="curve"/>
      <point x="830.1999999999999" y="353.8" type="line"/>
      <point x="782.0" y="233.0"/>
      <point x="676.1999999999999" y="161.8"/>
      <point x="551.8" y="161.8" type="curve" smooth="yes"/>
      <point x="367.8" y="161.8"/>
      <point x="273.2" y="315.0"/>
      <point x="314.2" y="559.0" type="curve" smooth="yes"/>
      <point x="352.0" y="798.0"/>
      <point x="499.4" y="948.0"/>
      <point x="682.4" y="948.0" type="curve" smooth="yes"/>
      <point x="820.0" y="948.0"/>
      <point x="890.6" y="860.8"/>
      <point x="896.0" y="756.8" type="curve"/>
      <point x="1108.1999999999998" y="756.8" type="line"/>
      <point x="1121.4" y="982.2"/>
      <point x="963.4" y="1132.0"/>
      <point x="709.6" y="1132.0" type="curve" smooth="yes"/>
      <point x="394.4" y="1132.0"/>
      <point x="149.6" y="894.2"/>
      <point x="95.4" y="553.6" type="curve" smooth="yes"/>
      <point x="39.0" y="216.8"/>
      <point x="195.20000000000002" y="-22.4"/>
    </contour>
  </outline>
</glyph>
<glyph name="d" format="2">
  <advance height="2479.0" width="1283.3999999999999"/>
  <unicode hex="0064"/>
  <anchor x="530.6" y="0.0" name="bottom"/>
  <anchor x="1129.3999999999999" y="1280.0" name="cross"/>
  <anchor x="1422.1999999999998" y="1489.0" name="raccent"/>
  <anchor x="740.4" y="1489.0" name="top"/>
  <outline>
    <contour>
      <point x="469.59999999999997" y="-21.4" type="curve" smooth="yes"/>
      <point x="672.8" y="-21.4"/>
      <point x="773.0" y="102.8"/>
      <point x="824.6" y="174.2" type="curve"/>
      <point x="843.2" y="174.2" type="line"/>
      <point x="813.0" y="0.0" type="line"/>
      <point x="1025.6" y="0.0" type="line"/>
      <point x="1273.3999999999999" y="1489.0" type="line"/>
      <point x="1055.3999999999999" y="1489.0" type="line"/>
      <point x="963.0" y="936.4" type="line"/>
      <point x="950.6" y="936.4" type="line"/>
      <point x="923.1999999999999" y="1005.6"/>
      <point x="869.5999999999999" y="1132.0"/>
      <point x="662.0" y="1132.0" type="curve" smooth="yes"/>
      <point x="392.2" y="1132.0"/>
      <point x="158.0" y="919.0"/>
      <point x="97.4" y="556.6" type="curve" smooth="yes"/>
      <point x="38.2" y="195.2"/>
      <point x="197.60000000000002" y="-21.4"/>
    </contour>
    <contour>
      <point x="543.8000000000001" y="163.6" type="curve" smooth="yes"/>
      <point x="348.79999999999995" y="163.6"/>
      <point x="280.8" y="334.6"/>
      <point x="318.40000000000003" y="559.0" type="curve" smooth="yes"/>
      <point x="354.2" y="780.0"/>
      <point x="476.8" y="946.2"/>
      <point x="672.4" y="946.2" type="curve" smooth="yes"/>
      <point x="862.6" y="946.2"/>
      <point x="943.8" y="792.0"/>
      <point x="905.6" y="559.0" type="curve" smooth="yes"/>
      <point x="865.8" y="323.2"/>
      <point x="730.6" y="163.6"/>
    </contour>
  </outline>
</glyph>
<glyph name="e" format="2">
  <advance height="2479.0" width="1241.8000000000002"/>
  <unicode hex="0065"/>
  <anchor x="509.79999999999995" y="0.0" name="bottom"/>
  <anchor x="513.4000000000001" y="0.0" name="cedilla"/>
  <anchor x="713.8" y="9.8" name="ogonek"/>
  <anchor x="725.8" y="1303.0" name="top"/>
  <outline>
    <contour>
      <point x="531.4" y="-22.4" type="curve"/>
      <point x="775.2" y="-22.4"/>
      <point x="966.5999999999999" y="97.6"/>
      <point x="1046.3999999999999" y="279.4" type="curve"/>
      <point x="847.4" y="316.2" type="line"/>
      <point x="790.2" y="210.6"/>
      <point x="689.2" y="157.2"/>
      <point x="563.2" y="157.2" type="curve" smooth="yes"/>
      <point x="365.8" y="157.2"/>
      <point x="262.8" y="250.4"/>
      <point x="301.4" y="494.40000000000003" type="curve" smooth="yes"/>
      <point x="326.2" y="643.4" type="line" smooth="yes"/>
      <point x="351.8" y="793.4000000000001"/>
      <point x="505.4" y="951.4"/>
      <point x="679.4" y="951.4" type="curve"/>
      <point x="848.8000000000001" y="951.4"/>
      <point x="937.8" y="827.0"/>
      <point x="908.6" y="656.6" type="curve"/>
      <point x="234.20000000000002" y="656.6" type="line"/>
      <point x="208.0" y="493.0" type="line"/>
      <point x="1097.0" y="493.0" type="line"/>
      <point x="1108.8" y="570.2" type="line" smooth="yes"/>
      <point x="1177.2" y="973.8"/>
      <point x="962.0" y="1132.0"/>
      <point x="707.2" y="1132.0" type="curve" smooth="yes"/>
      <point x="396.4" y="1132.0"/>
      <point x="151.79999999999998" y="894.8"/>
      <point x="95.4" y="551.2" type="curve" smooth="yes"/>
      <point x="37.6" y="204.6"/>
      <point x="202.2" y="-22.4"/>
    </contour>
  </outline>
</glyph>
<glyph name="f" format="2">
  <advance height="2479.0" width="756.1999999999999"/>
  <unicode hex="0066"/>
  <anchor x="236.0" y="0.0" name="bottom"/>
  <anchor x="342.40000000000003" y="641.2" name="cross"/>
  <anchor x="601.2" y="1676.0" name="top"/>
  <outline>
    <contour>
      <point x="771.4000000000001" y="1117.0" type="line"/>
      <point x="139.6" y="1117.0" type="line"/>
      <point x="111.2" y="942.8" type="line"/>
      <point x="742.4000000000001" y="942.8" type="line"/>
    </contour>
    <component base="_part.f_base" xOffset="-3.4000000000000004"/>
  </outline>
</glyph>
<glyph name="g" format="2">
  <advance height="2479.0" width="1263.6000000000001"/>
  <unicode hex="0067"/>
  <anchor x="462.4" y="-436.8" name="bottom"/>
  <anchor x="1013.6" y="564.6" name="cross"/>
  <anchor x="751.6" y="1303.0" name="top"/>
  <outline>
    <contour>
      <point x="450.59999999999997" y="-442.0" type="curve" smooth="yes"/>
      <point x="733.8" y="-442.0"/>
      <point x="974.2" y="-312.4"/>
      <point x="1021.4000000000001" y="-25.0" type="curve" smooth="yes"/>
      <point x="1210.6000000000001" y="1117.0" type="line"/>
      <point x="997.4000000000001" y="1117.0" type="line"/>
      <point x="967.8000000000001" y="936.4" type="line"/>
      <point x="951.8" y="936.4" type="line"/>
      <point x="924.8" y="1005.6"/>
      <point x="869.0" y="1132.0"/>
      <point x="660.6" y="1132.0" type="curve" smooth="yes"/>
      <point x="390.79999999999995" y="1132.0"/>
      <point x="156.4" y="919.0"/>
      <point x="98.2" y="563.0" type="curve" smooth="yes"/>
      <point x="39.00000000000001" y="206.4"/>
      <point x="210.6" y="16.6"/>
      <point x="475.2" y="16.6" type="curve" smooth="yes"/>
      <point x="679.8" y="16.6"/>
      <point x="778.8" y="131.8"/>
      <point x="827.8" y="204.0" type="curve"/>
      <point x="842.2" y="204.0" type="line"/>
      <point x="807.8000000000001" y="-15.399999999999999" type="line" smooth="yes"/>
      <point x="778.6" y="-191.20000000000002"/>
      <point x="641.8000000000001" y="-267.2"/>
      <point x="477.59999999999997" y="-267.2" type="curve" smooth="yes"/>
      <point x="295.0" y="-267.2"/>
      <point x="244.40000000000003" y="-176.2"/>
      <point x="215.79999999999998" y="-112.2" type="curve"/>
      <point x="15.200000000000006" y="-189.0" type="line"/>
      <point x="52.60000000000001" y="-325.6"/>
      <point x="182.4" y="-442.0"/>
    </contour>
    <contour>
      <point x="549.4" y="197.6" type="curve" smooth="yes"/>
      <point x="353.59999999999997" y="197.6"/>
      <point x="282.0" y="346.6"/>
      <point x="318.40000000000003" y="565.4" type="curve" smooth="yes"/>
      <point x="354.0" y="780.0"/>
      <point x="473.6" y="946.2"/>
      <point x="671.6" y="946.2" type="curve" smooth="yes"/>
      <point x="860.2" y="946.2"/>
      <point x="942.8" y="792.0"/>
      <point x="905.6" y="565.4" type="curve" smooth="yes"/>
      <point x="867.6" y="335.2"/>
      <point x="735.4000000000001" y="197.6"/>
    </contour>
  </outline>
</glyph>
<glyph name="h" format="2">
  <advance height="2479.0" width="1232.8"/>
  <unicode hex="0068"/>
  <anchor x="521.8000000000001" y="0.0" name="bottom"/>
  <anchor x="174.59999999999997" y="0.0" name="cedilla"/>
  <anchor x="376.8" y="1296.6" name="cross"/>
  <anchor x="441.40000000000003" y="1676.0" name="top"/>
  <outline>
    <contour>
      <point x="380.40000000000003" y="663.2" type="line" smooth="yes"/>
      <point x="411.8" y="841.4"/>
      <point x="541.4" y="942.8"/>
      <point x="695.6" y="942.8" type="curve" smooth="yes"/>
      <point x="844.0" y="942.8"/>
      <point x="918.8000000000001" y="848.6"/>
      <point x="892.2" y="684.0" type="curve" smooth="yes"/>
      <point x="777.6" y="0.0" type="line"/>
      <point x="995.4" y="0.0" type="line"/>
      <point x="1114.6" y="710.6" type="line" smooth="yes"/>
      <point x="1160.2" y="989.8"/>
      <point x="1030.3999999999999" y="1132.0"/>
      <point x="801.8000000000001" y="1132.0" type="curve" smooth="yes"/>
      <point x="627.0" y="1132.0"/>
      <point x="508.4" y="1056.6"/>
      <point x="437.79999999999995" y="935.4" type="curve"/>
      <point x="424.4" y="935.4" type="line"/>
      <point x="515.6" y="1489.0" type="line"/>
      <point x="300.6" y="1489.0" type="line"/>
      <point x="53.6" y="0.0" type="line"/>
      <point x="271.40000000000003" y="0.0" type="line"/>
    </contour>
  </outline>
</glyph>
<glyph name="l" format="2">
  <advance height="2479.0" width="510.40000000000003"/>
  <unicode hex="006C"/>
  <anchor x="163.0" y="0.0" name="bottom"/>
  <anchor x="291.2" y="768.0" name="cross"/>
  <anchor x="655.4" y="1489.0" name="raccent"/>
  <anchor x="440.79999999999995" y="1676.0" name="top"/>
  <outline>
    <contour>
      <point x="518.4" y="1489.0" type="line"/>
      <point x="300.6" y="1489.0" type="line"/>
      <point x="53.6" y="0.0" type="line"/>
      <point x="271.40000000000003" y="0.0" type="line"/>
    </contour>
  </outline>
</glyph>
<glyph name="m" format="2">
  <advance height="2479.0" width="1809.2"/>
  <unicode hex="006D"/>
  <anchor x="812.8000000000001" y="0.0" name="bottom"/>
  <anchor x="1028.4" y="1303.0" name="top"/>
  <outline>
    <contour>
      <point x="53.6" y="0.0" type="line"/>
      <point x="271.40000000000003" y="0.0" type="line"/>
      <point x="386.40000000000003" y="688.8" type="line" smooth="yes"/>
      <point x="409.8" y="838.6"/>
      <point x="534.2" y="943.4"/>
      <point x="657.8" y="943.4" type="curve" smooth="yes"/>
      <point x="779.2" y="943.4"/>
      <point x="848.0" y="864.1999999999999"/>
      <point x="829.2" y="742.4" type="curve" smooth="yes"/>
      <point x="704.8000000000001" y="0.0" type="line"/>
      <point x="920.8000000000001" y="0.0" type="line"/>
      <point x="1041.2" y="712.0" type="line" smooth="yes"/>
      <point x="1062.4" y="848.2"/>
      <point x="1160.2" y="943.4"/>
      <point x="1303.0" y="943.4" type="curve" smooth="yes"/>
      <point x="1417.3999999999999" y="943.4"/>
      <point x="1500.6000000000001" y="880.2"/>
      <point x="1477.0" y="728.8" type="curve" smooth="yes"/>
      <point x="1354.8" y="0.0" type="line"/>
      <point x="1572.0" y="0.0" type="line"/>
      <point x="1697.0" y="749.0" type="line" smooth="yes"/>
      <point x="1739.8000000000002" y="1003.8000000000001"/>
      <point x="1617.6000000000001" y="1132.0"/>
      <point x="1416.8" y="1132.0" type="curve" smooth="yes"/>
      <point x="1255.4" y="1132.0"/>
      <point x="1120.8" y="1055.3999999999999"/>
      <point x="1048.2" y="935.4" type="curve"/>
      <point x="1037.0" y="935.4" type="line"/>
      <point x="1008.8000000000001" y="1057.8"/>
      <point x="917.0" y="1132.0"/>
      <point x="769.0" y="1132.0" type="curve" smooth="yes"/>
      <point x="621.8000000000001" y="1132.0"/>
      <point x="499.4" y="1058.4"/>
      <point x="432.0" y="935.4" type="curve"/>
      <point x="418.4" y="935.4" type="line"/>
      <point x="448.6" y="1117.0" type="line"/>
      <point x="239.6" y="1117.0" type="line"/>
    </contour>
  </outline>
</glyph>
<glyph name="n" format="2">
  <advance height="2479.0" width="1224.0"/>
  <unicode hex="006E"/>
  <anchor x="519.4" y="0.0" name="bottom"/>
  <anchor x="734.4" y="1303.0" name="top"/>
  <outline>
    <contour>
      <point x="380.40000000000003" y="663.2" type="line" smooth="yes"/>
      <point x="412.0" y="841.4"/>
      <point x="536.8000000000001" y="942.8"/>
      <point x="689.1999999999999" y="942.8" type="curve" smooth="yes"/>
      <point x="837.5999999999999" y="942.8"/>
      <point x="909.4" y="846.2"/>
      <point x="882.6" y="684.0" type="curve" smooth="yes"/>
      <point x="768.8000000000001" y="0.0" type="line"/>
      <point x="985.8000000000001" y="0.0" type="line"/>
      <point x="1105.8000000000002" y="710.6" type="line" smooth="yes"/>
      <point x="1150.8000000000002" y="987.4000000000001"/>
      <point x="1021.0" y="1132.0"/>
      <point x="794.6" y="1132.0" type="curve" smooth="yes"/>
      <point x="627.2" y="1132.0"/>
      <point x="502.0" y="1054.2"/>
      <point x="432.0" y="935.4" type="curve"/>
      <point x="418.4" y="935.4" type="line"/>
      <point x="448.6" y="1117.0" type="line"/>
      <point x="239.6" y="1117.0" type="line"/>
      <point x="53.6" y="0.0" type="line"/>
      <point x="271.40000000000003" y="0.0" type="line"/>
    </contour>
  </outline>
</glyph>
<glyph name="o" format="2">
  <advance height="2479.0" width="1233.6"/>
  <unicode hex="006F"/>
  <anchor x="524.5999999999999" y="0.0" name="bottom"/>
  <anchor x="660.1999999999999" y="0.0" name="ogonek"/>
  <anchor x="740.4" y="1303.0" name="top"/>
  <outline>
    <contour>
      <point x="528.8" y="-22.4" type="curve" smooth="yes"/>
      <point x="838.4000000000001" y="-22.4"/>
      <point x="1077.8000000000002" y="203.2"/>
      <point x="1134.2" y="544.0" type="curve" smooth="yes"/>
      <point x="1190.2" y="896.6"/>
      <point x="1020.4000000000001" y="1132.0"/>
      <point x="702.4" y="1132.0" type="curve" smooth="yes"/>
      <point x="391.0" y="1132.0"/>
      <point x="152.2" y="906.1999999999999"/>
      <point x="97.0" y="562.4" type="curve" smooth="yes"/>
      <point x="40.0" y="212.0"/>
      <point x="208.8" y="-22.4"/>
    </contour>
    <contour>
      <point x="541.0" y="160.0" type="curve" smooth="yes"/>
      <point x="340.0" y="160.0"/>
      <point x="277.2" y="335.0"/>
      <point x="311.8" y="544.6" type="curve" smooth="yes"/>
      <point x="346.4" y="763.6"/>
      <point x="480.40000000000003" y="949.8"/>
      <point x="690.1999999999999" y="949.8" type="curve" smooth="yes"/>
      <point x="889.4" y="949.8"/>
      <point x="952.1999999999999" y="773.1999999999999"/>
      <point x="919.4" y="563.0" type="curve" smooth="yes"/>
      <point x="883.1999999999999" y="343.8"/>
      <point x="749.8" y="160.0"/>
    </contour>
  </outline>
</glyph>
<glyph name="p" format="2">
  <advance height="2479.0" width="1301.8"/>
  <unicode hex="0070"/>
  <anchor x="94.20000000000002" y="-415.4" name="bottom"/>
  <anchor x="1094.8000000000002" y="-491.4" name="bottom0315"/>
  <anchor x="138.0" y="-163.0" name="cross"/>
  <anchor x="795.8" y="1303.0" name="top"/>
  <outline>
    <contour>
      <point x="-16.4" y="-419.0" type="line"/>
      <point x="202.8" y="-419.0" type="line"/>
      <point x="301.8" y="174.2" type="line"/>
      <point x="314.8" y="174.2" type="line"/>
      <point x="342.8" y="102.8"/>
      <point x="400.6" y="-21.4"/>
      <point x="605.2" y="-21.4" type="curve" smooth="yes"/>
      <point x="875.8000000000001" y="-21.4"/>
      <point x="1108.8000000000002" y="195.2"/>
      <point x="1168.2" y="556.6" type="curve" smooth="yes"/>
      <point x="1227.8000000000002" y="919.0"/>
      <point x="1064.8" y="1132.0"/>
      <point x="795.4" y="1132.0" type="curve" smooth="yes"/>
      <point x="586.8" y="1132.0"/>
      <point x="490.2" y="1005.6"/>
      <point x="441.59999999999997" y="936.4" type="curve"/>
      <point x="423.79999999999995" y="936.4" type="line"/>
      <point x="453.4" y="1117.0" type="line"/>
      <point x="240.8" y="1117.0" type="line"/>
    </contour>
    <contour>
      <point x="361.6" y="559.0" type="curve" smooth="yes"/>
      <point x="398.6" y="792.0"/>
      <point x="527.4" y="946.2"/>
      <point x="717.8000000000001" y="946.2" type="curve" smooth="yes"/>
      <point x="913.1999999999999" y="946.2"/>
      <point x="983.4" y="780.0"/>
      <point x="948.8" y="559.0" type="curve" smooth="yes"/>
      <point x="909.2" y="334.6"/>
      <point x="782.1999999999999" y="163.6"/>
      <point x="588.4000000000001" y="163.6" type="curve" smooth="yes"/>
      <point x="400.4" y="163.6"/>
      <point x="323.2" y="323.2"/>
    </contour>
  </outline>
</glyph>
<glyph name="q" format="2">
  <advance height="2479.0" width="1300.6"/>
  <unicode hex="0071"/>
  <anchor x="884.8000000000001" y="-415.4" name="bottom"/>
  <anchor x="925.0" y="-163.0" name="cross"/>
  <anchor x="752.0" y="1303.0" name="top"/>
  <outline>
    <contour>
      <point x="775.0" y="-419.0" type="line"/>
      <point x="992.1999999999999" y="-419.0" type="line"/>
      <point x="1247.0" y="1117.0" type="line"/>
      <point x="1034.6" y="1117.0" type="line"/>
      <point x="1003.8" y="936.4" type="line"/>
      <point x="985.4" y="936.4" type="line"/>
      <point x="959.0" y="1005.6"/>
      <point x="905.0" y="1132.0"/>
      <point x="696.6" y="1132.0" type="curve" smooth="yes"/>
      <point x="426.8" y="1132.0"/>
      <point x="192.6" y="919.0"/>
      <point x="133.6" y="556.6" type="curve" smooth="yes"/>
      <point x="73.6" y="195.2"/>
      <point x="234.2" y="-21.4"/>
      <point x="505.00000000000006" y="-21.4" type="curve" smooth="yes"/>
      <point x="708.4" y="-21.4"/>
      <point x="808.8000000000001" y="102.8"/>
      <point x="860.0" y="174.2" type="curve"/>
      <point x="872.4" y="174.2" type="line"/>
    </contour>
    <contour>
      <point x="583.1999999999999" y="163.6" type="curve" smooth="yes"/>
      <point x="389.2" y="163.6"/>
      <point x="316.40000000000003" y="334.6"/>
      <point x="353.0" y="559.0" type="curve" smooth="yes"/>
      <point x="390.6" y="780.0"/>
      <point x="516.1999999999999" y="946.2"/>
      <point x="713.6" y="946.2" type="curve" smooth="yes"/>
      <point x="902.8" y="946.2"/>
      <point x="979.4" y="792.0"/>
      <point x="940.1999999999999" y="559.0" type="curve" smooth="yes"/>
      <point x="901.4" y="323.2"/>
      <point x="771.0" y="163.6"/>
    </contour>
  </outline>
</glyph>
<glyph name="r" format="2">
  <advance height="2479.0" width="789.4"/>
  <unicode hex="0072"/>
  <anchor x="160.8" y="0.0" name="bottom"/>
  <anchor x="252.8" y="535.0" name="cross"/>
  <anchor x="556.8000000000001" y="1303.0" name="top"/>
  <outline>
    <contour>
      <point x="53.0" y="0.0" type="line"/>
      <point x="270.8" y="0.0" type="line"/>
      <point x="382.8" y="682.0" type="line" smooth="yes"/>
      <point x="408.2" y="828.4"/>
      <point x="538.2" y="934.0"/>
      <point x="692.0" y="934.0" type="curve" smooth="yes"/>
      <point x="737.4" y="934.0"/>
      <point x="787.8" y="925.6"/>
      <point x="805.0" y="920.4" type="curve"/>
      <point x="839.8" y="1129.0" type="line"/>
      <point x="816.6" y="1133.1999999999998"/>
      <point x="775.8" y="1134.4"/>
      <point x="747.2" y="1134.4" type="curve" smooth="yes"/>
      <point x="617.0" y="1134.4"/>
      <point x="491.2" y="1059.6"/>
      <point x="431.40000000000003" y="939.4" type="curve"/>
      <point x="419.6" y="939.4" type="line"/>
      <point x="449.8" y="1117.0" type="line"/>
      <point x="239.0" y="1117.0" type="line"/>
    </contour>
  </outline>
</glyph>
<glyph name="s" format="2">
  <advance height="2479.0" width="1097.6"/>
  <unicode hex="0073"/>
  <anchor x="470.40000000000003" y="0.0" name="bottom"/>
  <anchor x="469.8" y="0.0" name="cedilla"/>
  <anchor x="686.0" y="1303.0" name="top"/>
  <outline>
    <contour>
      <point x="1031.2" y="844.2" type="line"/>
      <point x="1014.2" y="1019.4"/>
      <point x="896.1999999999999" y="1132.0"/>
      <point x="652.4" y="1132.0" type="curve" smooth="yes"/>
      <point x="402.2" y="1132.0"/>
      <point x="202.60000000000002" y="1001.2"/>
      <point x="169.6" y="805.4" type="curve" smooth="yes"/>
      <point x="142.60000000000002" y="645.0"/>
      <point x="224.20000000000002" y="538.6"/>
      <point x="426.8" y="490.8" type="curve" smooth="yes"/>
      <point x="606.8" y="449.40000000000003" type="line" smooth="yes"/>
      <point x="712.6" y="424.6"/>
      <point x="752.1999999999999" y="380.4"/>
      <point x="740.4" y="311.6" type="curve" smooth="yes"/>
      <point x="726.8" y="223.4"/>
      <point x="619.4000000000001" y="151.8"/>
      <point x="474.40000000000003" y="152.4" type="curve" smooth="yes"/>
      <point x="346.59999999999997" y="152.8"/>
      <point x="274.2" y="208.79999999999998"/>
      <point x="266.6" y="318.6" type="curve"/>
      <point x="51.0" y="286.6" type="line"/>
      <point x="55.19999999999999" y="90.0"/>
      <point x="202.8" y="-22.4"/>
      <point x="456.4" y="-22.4" type="curve" smooth="yes"/>
      <point x="723.6" y="-22.4"/>
      <point x="932.4" y="118.60000000000001"/>
      <point x="965.8000000000001" y="318.0" type="curve" smooth="yes"/>
      <point x="992.1999999999999" y="478.6"/>
      <point x="906.5999999999999" y="576.8000000000001"/>
      <point x="708.8" y="625.0" type="curve" smooth="yes"/>
      <point x="536.5999999999999" y="666.0" type="line" smooth="yes"/>
      <point x="420.2" y="694.8000000000001"/>
      <point x="375.79999999999995" y="735.4"/>
      <point x="388.8" y="807.1999999999999" type="curve" smooth="yes"/>
      <point x="401.59999999999997" y="895.4"/>
      <point x="507.79999999999995" y="959.2"/>
      <point x="633.4" y="959.2" type="curve" smooth="yes"/>
      <point x="767.8000000000001" y="959.2"/>
      <point x="815.1999999999999" y="886.1999999999999"/>
      <point x="828.5999999999999" y="809.0" type="curve"/>
    </contour>
  </outline>
</glyph>
<glyph name="t" format="2">
  <advance height="2479.0" width="761.8"/>
  <unicode hex="0074"/>
  <anchor x="728.1999999999999" y="1562.0" name="raccent"/>
  <anchor x="328.40000000000003" y="0.0" name="bottom"/>
  <anchor x="421.0" y="0.0" name="cedilla"/>
  <anchor x="486.8" y="1499.6" name="top"/>
  <outline>
    <contour>
      <point x="761.0" y="1117.0" type="line"/>
      <point x="150.6" y="1117.0" type="line"/>
      <point x="122.39999999999999" y="942.8" type="line"/>
      <point x="732.8" y="942.8" type="line"/>
    </contour>
    <component base="_part.t_base"/>
  </outline>
</glyph>
<glyph name="u" format="2">
  <advance height="2479.0" width="1255.0"/>
  <unicode hex="0075"/>
  <anchor x="526.8000000000001" y="0.0" name="bottom"/>
  <anchor x="978.4" y="0.0" name="ogonek"/>
  <anchor x="732.4" y="1303.0" name="top"/>
  <outline>
    <contour>
      <point x="837.6" y="463.4" type="line" smooth="yes"/>
      <point x="806.4000000000001" y="273.2"/>
      <point x="652.0" y="183.0"/>
      <point x="529.6" y="183.0" type="curve" smooth="yes"/>
      <point x="395.0" y="183.0"/>
      <point x="318.6" y="280.4"/>
      <point x="342.8" y="433.0" type="curve" smooth="yes"/>
      <point x="457.2" y="1117.0" type="line"/>
      <point x="239.4" y="1117.0" type="line"/>
      <point x="120.4" y="406.4" type="line" smooth="yes"/>
      <point x="74.79999999999998" y="129.6"/>
      <point x="202.20000000000002" y="-15.0"/>
      <point x="417.19999999999993" y="-15.0" type="curve" smooth="yes"/>
      <point x="584.8000000000001" y="-15.0"/>
      <point x="716.4" y="74.8"/>
      <point x="786.2" y="193.6" type="curve"/>
      <point x="798.0" y="193.6" type="line"/>
      <point x="765.4000000000001" y="0.0" type="line"/>
      <point x="978.4" y="0.0" type="line"/>
      <point x="1165.4" y="1117.0" type="line"/>
      <point x="947.4" y="1117.0" type="line"/>
    </contour>
  </outline>
</glyph>
<glyph name="w" format="2">
  <advance height="2479.0" width="1689.6"/>
  <unicode hex="0077"/>
  <anchor x="750.0" y="0.0" name="bottom"/>
  <anchor x="966.8" y="1303.0" name="top"/>
  <outline>
    <contour>
      <point x="295.0" y="0.0" type="line"/>
      <point x="516.8" y="0.0" type="line"/>
      <point x="877.6" y="806.2" type="line"/>
      <point x="893.6" y="806.2" type="line"/>
      <point x="986.8" y="0.0" type="line"/>
      <point x="1208.6" y="0.0" type="line"/>
      <point x="1722.6" y="1117.0" type="line"/>
      <point x="1498.2" y="1117.0" type="line"/>
      <point x="1144.0" y="300.4" type="line"/>
      <point x="1132.6" y="300.4" type="line"/>
      <point x="1051.2" y="1117.0" type="line"/>
      <point x="826.8" y="1117.0" type="line"/>
      <point x="470.80000000000007" y="296.8" type="line"/>
      <point x="459.40000000000003" y="296.8" type="line"/>
      <point x="377.4" y="1117.0" type="line"/>
      <point x="153.0" y="1117.0" type="line"/>
    </contour>
  </outline>
</glyph>
<glyph name="x" format="2">
  <advance height="2479.0" width="1128.4"/>
  <unicode hex="0078"/>
  <anchor x="471.6" y="0.0" name="bottom"/>
  <anchor x="564.6" y="559.0" name="cross"/>
  <anchor x="941.5999999999999" y="83.8" name="cyrtic"/>
  <anchor x="791.2" y="0.0" name="right"/>
  <anchor x="686.6" y="1303.0" name="top"/>
  <outline>
    <contour>
      <point x="410.6" y="1117.0" type="line"/>
      <point x="172.0" y="1117.0" type="line"/>
      <point x="422.2" y="559.0" type="line"/>
      <point x="-18.200000000000003" y="0.0" type="line"/>
      <point x="220.60000000000002" y="0.0" type="line"/>
      <point x="540.8000000000001" y="417.4" type="line"/>
      <point x="723.0" y="0.0" type="line"/>
      <point x="960.5999999999999" y="0.0" type="line"/>
      <point x="701.8" y="559.0" type="line"/>
      <point x="1143.6" y="1117.0" type="line"/>
      <point x="905.6" y="1117.0" type="line"/>
      <point x="585.2" y="682.2" type="line"/>
    </contour>
  </outline>
</glyph>
<glyph name="y" format="2">
  <advance height="2479.0" width="1159.8"/>
  <unicode hex="0079"/>
  <anchor x="780.4" y="-39.2" name="bottom"/>
  <anchor x="591.8" y="-419.0" name="ogonek"/>
  <anchor x="703.1999999999999" y="1303.0" name="top"/>
  <outline>
    <contour>
      <point x="121.80000000000003" y="-419.0" type="curve" smooth="yes"/>
      <point x="298.6" y="-419.0"/>
      <point x="430.4" y="-327.59999999999997"/>
      <point x="525.8" y="-147.4" type="curve" smooth="yes"/>
      <point x="1195.4" y="1117.0" type="line"/>
      <point x="952.8" y="1117.0" type="line"/>
      <point x="524.8" y="247.79999999999998" type="line"/>
      <point x="513.6" y="247.79999999999998" type="line"/>
      <point x="375.4" y="1117.0" type="line"/>
      <point x="151.4" y="1117.0" type="line"/>
      <point x="370.4" y="-9.8" type="line"/>
      <point x="329.4" y="-83.60000000000001" type="line" smooth="yes"/>
      <point x="247.2" y="-231.8"/>
      <point x="173.8" y="-249.0"/>
      <point x="59.999999999999986" y="-216.6" type="curve"/>
      <point x="-22.999999999999993" y="-395.2" type="line"/>
      <point x="1.8000000000000056" y="-406.4"/>
      <point x="56.8" y="-419.0"/>
    </contour>
  </outline>
</glyph>
<glyph name="z" format="2">
  <advance height="2479.0" width="1130.2"/>
  <unicode hex="007A"/>
  <anchor x="466.79999999999995" y="0.0" name="bottom"/>
  <anchor x="563.4" y="559.0" name="cross"/>
  <anchor x="686.0" y="1303.0" name="top"/>
  <outline>
    <contour>
      <point x="30.199999999999996" y="0.0" type="line"/>
      <point x="927.8000000000001" y="0.0" type="line"/>
      <point x="958.4" y="189.0" type="line"/>
      <point x="356.2" y="189.0" type="line"/>
      <point x="359.2" y="199.8" type="line"/>
      <point x="1067.0" y="958.6" type="line"/>
      <point x="1092.8" y="1117.0" type="line"/>
      <point x="236.6" y="1117.0" type="line"/>
      <point x="204.6" y="928.0" type="line"/>
      <point x="790.0" y="928.0" type="line"/>
      <point x="787.0" y="917.2" type="line"/>
      <point x="55.599999999999994" y="149.0" type="line"/>
    </contour>
  </outline>
</glyph>
<glyph name="braceleft" format="2">
  <advance height="2479.0" width="774.0"/>
  <unicode hex="007B"/>
  <outline>
    <contour>
      <point x="80.0" y="613.4" type="line"/>
      <point x="434.79999999999995" y="613.4"/>
      <point x="523.0" y="724.2"/>
      <point x="546.2" y="874.8" type="curve" smooth="yes"/>
      <point x="591.4000000000001" y="1138.8" type="line" smooth="yes"/>
      <point x="616.2" y="1300.8"/>
      <point x="676.1999999999999" y="1373.4"/>
      <point x="846.4" y="1373.4" type="curve"/>
      <point x="874.6" y="1545.0" type="line"/>
      <point x="586.6" y="1545.0"/>
      <point x="436.8" y="1447.6000000000001"/>
      <point x="389.6" y="1149.4" type="curve" smooth="yes"/>
      <point x="355.6" y="941.0" type="line" smooth="yes"/>
      <point x="330.40000000000003" y="783.8000000000001"/>
      <point x="262.59999999999997" y="723.0"/>
      <point x="98.39999999999999" y="723.0" type="curve"/>
    </contour>
    <contour>
      <point x="567.0" y="-309.8" type="curve"/>
      <point x="596.0" y="-137.4" type="line"/>
      <point x="425.79999999999995" y="-137.4"/>
      <point x="390.2" y="-64.8"/>
      <point x="417.4" y="96.4" type="curve" smooth="yes"/>
      <point x="462.59999999999997" y="361.2" type="line" smooth="yes"/>
      <point x="485.8" y="511.0"/>
      <point x="435.4" y="621.8"/>
      <point x="80.6" y="621.8" type="curve"/>
      <point x="63.599999999999994" y="513.0" type="line"/>
      <point x="228.4" y="513.0"/>
      <point x="271.20000000000005" y="451.40000000000003"/>
      <point x="246.00000000000003" y="295.0" type="curve" smooth="yes"/>
      <point x="212.20000000000002" y="85.8" type="line" smooth="yes"/>
      <point x="164.8" y="-211.6"/>
      <point x="279.0" y="-309.8"/>
    </contour>
    <contour>
      <point x="60.599999999999994" y="513.0" type="line"/>
      <point x="261.40000000000003" y="513.0" type="line"/>
      <point x="297.0" y="723.0" type="line"/>
      <point x="95.39999999999999" y="723.0" type="line"/>
    </contour>
  </outline>
</glyph>
<glyph name="bar" format="2">
  <advance height="2479.0" width="701.0"/>
  <unicode hex="007C"/>
  <outline>
    <contour>
      <point x="681.0" y="1969.0" type="line"/>
      <point x="486.4" y="1969.0" type="line"/>
      <point x="81.39999999999999" y="-480.0" type="line"/>
      <point x="276.6" y="-480.0" type="line"/>
    </contour>
  </outline>
</glyph>
<glyph name="asciitilde" format="2">
  <advance height="2479.0" width="1364.0"/>
  <unicode hex="007E"/>
  <outline>
    <contour>
      <point x="142.20000000000002" y="428.6" type="curve"/>
      <point x="326.0" y="428.6" type="line"/>
      <point x="345.79999999999995" y="554.4"/>
      <point x="408.0" y="603.6"/>
      <point x="482.6" y="603.6" type="curve" smooth="yes"/>
      <point x="535.0" y="603.6"/>
      <point x="569.0" y="586.1999999999999"/>
      <point x="627.1999999999999" y="528.0" type="curve" smooth="yes"/>
      <point x="717.8" y="437.40000000000003"/>
      <point x="781.8000000000001" y="396.4"/>
      <point x="880.1999999999999" y="396.4" type="curve" smooth="yes"/>
      <point x="1043.6" y="396.4"/>
      <point x="1196.0" y="503.59999999999997"/>
      <point x="1231.6" y="755.8" type="curve"/>
      <point x="1047.8" y="755.8" type="line"/>
      <point x="1030.6" y="639.8000000000001"/>
      <point x="970.8" y="581.6"/>
      <point x="890.6" y="581.6" type="curve" smooth="yes"/>
      <point x="839.2" y="581.6"/>
      <point x="806.4" y="605.8000000000001"/>
      <point x="749.6" y="662.8" type="curve" smooth="yes"/>
      <point x="657.4" y="755.0"/>
      <point x="591.4000000000001" y="794.4"/>
      <point x="494.6" y="794.4" type="curve" smooth="yes"/>
      <point x="329.59999999999997" y="794.4"/>
      <point x="179.6" y="682.1999999999999"/>
    </contour>
  </outline>
</glyph>
<glyph name="cent" format="2">
  <advance height="2479.0" width="1162.0"/>
  <unicode hex="00A2"/>
  <anchor x="560.2" y="190.6" name="cedilla"/>
  <anchor x="765.6" y="1493.6" name="top"/>
  <outline>
    <contour>
      <point x="441.99999999999994" y="0.0" type="line"/>
      <point x="561.8" y="0.0" type="line"/>
      <point x="833.4" y="1489.0" type="line"/>
      <point x="714.4" y="1489.0" type="line"/>
    </contour>
    <component base="c" xOffset="31.8" yOffset="190.6"/>
  </outline>
</glyph>
<glyph name="sterling" format="2">
  <advance height="2479.0" width="1319.8"/>
  <unicode hex="00A3"/>
  <outline>
    <contour>
      <point x="1062.4" y="0.0" type="line"/>
      <point x="1094.4" y="193.2" type="line"/>
      <point x="76.2" y="193.2" type="line"/>
      <point x="44.400000000000006" y="0.0" type="line"/>
    </contour>
    <contour>
      <point x="853.8000000000001" y="583.6" type="line"/>
      <point x="887.4000000000001" y="777.0" type="line"/>
      <point x="169.4" y="777.0" type="line"/>
      <point x="135.6" y="583.6" type="line"/>
    </contour>
    <contour>
      <point x="578.0" y="1048.8" type="line"/>
      <point x="609.6" y="1234.8"/>
      <point x="741.8000000000001" y="1319.2"/>
      <point x="865.0" y="1319.2" type="curve" smooth="yes"/>
      <point x="983.4" y="1319.2"/>
      <point x="1084.0" y="1247.0"/>
      <point x="1046.8000000000002" y="1105.4" type="curve"/>
      <point x="1251.0" y="1072.0" type="line"/>
      <point x="1331.0" y="1303.0"/>
      <point x="1174.4" y="1510.0"/>
      <point x="889.4000000000001" y="1510.0" type="curve" smooth="yes"/>
      <point x="647.4" y="1510.0"/>
      <point x="401.4" y="1354.8"/>
      <point x="362.0" y="1048.8" type="curve" smooth="yes"/>
      <point x="278.40000000000003" y="415.2" type="line" smooth="yes"/>
      <point x="266.79999999999995" y="331.6"/>
      <point x="226.4" y="197.8"/>
      <point x="146.60000000000002" y="193.2" type="curve"/>
      <point x="324.40000000000003" y="136.0" type="line"/>
      <point x="432.59999999999997" y="194.2"/>
      <point x="481.80000000000007" y="295.4"/>
      <point x="496.79999999999995" y="421.0" type="curve" smooth="yes"/>
    </contour>
  </outline>
</glyph>
<glyph name="currency" format="2">
  <advance height="2479.0" width="1509.4"/>
  <unicode hex="00A4"/>
  <outline>
    <contour>
      <point x="655.8" y="-20.0" type="curve" smooth="yes"/>
      <point x="986.5999999999999" y="-20.0"/>
      <point x="1303.6" y="253.0"/>
      <point x="1362.0" y="608.0" type="curve" smooth="yes"/>
      <point x="1419.8" y="963.0"/>
      <point x="1192.8" y="1233.0"/>
      <point x="862.5999999999999" y="1233.0" type="curve" smooth="yes"/>
      <point x="530.4" y="1233.0"/>
      <point x="218.2" y="963.0"/>
      <point x="160.39999999999998" y="608.0" type="curve"/>
      <point x="102.0" y="253.0"/>
      <point x="323.6" y="-20.0"/>
    </contour>
    <contour>
      <point x="683.4" y="149.8" type="curve" smooth="yes"/>
      <point x="445.0" y="149.8"/>
      <point x="286.20000000000005" y="355.4"/>
      <point x="329.0" y="608.0" type="curve"/>
      <point x="372.20000000000005" y="863.4"/>
      <point x="596.2" y="1066.2"/>
      <point x="834.5999999999999" y="1066.2" type="curve" smooth="yes"/>
      <point x="1072.0" y="1066.2"/>
      <point x="1232.0" y="863.4"/>
      <point x="1189.0" y="608.0" type="curve" smooth="yes"/>
      <point x="1146.1999999999998" y="355.4"/>
      <point x="921.0" y="149.8"/>
    </contour>
    <contour>
      <point x="1241.0" y="921.6" type="line"/>
      <point x="1481.0" y="1128.4" type="line"/>
      <point x="1376.4" y="1257.4" type="line"/>
      <point x="1138.6000000000001" y="1050.6" type="line"/>
    </contour>
    <contour>
      <point x="1162.4" y="-18.4" type="line"/>
      <point x="1311.0" y="111.4" type="line"/>
      <point x="1140.1999999999998" y="314.6" type="line"/>
      <point x="994.6" y="188.6" type="line"/>
    </contour>
    <contour>
      <point x="152.8" y="-18.4" type="line"/>
      <point x="392.59999999999997" y="188.6" type="line"/>
      <point x="287.20000000000005" y="314.6" type="line"/>
      <point x="50.4" y="111.4" type="line"/>
    </contour>
    <contour>
      <point x="388.0" y="921.6" type="line"/>
      <point x="536.6" y="1050.6" type="line"/>
      <point x="366.0" y="1257.4" type="line"/>
      <point x="220.20000000000002" y="1128.4" type="line"/>
    </contour>
  </outline>
</glyph>
<glyph name="yen" format="2">
  <advance height="2479.0" width="1139.2"/>
  <unicode hex="00A5"/>
  <outline>
    <contour>
      <point x="424.8" y="1489.0" type="line"/>
      <point x="183.0" y="1489.0" type="line"/>
      <point x="467.8" y="593.8" type="line"/>
      <point x="648.4000000000001" y="686.2" type="line"/>
    </contour>
    <contour>
      <point x="535.0" y="688.6" type="line"/>
      <point x="679.8" y="593.8" type="line"/>
      <point x="1264.2" y="1489.0" type="line"/>
      <point x="1022.6" y="1489.0" type="line"/>
    </contour>
    <contour>
      <point x="717.6" y="783.4" type="line"/>
      <point x="493.8" y="783.4" type="line"/>
      <point x="363.0" y="0.0" type="line"/>
      <point x="587.4" y="0.0" type="line"/>
    </contour>
    <contour>
      <point x="1026.6000000000001" y="750.6" type="line"/>
      <point x="164.4" y="750.6" type="line"/>
      <point x="140.60000000000002" y="603.4" type="line"/>
      <point x="1003.0" y="603.4" type="line"/>
    </contour>
    <contour>
      <point x="979.8000000000001" y="462.6" type="line"/>
      <point x="117.60000000000001" y="462.6" type="line"/>
      <point x="94.00000000000001" y="315.4" type="line"/>
      <point x="956.2" y="315.4" type="line"/>
    </contour>
  </outline>
</glyph>
<glyph name="section" format="2">
  <advance height="2479.0" width="1157.4"/>
  <unicode hex="00A7"/>
  <outline>
    <contour>
      <point x="1051.8" y="1131.2" type="line"/>
      <point x="1087.2" y="1352.4"/>
      <point x="964.8" y="1510.0"/>
      <point x="730.5999999999999" y="1510.0" type="curve" smooth="yes"/>
      <point x="510.6" y="1510.0"/>
      <point x="332.4" y="1371.4"/>
      <point x="299.40000000000003" y="1182.0" type="curve" smooth="yes"/>
      <point x="284.0" y="1081.8"/>
      <point x="314.8" y="1003.2"/>
      <point x="368.0" y="938.6" type="curve"/>
      <point x="368.0" y="933.8" type="line"/>
      <point x="258.6" y="903.6"/>
      <point x="152.0" y="800.0"/>
      <point x="130.4" y="689.4" type="curve" smooth="yes"/>
      <point x="93.6" y="498.2"/>
      <point x="224.2" y="402.2"/>
      <point x="296.2" y="361.0" type="curve" smooth="yes"/>
      <point x="550.4" y="210.4" type="line" smooth="yes"/>
      <point x="609.6" y="174.8"/>
      <point x="686.6" y="127.2"/>
      <point x="670.5999999999999" y="28.8" type="curve" smooth="yes"/>
      <point x="655.2" y="-67.0"/>
      <point x="557.8" y="-111.4"/>
      <point x="461.00000000000006" y="-112.0" type="curve" smooth="yes"/>
      <point x="335.8" y="-113.8"/>
      <point x="259.20000000000005" y="-44.4"/>
      <point x="279.6" y="81.6" type="curve"/>
      <point x="76.60000000000001" y="81.6" type="line"/>
      <point x="37.80000000000001" y="-154.8"/>
      <point x="185.2" y="-302.4"/>
      <point x="428.0" y="-302.4" type="curve" smooth="yes"/>
      <point x="637.4000000000001" y="-302.4"/>
      <point x="837.0" y="-191.8"/>
      <point x="873.4" y="28.8" type="curve" smooth="yes"/>
      <point x="889.2" y="127.6"/>
      <point x="867.8" y="211.0"/>
      <point x="803.4" y="275.6" type="curve"/>
      <point x="805.2" y="278.6" type="line"/>
      <point x="904.8" y="308.2"/>
      <point x="1020.0000000000001" y="408.2"/>
      <point x="1041.8" y="520.8" type="curve" smooth="yes"/>
      <point x="1081.2" y="711.2"/>
      <point x="947.6" y="805.0"/>
      <point x="879.6" y="846.0" type="curve" smooth="yes"/>
      <point x="622.4" y="999.8" type="line" smooth="yes"/>
      <point x="561.8000000000001" y="1034.8"/>
      <point x="487.8" y="1100.0"/>
      <point x="501.40000000000003" y="1182.0" type="curve" smooth="yes"/>
      <point x="515.0" y="1253.0"/>
      <point x="584.8" y="1321.0"/>
      <point x="697.8" y="1321.0" type="curve" smooth="yes"/>
      <point x="823.0" y="1321.0"/>
      <point x="868.8" y="1240.2"/>
      <point x="850.4" y="1131.2" type="curve"/>
    </contour>
    <contour>
      <point x="849.2" y="515.4" type="curve"/>
      <point x="832.6" y="415.6"/>
      <point x="714.6" y="351.2"/>
      <point x="663.8000000000001" y="381.6" type="curve" smooth="yes"/>
      <point x="426.8" y="522.4" type="line" smooth="yes"/>
      <point x="358.6" y="563.4"/>
      <point x="307.2" y="615.4"/>
      <point x="322.40000000000003" y="694.6" type="curve" smooth="yes"/>
      <point x="341.0" y="796.2"/>
      <point x="447.6" y="866.0"/>
      <point x="503.0" y="832.6" type="curve" smooth="yes"/>
      <point x="748.6" y="685.4" type="line" smooth="yes"/>
      <point x="817.0" y="646.2"/>
      <point x="864.5999999999999" y="588.0"/>
    </contour>
  </outline>
</glyph>
<glyph name="dieresis" format="2">
  <advance height="2479.0" width="1171.6"/>
  <unicode hex="00A8"/>
  <anchor x="707.8" y="1303.0" name="_top"/>
  <anchor x="771.8" y="1676.0" name="top"/>
  <outline>
    <contour>
      <point x="505.6" y="1292.0" type="curve" smooth="yes"/>
      <point x="573.6" y="1292.0"/>
      <point x="631.0" y="1344.8"/>
      <point x="640.6" y="1405.0" type="curve" smooth="yes"/>
      <point x="653.6" y="1484.3999999999999"/>
      <point x="601.4" y="1545.8"/>
      <point x="521.6" y="1545.8" type="curve" smooth="yes"/>
      <point x="460.0" y="1545.8"/>
      <point x="398.0" y="1497.8"/>
      <point x="387.8" y="1432.8000000000002" type="curve" smooth="yes"/>
      <point x="377.20000000000005" y="1358.2"/>
      <point x="432.2" y="1292.0"/>
    </contour>
    <contour>
      <point x="933.4" y="1292.0" type="curve" smooth="yes"/>
      <point x="1001.4" y="1292.0"/>
      <point x="1058.6" y="1344.8"/>
      <point x="1068.2" y="1405.0" type="curve" smooth="yes"/>
      <point x="1081.4" y="1484.3999999999999"/>
      <point x="1029.2" y="1545.8"/>
      <point x="949.1999999999999" y="1545.8" type="curve" smooth="yes"/>
      <point x="887.8" y="1545.8"/>
      <point x="826.4000000000001" y="1497.8"/>
      <point x="815.6" y="1432.8000000000002" type="curve" smooth="yes"/>
      <point x="803.2" y="1355.8"/>
      <point x="860.0" y="1292.0"/>
    </contour>
  </outline>
</glyph>
<glyph name="copyright" format="2">
  <advance height="2479.0" width="1873.0"/>
  <unicode hex="00A9"/>
  <outline>
    <contour>
      <point x="549.6" y="745.0" type="curve" smooth="yes"/>
      <point x="510.40000000000003" y="510.2"/>
      <point x="669.6" y="320.2"/>
      <point x="903.6" y="320.2" type="curve" smooth="yes"/>
      <point x="1108.0" y="320.2"/>
      <point x="1291.6" y="464.4"/>
      <point x="1349.3999999999999" y="656.6" type="curve"/>
      <point x="1160.0" y="656.6" type="line"/>
      <point x="1125.4" y="566.0"/>
      <point x="1024.4" y="501.2"/>
      <point x="919.8" y="501.2" type="curve" smooth="yes"/>
      <point x="785.4" y="501.2"/>
      <point x="709.8" y="617.8"/>
      <point x="730.6" y="745.2" type="curve" smooth="yes"/>
      <point x="753.8" y="889.0"/>
      <point x="893.0" y="988.0"/>
      <point x="1026.2" y="988.0" type="curve" smooth="yes"/>
      <point x="1132.6" y="988.0"/>
      <point x="1197.8" y="924.8000000000001"/>
      <point x="1200.8" y="833.4" type="curve"/>
      <point x="1390.2" y="833.4" type="line"/>
      <point x="1395.6" y="1024.6"/>
      <point x="1247.8" y="1169.6"/>
      <point x="1044.2" y="1169.6" type="curve" smooth="yes"/>
      <point x="809.4" y="1169.6"/>
      <point x="588.0" y="979.0"/>
    </contour>
    <component base="whiteCircle" xOffset="0.8"/>
  </outline>
</glyph>
<glyph name="ordfeminine" format="2">
  <advance height="2479.0" width="945.2"/>
  <unicode hex="00AA"/>
  <outline>
    <contour>
      <point x="645.0" y="861.0" type="line"/>
      <point x="636.8" y="807.8"/>
      <point x="637.4" y="752.0"/>
      <point x="642.6" y="706.4" type="curve"/>
      <point x="822.2" y="706.4" type="line"/>
      <point x="812.2" y="766.2"/>
      <point x="816.1999999999999" y="825.4"/>
      <point x="827.5999999999999" y="887.0" type="curve" smooth="yes"/>
      <point x="879.8" y="1201.0" type="line"/>
      <point x="908.8" y="1385.0"/>
      <point x="805.6" y="1478.0"/>
      <point x="629.8" y="1478.0" type="curve" smooth="yes"/>
      <point x="439.6" y="1478.0"/>
      <point x="300.8" y="1379.0"/>
      <point x="277.8" y="1244.4" type="curve"/>
      <point x="448.2" y="1231.0" type="line"/>
      <point x="460.2" y="1295.0"/>
      <point x="518.2" y="1329.0"/>
      <point x="605.8" y="1329.0" type="curve" smooth="yes"/>
      <point x="686.0" y="1329.0"/>
      <point x="715.0" y="1284.8"/>
      <point x="703.0" y="1201.0" type="curve"/>
    </contour>
    <contour>
      <point x="738.6" y="1151.4" type="line"/>
      <point x="592.4" y="1151.4" type="line"/>
      <point x="360.0" y="1151.4"/>
      <point x="231.4" y="1068.0"/>
      <point x="208.4" y="919.0" type="curve" smooth="yes"/>
      <point x="185.4" y="783.0"/>
      <point x="261.0" y="692.0"/>
      <point x="422.2" y="692.0" type="curve" smooth="yes"/>
      <point x="560.4" y="692.0"/>
      <point x="648.0" y="769.8"/>
      <point x="689.6" y="834.4" type="curve"/>
      <point x="689.6" y="951.0" type="line"/>
      <point x="683.6" y="902.0"/>
      <point x="572.1999999999999" y="837.4"/>
      <point x="489.8" y="837.4" type="curve" smooth="yes"/>
      <point x="408.2" y="837.4"/>
      <point x="378.6" y="870.0"/>
      <point x="386.6" y="924.4" type="curve" smooth="yes"/>
      <point x="395.6" y="982.4"/>
      <point x="454.8" y="1035.4"/>
      <point x="572.1999999999999" y="1035.4" type="curve"/>
      <point x="718.6" y="1035.4" type="line"/>
    </contour>
  </outline>
</glyph>
<glyph name="logicalnot" format="2">
  <advance height="2479.0" width="1132.4"/>
  <unicode hex="00AC"/>
  <outline>
    <contour>
      <point x="1030.2" y="806.0" type="line"/>
      <point x="187.0" y="806.0" type="line"/>
      <point x="158.0" y="634.0" type="line"/>
      <point x="1001.0" y="634.0" type="line"/>
    </contour>
    <contour>
      <point x="1019.0" y="727.0" type="line"/>
      <point x="816.2" y="727.0" type="line"/>
      <point x="758.2" y="375.0" type="line"/>
      <point x="961.0" y="375.0" type="line"/>
    </contour>
  </outline>
</glyph>
<glyph name="registered" format="2">
  <advance height="2479.0" width="1368.4"/>
  <unicode hex="00AE"/>
  <outline>
    <contour>
      <point x="498.4" y="666.0" type="line"/>
      <point x="623.6" y="666.0" type="line"/>
      <point x="696.8000000000001" y="1110.6" type="line"/>
      <point x="801.0" y="1110.6" type="line" smooth="yes"/>
      <point x="831.8000000000001" y="1110.6"/>
      <point x="873.8000000000001" y="1090.8"/>
      <point x="864.4" y="1029.0" type="curve" smooth="yes"/>
      <point x="855.8000000000001" y="969.4000000000001"/>
      <point x="805.8000000000001" y="939.2"/>
      <point x="771.0" y="939.2" type="curve" smooth="yes"/>
      <point x="614.2" y="939.2" type="line"/>
      <point x="599.4" y="847.4" type="line"/>
      <point x="790.0" y="847.4" type="line" smooth="yes"/>
      <point x="872.4" y="847.4"/>
      <point x="979.4" y="912.2"/>
      <point x="1000.0" y="1029.0" type="curve" smooth="yes"/>
      <point x="1020.6" y="1144.8"/>
      <point x="933.4" y="1203.0"/>
      <point x="856.2" y="1203.0" type="curve" smooth="yes"/>
      <point x="587.4" y="1203.0" type="line"/>
    </contour>
    <contour>
      <point x="871.2" y="917.4" type="line"/>
      <point x="738.2" y="917.4" type="line"/>
      <point x="821.8" y="666.0" type="line"/>
      <point x="958.8000000000001" y="666.0" type="line"/>
    </contour>
    <contour>
      <point x="745.6" y="346.0" type="curve" smooth="yes"/>
      <point x="1066.2" y="346.0"/>
      <point x="1326.8" y="607.0"/>
      <point x="1326.8" y="928.0" type="curve" smooth="yes"/>
      <point x="1327.6" y="1249.0"/>
      <point x="1065.8" y="1510.0"/>
      <point x="745.6" y="1510.0" type="curve" smooth="yes"/>
      <point x="423.0" y="1510.0"/>
      <point x="162.79999999999998" y="1249.0"/>
      <point x="163.6" y="928.0" type="curve" smooth="yes"/>
      <point x="164.4" y="607.0"/>
      <point x="423.0" y="346.0"/>
    </contour>
    <contour>
      <point x="745.6" y="490.6" type="curve" smooth="yes"/>
      <point x="503.4" y="490.6"/>
      <point x="307.4" y="686.6"/>
      <point x="307.4" y="928.0" type="curve" smooth="yes"/>
      <point x="308.2" y="1169.4"/>
      <point x="503.4" y="1365.4"/>
      <point x="745.6" y="1365.4" type="curve" smooth="yes"/>
      <point x="986.2" y="1365.4"/>
      <point x="1182.2" y="1169.4"/>
      <point x="1183.0" y="928.0" type="curve" smooth="yes"/>
      <point x="1183.8" y="686.6"/>
      <point x="986.6" y="490.6"/>
    </contour>
  </outline>
</glyph>
<glyph name="macron" format="2">
  <advance height="2479.0" width="998.8000000000001"/>
  <unicode hex="00AF"/>
  <anchor x="622.1999999999999" y="1303.0" name="_top"/>
  <outline>
    <contour>
      <point x="998.2" y="1489.0" type="line"/>
      <point x="307.4" y="1489.0" type="line"/>
      <point x="283.2" y="1336.4" type="line"/>
      <point x="974.0" y="1336.4" type="line"/>
    </contour>
  </outline>
</glyph>
<glyph name="degree" format="2">
  <advance height="2479.0" width="934.4"/>
  <unicode hex="00B0"/>
  <outline>
    <contour>
      <point x="566.1999999999999" y="816.2" type="curve" smooth="yes"/>
      <point x="755.4" y="816.2"/>
      <point x="908.0" y="969.6"/>
      <point x="908.0" y="1158.8" type="curve" smooth="yes"/>
      <point x="908.0" y="1347.2"/>
      <point x="755.4" y="1500.4"/>
      <point x="566.1999999999999" y="1500.4" type="curve" smooth="yes"/>
      <point x="377.0" y="1500.4"/>
      <point x="223.79999999999998" y="1347.2"/>
      <point x="223.79999999999998" y="1158.8" type="curve" smooth="yes"/>
      <point x="223.79999999999998" y="969.6"/>
      <point x="377.0" y="816.2"/>
    </contour>
    <contour>
      <point x="566.1999999999999" y="981.8" type="curve" smooth="yes"/>
      <point x="468.40000000000003" y="981.8"/>
      <point x="390.0" y="1061.0"/>
      <point x="390.0" y="1158.8" type="curve" smooth="yes"/>
      <point x="390.0" y="1255.8"/>
      <point x="468.40000000000003" y="1335.0"/>
      <point x="566.1999999999999" y="1335.0" type="curve" smooth="yes"/>
      <point x="664.0" y="1335.0"/>
      <point x="742.4" y="1255.8"/>
      <point x="742.4" y="1158.8" type="curve" smooth="yes"/>
      <point x="742.4" y="1061.0"/>
      <point x="664.0" y="981.8"/>
    </contour>
  </outline>
</glyph>
<glyph name="plusminus" format="2">
  <advance height="2479.0" width="1364.0"/>
  <unicode hex="00B1"/>
  <outline>
    <contour>
      <point x="116.80000000000001" y="65.4" type="line"/>
      <point x="1083.0" y="65.4" type="line"/>
      <point x="1113.6" y="256.2" type="line"/>
      <point x="147.6" y="256.2" type="line"/>
    </contour>
    <contour>
      <point x="216.4" y="658.2" type="line"/>
      <point x="1182.3999999999999" y="658.2" type="line"/>
      <point x="1213.1999999999998" y="846.8" type="line"/>
      <point x="247.20000000000002" y="846.8" type="line"/>
    </contour>
    <contour>
      <point x="554.1999999999999" y="377.2" type="line"/>
      <point x="749.6" y="377.2" type="line"/>
      <point x="874.1999999999999" y="1128.6" type="line"/>
      <point x="679.4" y="1128.6" type="line"/>
    </contour>
  </outline>
</glyph>
<glyph name="twosuperior" format="2">
  <advance height="2479.0" width="860.4"/>
  <unicode hex="00B2"/>
  <anchor x="711.0" y="1223.0" name="cross"/>
  <outline>
    <contour>
      <point x="127.0" y="745.0" type="line"/>
      <point x="811.8000000000001" y="745.0" type="line"/>
      <point x="834.6" y="891.0" type="line"/>
      <point x="407.8" y="891.0" type="line"/>
      <point x="408.2" y="897.6" type="line"/>
      <point x="605.4" y="1039.4" type="line" smooth="yes"/>
      <point x="803.2" y="1177.8"/>
      <point x="873.8" y="1260.6000000000001"/>
      <point x="891.8" y="1373.2" type="curve" smooth="yes"/>
      <point x="914.8" y="1526.6"/>
      <point x="808.0" y="1649.0"/>
      <point x="602.0" y="1649.0" type="curve" smooth="yes"/>
      <point x="401.79999999999995" y="1649.0"/>
      <point x="247.8" y="1533.0"/>
      <point x="221.20000000000002" y="1365.4" type="curve"/>
      <point x="395.6" y="1365.4" type="line"/>
      <point x="410.6" y="1455.0"/>
      <point x="492.40000000000003" y="1507.2"/>
      <point x="585.5999999999999" y="1507.2" type="curve" smooth="yes"/>
      <point x="681.6" y="1507.2"/>
      <point x="742.8000000000001" y="1457.4"/>
      <point x="729.0" y="1376.2" type="curve" smooth="yes"/>
      <point x="717.0" y="1305.0"/>
      <point x="655.4" y="1254.6000000000001"/>
      <point x="543.4" y="1170.2" type="curve" smooth="yes"/>
      <point x="146.4" y="873.8" type="line"/>
    </contour>
  </outline>
</glyph>
<glyph name="threesuperior" format="2">
  <advance height="2479.0" width="887.0"/>
  <unicode hex="00B3"/>
  <outline>
    <contour>
      <point x="479.20000000000005" y="733.0" type="curve" smooth="yes"/>
      <point x="689.0" y="733.0"/>
      <point x="856.0" y="833.8"/>
      <point x="881.6" y="987.2" type="curve" smooth="yes"/>
      <point x="898.6" y="1101.6"/>
      <point x="825.4" y="1185.8"/>
      <point x="694.4" y="1203.4" type="curve"/>
      <point x="694.4" y="1210.0" type="line"/>
      <point x="815.2" y="1229.2"/>
      <point x="894.4" y="1285.4"/>
      <point x="911.8" y="1388.4" type="curve" smooth="yes"/>
      <point x="934.8" y="1532.0"/>
      <point x="824.2" y="1649.0"/>
      <point x="617.4000000000001" y="1649.0" type="curve" smooth="yes"/>
      <point x="433.20000000000005" y="1649.0"/>
      <point x="269.0" y="1546.2"/>
      <point x="240.0" y="1388.6" type="curve"/>
      <point x="412.8" y="1388.6" type="line"/>
      <point x="425.8" y="1461.6000000000001"/>
      <point x="523.8" y="1507.2"/>
      <point x="613.4" y="1507.2" type="curve" smooth="yes"/>
      <point x="713.6" y="1507.2"/>
      <point x="752.1999999999999" y="1463.4"/>
      <point x="739.8" y="1392.0" type="curve" smooth="yes"/>
      <point x="727.8" y="1326.2"/>
      <point x="644.8" y="1267.4"/>
      <point x="537.4" y="1267.4" type="curve" smooth="yes"/>
      <point x="458.8" y="1267.4" type="line"/>
      <point x="438.6" y="1134.4" type="line"/>
      <point x="522.6" y="1134.4" type="line" smooth="yes"/>
      <point x="645.4" y="1134.4"/>
      <point x="711.8" y="1091.6"/>
      <point x="698.8" y="1014.4" type="curve" smooth="yes"/>
      <point x="685.0" y="939.6"/>
      <point x="595.4" y="882.0"/>
      <point x="485.8" y="882.0" type="curve" smooth="yes"/>
      <point x="388.4" y="882.0"/>
      <point x="323.2" y="927.2"/>
      <point x="333.40000000000003" y="997.8" type="curve"/>
      <point x="154.2" y="997.8" type="line"/>
      <point x="131.2" y="841.6"/>
      <point x="266.2" y="733.0"/>
    </contour>
  </outline>
</glyph>
<glyph name="acute" format="2">
  <advance height="2479.0" width="1018.0"/>
  <unicode hex="00B4"/>
  <anchor x="613.8000000000001" y="1303.0" name="_top"/>
  <anchor x="694.0" y="1676.0" name="top"/>
  <outline>
    <contour>
      <point x="518.0" y="1265.8" type="line"/>
      <point x="691.8000000000001" y="1265.8" type="line"/>
      <point x="972.8000000000001" y="1601.4" type="line"/>
      <point x="743.4" y="1601.4" type="line"/>
    </contour>
  </outline>
</glyph>
<glyph name="micro" format="2">
  <advance height="2479.0" width="1304.2"/>
  <unicode hex="00B5"/>
  <outline>
    <contour>
      <point x="-15.8" y="-414.4" type="line"/>
      <point x="198.0" y="-414.4" type="line"/>
      <point x="295.2" y="163.6" type="line"/>
      <point x="303.4" y="163.6" type="line"/>
      <point x="340.4" y="53.800000000000004"/>
      <point x="439.40000000000003" y="-8.0"/>
      <point x="557.4000000000001" y="-8.0" type="curve" smooth="yes"/>
      <point x="678.4" y="-8.0"/>
      <point x="796.4" y="53.800000000000004"/>
      <point x="871.8" y="163.6" type="curve"/>
      <point x="880.0" y="163.6" type="line"/>
      <point x="851.4" y="0.0" type="line"/>
      <point x="1065.4" y="0.0" type="line"/>
      <point x="1251.4" y="1117.0" type="line"/>
      <point x="1034.2" y="1117.0" type="line"/>
      <point x="924.6" y="463.4" type="line" smooth="yes"/>
      <point x="898.0" y="297.6"/>
      <point x="763.8000000000001" y="183.0"/>
      <point x="590.4000000000001" y="183.0" type="curve" smooth="yes"/>
      <point x="417.4" y="183.0"/>
      <point x="320.6" y="297.6"/>
      <point x="347.2" y="463.4" type="curve" smooth="yes"/>
      <point x="456.8" y="1117.0" type="line"/>
      <point x="239.0" y="1117.0" type="line"/>
    </contour>
  </outline>
</glyph>
<glyph name="paragraph" format="2">
  <advance height="2479.0" width="1235.0"/>
  <unicode hex="00B6"/>
  <outline>
    <contour>
      <point x="1146.3999999999999" y="1303.0" type="line"/>
      <point x="1178.0" y="1489.0" type="line"/>
      <point x="757.2" y="1489.0" type="line" smooth="yes"/>
      <point x="436.8" y="1489.0"/>
      <point x="229.4" y="1289.0"/>
      <point x="182.6" y="1021.0" type="curve" smooth="yes"/>
      <point x="139.4" y="751.0"/>
      <point x="282.6" y="553.0"/>
      <point x="603.2" y="553.0" type="curve" smooth="yes"/>
      <point x="688.6" y="553.0" type="line"/>
      <point x="812.0" y="1303.0" type="line"/>
    </contour>
    <contour>
      <point x="775.8" y="0.0" type="line"/>
      <point x="977.8" y="0.0" type="line"/>
      <point x="1225.0" y="1489.0" type="line"/>
      <point x="1022.8" y="1489.0" type="line"/>
    </contour>
  </outline>
</glyph>
<glyph name="cedilla" format="2">
  <advance height="2479.0" width="620.2"/>
  <unicode hex="00B8"/>
  <anchor x="221.60000000000002" y="0.0" name="_cedilla"/>
  <outline>
    <contour>
      <point x="149.79999999999998" y="6.0" type="line"/>
      <point x="93.60000000000001" y="-138.6" type="line"/>
      <point x="200.39999999999998" y="-148.0"/>
      <point x="243.0" y="-169.4"/>
      <point x="231.79999999999998" y="-234.0" type="curve" smooth="yes"/>
      <point x="219.20000000000002" y="-299.2"/>
      <point x="147.00000000000003" y="-326.4"/>
      <point x="46.4" y="-326.4" type="curve"/>
      <point x="30.0" y="-447.8" type="line"/>
      <point x="244.79999999999998" y="-447.8"/>
      <point x="376.79999999999995" y="-359.0"/>
      <point x="397.4" y="-227.4" type="curve" smooth="yes"/>
      <point x="416.99999999999994" y="-118.4"/>
      <point x="351.8" y="-67.0"/>
      <point x="269.6" y="-53.8" type="curve"/>
      <point x="292.6" y="6.0" type="line"/>
    </contour>
  </outline>
</glyph>
<glyph name="onesuperior" format="2">
  <advance height="2479.0" width="646.4"/>
  <unicode hex="00B9"/>
  <outline>
    <contour>
      <point x="340.8" y="745.0" type="line"/>
      <point x="512.2" y="745.0" type="line"/>
      <point x="661.2" y="1638.0" type="line"/>
      <point x="493.0" y="1638.0" type="line"/>
      <point x="232.20000000000002" y="1484.4" type="line"/>
      <point x="204.20000000000002" y="1318.2" type="line"/>
      <point x="453.79999999999995" y="1464.2" type="line"/>
      <point x="460.2" y="1464.2" type="line"/>
    </contour>
  </outline>
</glyph>
<glyph name="ordmasculine" format="2">
  <advance height="2479.0" width="943.4"/>
  <unicode hex="00BA"/>
  <outline>
    <contour>
      <point x="203.8" y="1044.0" type="line"/>
      <point x="168.8" y="838.0"/>
      <point x="280.2" y="691.4"/>
      <point x="497.59999999999997" y="691.4" type="curve" smooth="yes"/>
      <point x="712.0" y="691.4"/>
      <point x="867.8000000000001" y="838.0"/>
      <point x="902.8000000000001" y="1044.0" type="curve"/>
      <point x="914.6" y="1122.4" type="line"/>
      <point x="949.6" y="1329.0"/>
      <point x="840.0" y="1478.0"/>
      <point x="623.2" y="1478.0" type="curve" smooth="yes"/>
      <point x="409.40000000000003" y="1478.0"/>
      <point x="249.8" y="1329.0"/>
      <point x="215.60000000000002" y="1122.4" type="curve"/>
    </contour>
    <contour>
      <point x="391.4" y="1122.4" type="line"/>
      <point x="411.59999999999997" y="1238.4"/>
      <point x="485.0" y="1329.0"/>
      <point x="600.2" y="1329.0" type="curve" smooth="yes"/>
      <point x="717.4" y="1329.0"/>
      <point x="759.0" y="1238.4"/>
      <point x="738.0" y="1122.4" type="curve"/>
      <point x="727.0" y="1044.0" type="line"/>
      <point x="706.0" y="925.0"/>
      <point x="636.1999999999999" y="838.0"/>
      <point x="521.2" y="838.0" type="curve" smooth="yes"/>
      <point x="404.0" y="838.0"/>
      <point x="359.4" y="925.0"/>
      <point x="379.59999999999997" y="1044.0" type="curve"/>
    </contour>
  </outline>
</glyph>
<glyph name="AE" format="2">
  <advance height="2479.0" width="2055.2000000000003"/>
  <unicode hex="00C6"/>
  <anchor x="1515.8" y="1676.0" name="top"/>
  <outline>
    <contour>
      <point x="-42.2" y="0.0" type="line"/>
      <point x="205.39999999999998" y="0.0" type="line"/>
      <point x="997.6" y="1279.0" type="line"/>
      <point x="1103.3999999999999" y="1279.0" type="line"/>
      <point x="890.6" y="0.0" type="line"/>
      <point x="1833.6" y="0.0" type="line"/>
      <point x="1865.3999999999999" y="193.2" type="line"/>
      <point x="1148.2" y="193.2" type="line"/>
      <point x="1223.4" y="649.2" type="line"/>
      <point x="1883.8" y="649.2" type="line"/>
      <point x="1915.8" y="842.4" type="line"/>
      <point x="1255.4" y="842.4" type="line"/>
      <point x="1331.4" y="1296.0" type="line"/>
      <point x="2039.8" y="1296.0" type="line"/>
      <point x="2071.6" y="1489.0" type="line"/>
      <point x="899.0" y="1489.0" type="line"/>
    </contour>
    <contour>
      <point x="350.8" y="394.6" type="line"/>
      <point x="1078.0" y="394.6" type="line"/>
      <point x="1109.4" y="583.2" type="line"/>
      <point x="382.0" y="583.2" type="line"/>
    </contour>
  </outline>
</glyph>
<glyph name="multiply" format="2">
  <advance height="2479.0" width="1364.0"/>
  <unicode hex="00D7"/>
  <outline>
    <contour>
      <point x="955.8" y="99.2" type="line"/>
      <point x="1108.0" y="229.60000000000002" type="line"/>
      <point x="411.0" y="1066.8" type="line"/>
      <point x="258.0" y="935.8" type="line"/>
    </contour>
    <contour>
      <point x="269.2" y="101.60000000000001" type="line"/>
      <point x="1226.3999999999999" y="919.0" type="line"/>
      <point x="1104.0" y="1064.4" type="line"/>
      <point x="146.79999999999998" y="246.4" type="line"/>
    </contour>
  </outline>
</glyph>
<glyph name="Oslash" format="2">
  <advance height="2479.0" width="1573.0"/>
  <unicode hex="00D8"/>
  <anchor x="701.8" y="2.4" name="bottom"/>
  <anchor x="858.1999999999999" y="-1.1999999999999997" name="ogonek"/>
  <anchor x="327.6" y="1486.6" name="tonos"/>
  <anchor x="969.8" y="1673.6" name="top"/>
  <outline>
    <contour>
      <point x="327.8" y="-64.6" type="line"/>
      <point x="1424.8" y="1468.6" type="line"/>
      <point x="1307.0" y="1551.4" type="line"/>
      <point x="210.8" y="18.4" type="line"/>
    </contour>
    <component base="O" xOffset="-0.8" yOffset="-2.4"/>
  </outline>
</glyph>
<glyph name="Thorn" format="2">
  <advance height="2479.0" width="1319.2"/>
  <unicode hex="00DE"/>
  <outline>
    <contour>
      <point x="309.0" y="1489.0" type="line"/>
      <point x="62.0" y="0.0" type="line"/>
      <point x="286.8" y="0.0" type="line"/>
      <point x="533.8" y="1489.0" type="line"/>
    </contour>
    <contour>
      <point x="363.79999999999995" y="1192.6" type="line"/>
      <point x="333.0" y="1004.8" type="line"/>
      <point x="718.2" y="1004.8" type="line" smooth="yes"/>
      <point x="915.0" y="1004.8"/>
      <point x="1001.2" y="904.0"/>
      <point x="975.6" y="753.2" type="curve" smooth="yes"/>
      <point x="949.6" y="602.4"/>
      <point x="833.8000000000001" y="507.0"/>
      <point x="636.2" y="507.0" type="curve" smooth="yes"/>
      <point x="250.99999999999997" y="507.0" type="line"/>
      <point x="220.2" y="319.6" type="line"/>
      <point x="605.4" y="319.6" type="line" smooth="yes"/>
      <point x="936.4" y="319.6"/>
      <point x="1151.0" y="511.6"/>
      <point x="1190.6" y="755.4" type="curve" smooth="yes"/>
      <point x="1232.0" y="1000.0"/>
      <point x="1079.8" y="1192.6"/>
      <point x="748.8000000000001" y="1192.6" type="curve" smooth="yes"/>
    </contour>
  </outline>
</glyph>
<glyph name="germandbls" format="2">
  <advance height="2479.0" width="1282.1999999999998"/>
  <unicode hex="00DF"/>
  <outline>
    <contour>
      <point x="70.19999999999999" y="0.0" type="line"/>
      <point x="288.0" y="0.0" type="line"/>
      <point x="468.2" y="1088.8" type="line" smooth="yes"/>
      <point x="490.2" y="1224.6"/>
      <point x="607.4" y="1316.8"/>
      <point x="752.5999999999999" y="1316.8" type="curve" smooth="yes"/>
      <point x="901.8000000000001" y="1316.8"/>
      <point x="976.4" y="1216.0"/>
      <point x="955.4" y="1087.2" type="curve" smooth="yes"/>
      <point x="934.1999999999999" y="963.2"/>
      <point x="832.1999999999999" y="850.2"/>
      <point x="699.0" y="850.2" type="curve" smooth="yes"/>
      <point x="611.2" y="850.2" type="line"/>
      <point x="580.2" y="661.0" type="line"/>
      <point x="706.0" y="661.0" type="line" smooth="yes"/>
      <point x="872.4" y="661.0"/>
      <point x="961.0" y="561.6"/>
      <point x="938.6" y="420.0" type="curve" smooth="yes"/>
      <point x="917.0" y="284.2"/>
      <point x="804.2" y="190.8"/>
      <point x="654.4000000000001" y="190.8" type="curve" smooth="yes"/>
      <point x="494.8" y="190.8" type="line"/>
      <point x="463.6" y="0.0" type="line"/>
      <point x="637.6" y="0.0" type="line" smooth="yes"/>
      <point x="907.4" y="0.0"/>
      <point x="1113.8" y="162.4"/>
      <point x="1155.8" y="410.0" type="curve" smooth="yes"/>
      <point x="1190.8" y="620.0"/>
      <point x="1083.2" y="759.8"/>
      <point x="894.6" y="776.8" type="curve"/>
      <point x="897.6" y="791.6" type="line"/>
      <point x="1041.8" y="836.8"/>
      <point x="1153.6000000000001" y="948.6"/>
      <point x="1179.0" y="1119.6" type="curve" smooth="yes"/>
      <point x="1217.4" y="1367.3999999999999"/>
      <point x="1040.6" y="1510.0"/>
      <point x="778.4" y="1510.0" type="curve" smooth="yes"/>
      <point x="507.4" y="1510.0"/>
      <point x="295.0" y="1357.8"/>
      <point x="253.39999999999998" y="1104.0" type="curve" smooth="yes"/>
    </contour>
  </outline>
</glyph>
<glyph name="ae" format="2">
  <advance height="2479.0" width="1924.8000000000002"/>
  <unicode hex="00E6"/>
  <anchor x="1052.0" y="1303.0" name="top"/>
  <outline>
    <contour>
      <point x="1221.6" y="-22.4" type="curve"/>
      <point x="1456.6" y="-22.4"/>
      <point x="1649.6" y="97.6"/>
      <point x="1730.1999999999998" y="279.4" type="curve"/>
      <point x="1531.2" y="316.2" type="line"/>
      <point x="1473.0" y="210.6"/>
      <point x="1370.6" y="157.2"/>
      <point x="1247.0" y="157.2" type="curve" smooth="yes"/>
      <point x="1057.6000000000001" y="157.2"/>
      <point x="951.4000000000001" y="284.8"/>
      <point x="987.6" y="508.8" type="curve" smooth="yes"/>
      <point x="1008.8000000000001" y="635.8" type="line" smooth="yes"/>
      <point x="1036.0" y="801.4"/>
      <point x="1177.4" y="951.4"/>
      <point x="1362.6" y="951.4" type="curve"/>
      <point x="1531.2" y="951.4"/>
      <point x="1620.8" y="827.0"/>
      <point x="1592.4" y="656.6" type="curve"/>
      <point x="925.4" y="656.6" type="line"/>
      <point x="899.1999999999999" y="493.0" type="line"/>
      <point x="1780.0" y="493.0" type="line"/>
      <point x="1792.6000000000001" y="570.2" type="line" smooth="yes"/>
      <point x="1860.2" y="973.8"/>
      <point x="1645.0" y="1132.0"/>
      <point x="1391.0" y="1132.0" type="curve" smooth="yes"/>
      <point x="1198.4" y="1132.0"/>
      <point x="1043.6000000000001" y="1039.2"/>
      <point x="936.4" y="872.6" type="curve"/>
      <point x="822.0" y="283.0" type="line"/>
      <point x="836.0" y="98.2"/>
      <point x="987.2" y="-22.4"/>
    </contour>
    <contour>
      <point x="449.59999999999997" y="149.6" type="curve" smooth="yes"/>
      <point x="326.8" y="149.6"/>
      <point x="248.2" y="205.4"/>
      <point x="266.79999999999995" y="312.8" type="curve" smooth="yes"/>
      <point x="284.59999999999997" y="429.2"/>
      <point x="396.79999999999995" y="470.6"/>
      <point x="525.6" y="487.2" type="curve" smooth="yes"/>
      <point x="596.0" y="496.79999999999995"/>
      <point x="766.0" y="515.8"/>
      <point x="802.8" y="546.6" type="curve"/>
      <point x="779.0" y="402.4" type="line" smooth="yes"/>
      <point x="757.2" y="270.8"/>
      <point x="630.8" y="149.6"/>
    </contour>
    <contour>
      <point x="381.2" y="-24.2" type="curve" smooth="yes"/>
      <point x="574.4" y="-24.2"/>
      <point x="763.4" y="72.0"/>
      <point x="832.8" y="197.0" type="curve"/>
      <point x="848.6" y="197.0" type="line"/>
      <point x="1023.5999999999999" y="906.2" type="line"/>
      <point x="991.0" y="1097.6"/>
      <point x="812.2" y="1132.0"/>
      <point x="686.8" y="1132.0" type="curve" smooth="yes"/>
      <point x="482.4" y="1132.0"/>
      <point x="281.40000000000003" y="1049.8"/>
      <point x="176.2" y="846.6" type="curve"/>
      <point x="371.0" y="800.2" type="line"/>
      <point x="417.40000000000003" y="879.0"/>
      <point x="512.2" y="955.0"/>
      <point x="657.8000000000001" y="955.0" type="curve" smooth="yes"/>
      <point x="797.4" y="955.0"/>
      <point x="857.2" y="881.4"/>
      <point x="837.0" y="755.4" type="curve" smooth="yes"/>
      <point x="837.0" y="750.8" type="line" smooth="yes"/>
      <point x="823.6" y="672.4"/>
      <point x="741.0" y="673.2"/>
      <point x="537.8" y="649.4" type="curve" smooth="yes"/>
      <point x="320.8" y="625.2"/>
      <point x="96.2" y="569.0"/>
      <point x="53.0" y="315.2" type="curve" smooth="yes"/>
      <point x="17.4" y="96.6"/>
      <point x="162.0" y="-24.2"/>
    </contour>
  </outline>
</glyph>
<glyph name="eth" format="2">
  <advance height="2479.0" width="1202.1999999999998"/>
  <unicode hex="00F0"/>
  <outline>
    <contour>
      <point x="1104.0" y="1412.2" type="line"/>
      <point x="1083.8000000000002" y="1530.4" type="line"/>
      <point x="408.8" y="1222.6" type="line"/>
      <point x="426.6" y="1104.6" type="line"/>
    </contour>
    <contour>
      <point x="503.79999999999995" y="-23.0" type="curve" smooth="yes"/>
      <point x="810.8" y="-23.0"/>
      <point x="1046.0" y="193.8"/>
      <point x="1104.6000000000001" y="555.8" type="curve" smooth="yes"/>
      <point x="1189.8000000000002" y="1072.0"/>
      <point x="877.4" y="1430.6000000000001"/>
      <point x="535.1999999999999" y="1579.2" type="curve"/>
      <point x="452.0" y="1442.0" type="line"/>
      <point x="745.2" y="1288.6"/>
      <point x="879.6" y="1062.2"/>
      <point x="923.1999999999999" y="872.6" type="curve"/>
      <point x="908.8" y="872.6" type="line"/>
      <point x="870.4" y="953.8"/>
      <point x="782.8" y="1042.6"/>
      <point x="625.8000000000001" y="1042.6" type="curve" smooth="yes"/>
      <point x="370.6" y="1042.6"/>
      <point x="139.79999999999998" y="822.0"/>
      <point x="88.2" y="512.0" type="curve" smooth="yes"/>
      <point x="38.2" y="198.6"/>
      <point x="197.20000000000002" y="-23.0"/>
    </contour>
    <contour>
      <point x="536.8" y="158.6" type="curve" smooth="yes"/>
      <point x="334.0" y="158.6"/>
      <point x="271.20000000000005" y="325.4"/>
      <point x="302.20000000000005" y="518.2" type="curve" smooth="yes"/>
      <point x="335.6" y="717.6"/>
      <point x="461.40000000000003" y="883.4"/>
      <point x="656.6" y="883.4" type="curve" smooth="yes"/>
      <point x="866.0" y="883.4"/>
      <point x="920.4" y="692.0"/>
      <point x="891.6" y="508.6" type="curve" smooth="yes"/>
      <point x="857.8" y="309.0"/>
      <point x="729.6" y="158.6"/>
    </contour>
  </outline>
</glyph>
<glyph name="divide" format="2">
  <advance height="2479.0" width="1364.0"/>
  <unicode hex="00F7"/>
  <outline>
    <contour>
      <point x="1182.3999999999999" y="681.6" type="line"/>
      <point x="222.4" y="681.6" type="line"/>
      <point x="191.6" y="490.8" type="line"/>
      <point x="1151.8" y="490.8" type="line"/>
    </contour>
    <contour>
      <point x="610.8" y="56.2" type="curve" smooth="yes"/>
      <point x="682.4" y="56.2"/>
      <point x="752.2" y="114.0"/>
      <point x="763.0" y="188.0" type="curve" smooth="yes"/>
      <point x="775.2" y="273.8"/>
      <point x="717.8" y="345.4"/>
      <point x="634.4" y="345.4" type="curve" smooth="yes"/>
      <point x="559.0" y="345.4"/>
      <point x="490.19999999999993" y="287.2"/>
      <point x="480.19999999999993" y="215.79999999999998" type="curve" smooth="yes"/>
      <point x="467.19999999999993" y="127.39999999999999"/>
      <point x="523.4" y="56.2"/>
    </contour>
    <contour>
      <point x="739.4" y="827.8" type="curve" smooth="yes"/>
      <point x="811.0" y="827.8"/>
      <point x="878.4" y="885.8"/>
      <point x="890.8" y="959.8" type="curve" smooth="yes"/>
      <point x="904.8" y="1045.6"/>
      <point x="845.8000000000001" y="1117.0"/>
      <point x="762.4" y="1117.0" type="curve" smooth="yes"/>
      <point x="686.8" y="1117.0"/>
      <point x="618.8" y="1059.8"/>
      <point x="605.8" y="988.2" type="curve" smooth="yes"/>
      <point x="590.4" y="900.8"/>
      <point x="652.0" y="827.8"/>
    </contour>
  </outline>
</glyph>
<glyph name="oslash" format="2">
  <advance height="2479.0" width="1233.6"/>
  <unicode hex="00F8"/>
  <anchor x="524.5999999999999" y="0.0" name="bottom"/>
  <anchor x="660.1999999999999" y="0.0" name="ogonek"/>
  <anchor x="740.4" y="1303.0" name="top"/>
  <outline>
    <contour>
      <point x="181.4" y="-64.6" type="line"/>
      <point x="1157.6000000000001" y="1090.4" type="line"/>
      <point x="1051.8" y="1172.6" type="line"/>
      <point x="73.0" y="18.4" type="line"/>
    </contour>
    <component base="o"/>
  </outline>
</glyph>
<glyph name="thorn" format="2">
  <advance height="2479.0" width="1250.4"/>
  <unicode hex="00FE"/>
  <outline>
    <contour>
      <point x="300.0" y="1489.0" type="line"/>
      <point x="-17.0" y="-419.0" type="line"/>
      <point x="200.8" y="-419.0" type="line"/>
      <point x="306.40000000000003" y="212.6" type="line"/>
      <point x="299.59999999999997" y="561.8" type="line"/>
      <point x="416.40000000000003" y="872.4" type="line"/>
      <point x="517.8" y="1489.0" type="line"/>
    </contour>
    <contour>
      <point x="342.2" y="956.2" type="line"/>
      <point x="209.0" y="155.6" type="line"/>
      <point x="310.4" y="155.6" type="line"/>
      <point x="339.0" y="88.2"/>
      <point x="399.4" y="-21.4"/>
      <point x="589.8" y="-21.4" type="curve" smooth="yes"/>
      <point x="859.8" y="-21.4"/>
      <point x="1093.8" y="194.6"/>
      <point x="1153.0" y="556.6" type="curve" smooth="yes"/>
      <point x="1212.8" y="919.0"/>
      <point x="1048.8" y="1132.0"/>
      <point x="780.0" y="1132.0" type="curve" smooth="yes"/>
      <point x="585.4" y="1132.0"/>
      <point x="492.0" y="1020.6"/>
      <point x="443.79999999999995" y="956.2" type="curve"/>
    </contour>
    <contour>
      <point x="941.0" y="559.0" type="curve" smooth="yes"/>
      <point x="902.6" y="332.2"/>
      <point x="775.0" y="163.6"/>
      <point x="577.1999999999999" y="163.6" type="curve" smooth="yes"/>
      <point x="382.0" y="163.6"/>
      <point x="314.2" y="329.0"/>
      <point x="351.6" y="559.0" type="curve" smooth="yes"/>
      <point x="389.2" y="786.8"/>
      <point x="510.20000000000005" y="946.2"/>
      <point x="706.5999999999999" y="946.2" type="curve" smooth="yes"/>
      <point x="906.8" y="946.2"/>
      <point x="976.6" y="782.4"/>
    </contour>
  </outline>
</glyph>
<glyph name="dcroat" format="2">
  <advance height="2479.0" width="1283.3999999999999"/>
  <unicode hex="0111"/>
  <anchor x="530.6" y="0.0" name="bottom"/>
  <anchor x="1129.3999999999999" y="1280.0" name="cross"/>
  <anchor x="1422.1999999999998" y="1489.0" name="raccent"/>
  <anchor x="740.4" y="1489.0" name="top"/>
  <outline>
    <contour>
      <point x="705.8000000000001" y="1207.4" type="line"/>
      <point x="1374.3999999999999" y="1207.4" type="line"/>
      <point x="1400.3999999999999" y="1356.8" type="line"/>
      <point x="731.8000000000001" y="1356.8" type="line"/>
    </contour>
    <component base="d"/>
  </outline>
</glyph>
<glyph name="Hbar" format="2">
  <advance height="2479.0" width="1615.1999999999998"/>
  <unicode hex="0126"/>
  <anchor x="712.0" y="0.0" name="bottom"/>
  <anchor x="244.0" y="0.0" name="cedilla"/>
  <anchor x="1416.4" y="83.8" name="cyrtic"/>
  <anchor x="1307.2" y="0.0" name="right"/>
  <anchor x="324.79999999999995" y="1489.0" name="tonos"/>
  <anchor x="998.1999999999999" y="1678.4" name="top"/>
  <outline>
    <contour>
      <point x="1628.4" y="1193.6" type="line"/>
      <point x="195.2" y="1193.6" type="line"/>
      <point x="169.6" y="1034.4" type="line"/>
      <point x="1603.6000000000001" y="1034.4" type="line"/>
    </contour>
    <component base="H" xOffset="46.6"/>
  </outline>
</glyph>
<glyph name="kgreenlandic" format="2">
  <advance height="2479.0" width="1140.1999999999998"/>
  <unicode hex="0138"/>
  <outline>
    <contour>
      <point x="316.0" y="378.6" type="line"/>
      <point x="551.1999999999999" y="579.2" type="line"/>
      <point x="585.0" y="579.2" type="line"/>
      <point x="1181.3999999999999" y="1117.0" type="line"/>
      <point x="921.6" y="1117.0" type="line"/>
      <point x="396.40000000000003" y="644.4" type="line"/>
      <point x="357.8" y="644.4" type="line"/>
    </contour>
    <contour>
      <point x="53.6" y="0.0" type="line"/>
      <point x="271.40000000000003" y="0.0" type="line"/>
      <point x="457.2" y="1117.0" type="line"/>
      <point x="239.2" y="1117.0" type="line"/>
    </contour>
    <contour>
      <point x="759.4" y="0.0" type="line"/>
      <point x="1025.8" y="0.0" type="line"/>
      <point x="621.8" y="683.0" type="line"/>
      <point x="448.40000000000003" y="530.8" type="line"/>
    </contour>
  </outline>
</glyph>
<glyph name="Lslash" format="2">
  <advance height="2479.0" width="1167.8"/>
  <unicode hex="0141"/>
  <anchor x="538.6" y="0.0" name="bottom"/>
  <anchor x="332.0" y="772.0" name="cross"/>
  <anchor x="666.8" y="809.8" name="dot"/>
  <anchor x="805.2" y="1489.0" name="raccent"/>
  <anchor x="485.0" y="1676.0" name="top"/>
  <outline>
    <contour>
      <point x="671.1999999999999" y="941.4" type="line"/>
      <point x="46.800000000000004" y="754.8" type="line"/>
      <point x="40.400000000000006" y="610.4" type="line"/>
      <point x="664.8" y="796.6" type="line"/>
    </contour>
    <component base="L" xOffset="21.0"/>
  </outline>
</glyph>
<glyph name="lslash" format="2">
  <advance height="2479.0" width="509.8"/>
  <unicode hex="0142"/>
  <anchor x="163.0" y="0.0" name="bottom"/>
  <anchor x="291.2" y="768.0" name="cross"/>
  <anchor x="655.4" y="1489.0" name="raccent"/>
  <anchor x="440.79999999999995" y="1676.0" name="top"/>
  <outline>
    <contour>
      <point x="580.1999999999999" y="943.8" type="line"/>
      <point x="26.6" y="757.2" type="line"/>
      <point x="1.8" y="614.6" type="line"/>
      <point x="556.4" y="801.2" type="line"/>
    </contour>
    <component base="l"/>
  </outline>
</glyph>
<glyph name="Eng" format="2">
  <advance height="2479.0" width="1530.6"/>
  <unicode hex="014A"/>
  <anchor x="672.2" y="0.0" name="bottom"/>
  <anchor x="1284.2" y="0.0" name="right"/>
  <anchor x="951.2" y="1676.0" name="top"/>
  <outline>
    <contour>
      <point x="1066.0" y="0.0" type="line"/>
      <point x="1047.0" y="-98.6" type="line" smooth="yes"/>
      <point x="1025.0" y="-207.79999999999998"/>
      <point x="952.2" y="-246.4"/>
      <point x="855.4" y="-246.4" type="curve" smooth="yes"/>
      <point x="829.6" y="-246.4"/>
      <point x="803.1999999999999" y="-242.8"/>
      <point x="783.5999999999999" y="-238.6" type="curve"/>
      <point x="755.1999999999999" y="-415.2" type="line"/>
      <point x="782.0" y="-424.8"/>
      <point x="821.8000000000001" y="-426.6"/>
      <point x="856.0" y="-426.6" type="curve" smooth="yes"/>
      <point x="1053.4" y="-426.6"/>
      <point x="1214.3999999999999" y="-320.6"/>
      <point x="1253.8" y="-99.2" type="curve" smooth="yes"/>
      <point x="1272.8" y="0.0" type="line"/>
    </contour>
    <component base="N"/>
  </outline>
</glyph>
<glyph name="eng" format="2">
  <advance height="2479.0" width="1225.6000000000001"/>
  <unicode hex="014B"/>
  <anchor x="519.4" y="0.0" name="bottom"/>
  <anchor x="734.4" y="1303.0" name="top"/>
  <outline>
    <contour>
      <point x="769.6" y="4.6000000000000005" type="line"/>
      <point x="751.8000000000001" y="-96.60000000000001" type="line" smooth="yes"/>
      <point x="734.2" y="-200.6"/>
      <point x="666.8" y="-236.0"/>
      <point x="576.8000000000001" y="-236.0" type="curve" smooth="yes"/>
      <point x="552.0" y="-236.0"/>
      <point x="528.2" y="-232.4"/>
      <point x="509.99999999999994" y="-228.2" type="curve"/>
      <point x="474.19999999999993" y="-408.8" type="line"/>
      <point x="505.40000000000003" y="-418.4"/>
      <point x="548.0" y="-419.0"/>
      <point x="589.4" y="-419.0" type="curve" smooth="yes"/>
      <point x="777.4" y="-419.0"/>
      <point x="932.2" y="-312.79999999999995"/>
      <point x="969.6000000000001" y="-96.4" type="curve" smooth="yes"/>
      <point x="986.8000000000001" y="5.6000000000000005" type="line"/>
    </contour>
    <component base="n"/>
  </outline>
</glyph>
<glyph name="OE" format="2">
  <advance height="2479.0" width="1995.0"/>
  <unicode hex="0152"/>
  <anchor x="1285.8" y="0.0" name="bottom"/>
  <anchor x="1288.8" y="0.0" name="cedilla"/>
  <anchor x="1773.1999999999998" y="0.0" name="ogonek"/>
  <anchor x="1032.3999999999999" y="1489.0" name="tonos"/>
  <anchor x="1576.8" y="1676.0" name="top"/>
  <outline>
    <contour>
      <point x="685.0" y="0.0" type="curve" smooth="yes"/>
      <point x="919.0" y="0.0" type="line"/>
      <point x="953.4000000000001" y="193.2" type="line"/>
      <point x="719.2" y="193.2" type="line" smooth="yes"/>
      <point x="455.59999999999997" y="193.2"/>
      <point x="309.8" y="399.4"/>
      <point x="368.0" y="744.4" type="curve" smooth="yes"/>
      <point x="425.0" y="1091.2"/>
      <point x="637.4" y="1296.0"/>
      <point x="900.2" y="1296.0" type="curve" smooth="yes"/>
      <point x="1134.2" y="1296.0" type="line"/>
      <point x="1166.2" y="1489.0" type="line"/>
      <point x="932.8" y="1489.0" type="line" smooth="yes"/>
      <point x="542.0" y="1489.0"/>
      <point x="220.8" y="1204.6"/>
      <point x="145.79999999999998" y="744.4" type="curve" smooth="yes"/>
      <point x="70.0" y="287.2"/>
      <point x="295.0" y="0.0"/>
    </contour>
    <component base="E" xOffset="760.1999999999999"/>
  </outline>
</glyph>
<glyph name="tbar" format="2">
  <advance height="2479.0" width="762.0"/>
  <unicode hex="0167"/>
  <anchor x="328.6" y="0.0" name="bottom"/>
  <anchor x="421.2" y="0.0" name="cedilla"/>
  <anchor x="728.4" y="1562.0" name="raccent"/>
  <anchor x="487.0" y="1499.6" name="top"/>
  <outline>
    <contour>
      <point x="66.19999999999999" y="594.2" type="line"/>
      <point x="676.6" y="594.2" type="line"/>
      <point x="700.2" y="732.8" type="line"/>
      <point x="89.8" y="732.8" type="line"/>
    </contour>
    <component base="t" xOffset="0.2"/>
  </outline>
</glyph>
<glyph name="Bhook" format="2">
  <advance height="2479.0" width="1686.3999999999999"/>
  <unicode hex="0181"/>
  <anchor x="903.8000000000001" y="0.0" name="bottom"/>
  <anchor x="1176.1999999999998" y="1676.0" name="top"/>
  <outline>
    <contour>
      <point x="721.8000000000001" y="1296.6" type="line"/>
      <point x="753.0" y="1489.0" type="line"/>
      <point x="584.0" y="1489.0" type="line" smooth="yes"/>
      <point x="368.59999999999997" y="1489.0"/>
      <point x="218.4" y="1350.6"/>
      <point x="190.39999999999998" y="1163.8" type="curve" smooth="yes"/>
      <point x="172.39999999999998" y="1049.2" type="line"/>
      <point x="378.59999999999997" y="1049.2" type="line"/>
      <point x="389.4" y="1114.6" type="line" smooth="yes"/>
      <point x="403.0" y="1206.6"/>
      <point x="437.59999999999997" y="1296.6"/>
      <point x="555.2" y="1296.6" type="curve" smooth="yes"/>
    </contour>
    <component base="B" xOffset="347.40000000000003"/>
  </outline>
</glyph>
<glyph name="Btopbar" format="2">
  <advance height="2479.0" width="1338.6000000000001"/>
  <unicode hex="0182"/>
  <outline>
    <contour>
      <point x="70.19999999999999" y="0.0" type="line"/>
      <point x="628.6" y="0.0" type="line" smooth="yes"/>
      <point x="960.5999999999999" y="0.0"/>
      <point x="1180.3999999999999" y="184.8"/>
      <point x="1224.0" y="451.2" type="curve" smooth="yes"/>
      <point x="1268.8" y="717.8"/>
      <point x="1107.6" y="889.0"/>
      <point x="775.2" y="889.0" type="curve" smooth="yes"/>
      <point x="442.6" y="889.0" type="line"/>
      <point x="510.99999999999994" y="1296.0" type="line"/>
      <point x="1214.0" y="1296.0" type="line"/>
      <point x="1245.8" y="1489.0" type="line"/>
      <point x="318.0" y="1489.0" type="line"/>
    </contour>
    <contour>
      <point x="327.2" y="189.0" type="line"/>
      <point x="411.40000000000003" y="699.4" type="line"/>
      <point x="744.0" y="699.4" type="line" smooth="yes"/>
      <point x="937.0" y="699.4"/>
      <point x="1024.8" y="589.0"/>
      <point x="1002.2" y="454.2" type="curve" smooth="yes"/>
      <point x="979.4" y="316.8"/>
      <point x="852.1999999999999" y="189.0"/>
      <point x="659.8000000000001" y="189.0" type="curve" smooth="yes"/>
    </contour>
  </outline>
</glyph>
<glyph name="btopbar" format="2">
  <advance height="2479.0" width="1281.0"/>
  <unicode hex="0183"/>
  <anchor x="552.4" y="0.0" name="bottom"/>
  <anchor x="392.2" y="1280.0" name="cross"/>
  <anchor x="833.2" y="1303.0" name="top"/>
  <outline>
    <contour>
      <point x="1186.0" y="1489.0" type="line"/>
      <point x="477.2" y="1489.0" type="line"/>
      <point x="444.59999999999997" y="1308.2" type="line"/>
      <point x="1156.6" y="1308.2" type="line"/>
    </contour>
    <component base="b"/>
  </outline>
</glyph>
<glyph name="Tonesix" format="2">
  <advance height="2479.0" width="1510.8"/>
  <unicode hex="0184"/>
  <outline>
    <contour>
      <point x="736.6" y="1489.0" type="line"/>
      <point x="176.60000000000002" y="1489.0" type="line"/>
      <point x="144.0" y="1296.0" type="line"/>
      <point x="704.8000000000001" y="1296.0" type="line"/>
    </contour>
    <contour>
      <point x="585.6" y="889.0" type="line"/>
      <point x="554.2" y="699.4" type="line"/>
      <point x="955.2" y="699.4" type="line"/>
      <point x="1147.2" y="699.4"/>
      <point x="1235.0" y="589.0"/>
      <point x="1213.4" y="454.2" type="curve"/>
      <point x="1190.4" y="316.8"/>
      <point x="1063.0" y="189.0"/>
      <point x="871.0" y="189.0" type="curve"/>
      <point x="538.2" y="189.0" type="line"/>
      <point x="754.0" y="1489.0" type="line"/>
      <point x="529.1999999999999" y="1489.0" type="line"/>
      <point x="281.4" y="0.0" type="line"/>
      <point x="839.6" y="0.0" type="line"/>
      <point x="1170.6" y="0.0"/>
      <point x="1390.8" y="184.8"/>
      <point x="1435.2" y="451.2" type="curve"/>
      <point x="1480.2" y="717.8"/>
      <point x="1317.3999999999999" y="889.0"/>
      <point x="986.4" y="889.0" type="curve"/>
    </contour>
  </outline>
</glyph>
<glyph name="tonesix" format="2">
  <advance height="2479.0" width="1261.8"/>
  <unicode hex="0185"/>
  <outline>
    <contour>
      <point x="712.1999999999999" y="-23.0" type="curve" smooth="yes"/>
      <point x="928.2" y="-23.0"/>
      <point x="1094.1999999999998" y="133.20000000000002"/>
      <point x="1140.2" y="408.59999999999997" type="curve" smooth="yes"/>
      <point x="1186.2" y="691.8"/>
      <point x="1050.4" y="847.0"/>
      <point x="854.0" y="847.8000000000001" type="curve" smooth="yes"/>
      <point x="718.0" y="847.0"/>
      <point x="630.1999999999999" y="765.8"/>
      <point x="581.8000000000001" y="685.8000000000001" type="curve"/>
      <point x="573.4" y="685.8000000000001" type="line"/>
      <point x="644.8000000000001" y="1117.0" type="line"/>
      <point x="432.8" y="1117.0" type="line"/>
      <point x="410.6" y="983.8" type="line"/>
      <point x="404.59999999999997" y="983.8" type="line"/>
      <point x="239.79999999999998" y="0.0" type="line"/>
      <point x="452.8" y="0.0" type="line"/>
      <point x="468.20000000000005" y="114.6" type="line"/>
      <point x="480.6" y="114.6" type="line"/>
      <point x="505.8" y="27.0"/>
      <point x="586.5999999999999" y="-23.2"/>
    </contour>
    <contour>
      <point x="675.1999999999999" y="159.0" type="curve" smooth="yes"/>
      <point x="549.4" y="158.8"/>
      <point x="499.79999999999995" y="255.20000000000002"/>
      <point x="526.5999999999999" y="416.6" type="curve" smooth="yes"/>
      <point x="550.4" y="565.6"/>
      <point x="639.0" y="665.8000000000001"/>
      <point x="761.8" y="665.8000000000001" type="curve" smooth="yes"/>
      <point x="889.4000000000001" y="665.8000000000001"/>
      <point x="948.4000000000001" y="562.4"/>
      <point x="921.6" y="407.40000000000003" type="curve" smooth="yes"/>
      <point x="897.6" y="256.79999999999995"/>
      <point x="797.0" y="158.8"/>
    </contour>
    <contour>
      <point x="219.2" y="707.8" type="line"/>
      <point x="544.0" y="983.8" type="line"/>
      <point x="432.8" y="1117.0" type="line"/>
      <point x="108.0" y="840.8" type="line"/>
    </contour>
  </outline>
</glyph>
<glyph name="Chook" format="2">
  <advance height="2479.0" width="1624.2"/>
  <unicode hex="0187"/>
  <anchor x="697.2" y="-8.4" name="cedilla"/>
  <anchor x="974.0" y="1676.0" name="top"/>
  <outline>
    <contour>
      <point x="1473.0" y="1005.4" type="line"/>
      <point x="1500.8" y="1171.0" type="line" smooth="yes"/>
      <point x="1520.3999999999999" y="1296.2"/>
      <point x="1610.0" y="1333.8"/>
      <point x="1702.0" y="1333.8" type="curve" smooth="yes"/>
      <point x="1725.0" y="1333.8"/>
      <point x="1751.2" y="1331.6"/>
      <point x="1768.2" y="1329.2" type="curve"/>
      <point x="1797.0" y="1509.2" type="line"/>
      <point x="1764.6" y="1518.2"/>
      <point x="1724.2" y="1518.2"/>
      <point x="1684.8" y="1518.2" type="curve" smooth="yes"/>
      <point x="1496.8" y="1518.2"/>
      <point x="1323.4" y="1399.2"/>
      <point x="1287.6" y="1184.4" type="curve" smooth="yes"/>
      <point x="1257.4" y="1005.4" type="line"/>
    </contour>
    <component base="C"/>
  </outline>
</glyph>
<glyph name="chook" format="2">
  <advance height="2479.0" width="1273.0"/>
  <unicode hex="0188"/>
  <anchor x="528.4" y="0.0" name="cedilla"/>
  <anchor x="733.8000000000001" y="1303.0" name="top"/>
  <outline>
    <contour>
      <point x="1110.2" y="756.8" type="line"/>
      <point x="1137.3999999999999" y="909.4" type="line" smooth="yes"/>
      <point x="1157.0" y="1020.8"/>
      <point x="1222.4" y="1057.0"/>
      <point x="1312.2" y="1057.0" type="curve" smooth="yes"/>
      <point x="1336.0" y="1057.0"/>
      <point x="1356.8" y="1053.4"/>
      <point x="1375.2" y="1050.4" type="curve"/>
      <point x="1401.6000000000001" y="1215.4" type="line"/>
      <point x="1372.0" y="1225.6"/>
      <point x="1332.2" y="1227.4"/>
      <point x="1295.8000000000002" y="1227.4" type="curve" smooth="yes"/>
      <point x="1116.8000000000002" y="1227.4"/>
      <point x="963.2" y="1112.2"/>
      <point x="927.8000000000001" y="910.0" type="curve" smooth="yes"/>
      <point x="899.8000000000001" y="756.8" type="line"/>
    </contour>
    <component base="c"/>
  </outline>
</glyph>
<glyph name="Dhook" format="2">
  <advance height="2479.0" width="1835.3999999999999"/>
  <unicode hex="018A"/>
  <anchor x="822.8000000000001" y="0.0" name="bottom"/>
  <anchor x="696.6" y="772.0" name="cross"/>
  <anchor x="1304.8" y="1676.0" name="top"/>
  <outline>
    <contour>
      <point x="172.39999999999998" y="1049.2" type="line"/>
      <point x="378.59999999999997" y="1049.2" type="line"/>
      <point x="389.4" y="1114.6" type="line" smooth="yes"/>
      <point x="403.4" y="1206.6"/>
      <point x="435.79999999999995" y="1292.4"/>
      <point x="554.0" y="1292.4" type="curve" smooth="yes"/>
      <point x="720.6" y="1292.4" type="line"/>
      <point x="753.0" y="1489.0" type="line"/>
      <point x="584.0" y="1489.0" type="line" smooth="yes"/>
      <point x="368.0" y="1489.0"/>
      <point x="217.8" y="1350.6"/>
      <point x="190.39999999999998" y="1163.8" type="curve" smooth="yes"/>
    </contour>
    <component base="D" xOffset="357.6"/>
  </outline>
</glyph>
<glyph name="Dtopbar" format="2">
  <advance height="2479.0" width="1342.3999999999999"/>
  <unicode hex="018B"/>
  <outline>
    <contour>
      <point x="537.6" y="0.0" type="curve" smooth="yes"/>
      <point x="1088.0" y="0.0" type="line"/>
      <point x="1334.1999999999998" y="1489.0" type="line"/>
      <point x="405.6" y="1489.0" type="line"/>
      <point x="374.0" y="1296.0" type="line"/>
      <point x="1077.8" y="1296.0" type="line"/>
      <point x="1010.4" y="889.0" type="line"/>
      <point x="671.8" y="889.0" type="line" smooth="yes"/>
      <point x="339.8" y="889.0"/>
      <point x="129.8" y="725.1999999999999"/>
      <point x="86.0" y="466.2" type="curve" smooth="yes"/>
      <point x="41.4" y="192.20000000000002"/>
      <point x="205.6" y="0.0"/>
    </contour>
    <contour>
      <point x="555.0" y="189.0" type="line" smooth="yes"/>
      <point x="363.6" y="189.0"/>
      <point x="283.20000000000005" y="309.40000000000003"/>
      <point x="304.8" y="440.2" type="curve" smooth="yes"/>
      <point x="328.6" y="581.6"/>
      <point x="460.6" y="699.4"/>
      <point x="652.8" y="699.4" type="curve" smooth="yes"/>
      <point x="978.6" y="699.4" type="line"/>
      <point x="894.6" y="189.0" type="line"/>
    </contour>
  </outline>
</glyph>
<glyph name="dtopbar" format="2">
  <advance height="2479.0" width="1281.8"/>
  <unicode hex="018C"/>
  <anchor x="510.4" y="0.0" name="bottom"/>
  <anchor x="1127.6" y="1280.0" name="cross"/>
  <anchor x="688.8" y="1303.0" name="top"/>
  <outline>
    <contour>
      <point x="403.0" y="1489.0" type="line"/>
      <point x="373.4" y="1308.2" type="line"/>
      <point x="1083.1999999999998" y="1308.2" type="line"/>
      <point x="1112.6" y="1489.0" type="line"/>
    </contour>
    <contour>
      <point x="1024.8" y="0.0" type="line"/>
      <point x="1271.8" y="1489.0" type="line"/>
      <point x="1053.8" y="1489.0" type="line"/>
      <point x="962.1999999999999" y="936.4" type="line"/>
      <point x="949.0" y="936.4" type="line"/>
      <point x="922.6" y="1005.6"/>
      <point x="868.8" y="1132.0"/>
      <point x="660.4000000000001" y="1132.0" type="curve" smooth="yes"/>
      <point x="390.59999999999997" y="1132.0"/>
      <point x="156.4" y="919.0"/>
      <point x="97.4" y="556.6" type="curve" smooth="yes"/>
      <point x="37.400000000000006" y="195.2"/>
      <point x="197.8" y="-21.4"/>
      <point x="468.79999999999995" y="-21.4" type="curve" smooth="yes"/>
      <point x="672.1999999999999" y="-21.4"/>
      <point x="772.4" y="102.8"/>
      <point x="823.8" y="174.2" type="curve"/>
      <point x="841.6" y="174.2" type="line"/>
      <point x="812.2" y="0.0" type="line"/>
    </contour>
    <contour>
      <point x="904.0" y="559.0" type="curve" smooth="yes"/>
      <point x="865.0" y="323.2"/>
      <point x="734.6" y="163.6"/>
      <point x="547.0" y="163.6" type="curve" smooth="yes"/>
      <point x="352.79999999999995" y="163.6"/>
      <point x="280.0" y="334.6"/>
      <point x="316.8" y="559.0" type="curve" smooth="yes"/>
      <point x="354.40000000000003" y="780.0"/>
      <point x="480.0" y="946.2"/>
      <point x="677.2" y="946.2" type="curve" smooth="yes"/>
      <point x="866.6" y="946.2"/>
      <point x="943.2" y="792.0"/>
    </contour>
  </outline>
</glyph>
<glyph name="deltaturned" format="2">
  <advance height="2479.0" width="1192.4"/>
  <unicode hex="018D"/>
  <outline>
    <contour>
      <point x="431.19999999999993" y="-450.4" type="curve" smooth="yes"/>
      <point x="655.6" y="-450.4"/>
      <point x="824.2" y="-341.59999999999997"/>
      <point x="851.4" y="-177.4" type="curve" smooth="yes"/>
      <point x="871.4" y="-51.199999999999996"/>
      <point x="814.0" y="57.4"/>
      <point x="699.2" y="112.8" type="curve"/>
      <point x="701.4" y="119.0" type="line"/>
      <point x="902.0" y="167.0"/>
      <point x="1061.6000000000001" y="348.8"/>
      <point x="1101.8" y="590.6" type="curve" smooth="yes"/>
      <point x="1154.6000000000001" y="910.2"/>
      <point x="982.6" y="1130.4"/>
      <point x="679.2" y="1130.4" type="curve" smooth="yes"/>
      <point x="382.0" y="1130.4"/>
      <point x="156.0" y="917.8"/>
      <point x="108.60000000000001" y="625.6" type="curve" smooth="yes"/>
      <point x="59.6" y="335.2"/>
      <point x="207.00000000000003" y="123.80000000000001"/>
      <point x="456.59999999999997" y="35.800000000000004" type="curve" smooth="yes"/>
      <point x="581.0" y="-16.799999999999997"/>
      <point x="648.6" y="-84.8"/>
      <point x="638.6" y="-146.0" type="curve" smooth="yes"/>
      <point x="626.4" y="-218.6"/>
      <point x="536.6" y="-272.0"/>
      <point x="428.2" y="-272.0" type="curve" smooth="yes"/>
      <point x="360.8" y="-272.0"/>
      <point x="262.6" y="-250.0"/>
      <point x="172.99999999999997" y="-210.6" type="curve"/>
      <point x="153.59999999999997" y="-398.40000000000003" type="line"/>
      <point x="233.60000000000002" y="-428.8"/>
      <point x="333.0" y="-450.4"/>
    </contour>
    <contour>
      <point x="525.1999999999999" y="212.6" type="curve"/>
      <point x="363.2" y="247.4"/>
      <point x="288.4" y="391.0"/>
      <point x="321.2" y="591.2" type="curve" smooth="yes"/>
      <point x="352.8" y="783.0"/>
      <point x="486.4" y="948.4"/>
      <point x="672.0" y="948.4" type="curve" smooth="yes"/>
      <point x="845.8" y="948.4"/>
      <point x="916.8" y="798.6"/>
      <point x="883.6" y="597.0" type="curve" smooth="yes"/>
      <point x="845.6" y="369.0"/>
      <point x="708.4" y="214.0"/>
    </contour>
  </outline>
</glyph>
<glyph name="Schwa" format="2">
  <advance height="2479.0" width="1578.4"/>
  <unicode hex="018F"/>
  <outline>
    <contour>
      <point x="703.1999999999999" y="-20.0" type="curve" smooth="yes"/>
      <point x="1100.8" y="-20.0"/>
      <point x="1415.0" y="265.8"/>
      <point x="1491.8" y="729.6" type="curve" smooth="yes"/>
      <point x="1571.8" y="1212.0"/>
      <point x="1334.2" y="1510.0"/>
      <point x="942.4" y="1510.0" type="curve" smooth="yes"/>
      <point x="626.6" y="1510.0"/>
      <point x="351.8" y="1309.0"/>
      <point x="253.8" y="1018.8" type="curve"/>
      <point x="484.4" y="1018.8" type="line"/>
      <point x="569.4" y="1196.0"/>
      <point x="727.4" y="1304.4"/>
      <point x="930.5999999999999" y="1304.4" type="curve" smooth="yes"/>
      <point x="1177.3999999999999" y="1304.4"/>
      <point x="1333.2" y="1113.3999999999999"/>
      <point x="1273.8000000000002" y="759.6" type="curve" smooth="yes"/>
      <point x="1213.4" y="391.0"/>
      <point x="981.2" y="184.8"/>
      <point x="712.1999999999999" y="184.8" type="curve" smooth="yes"/>
      <point x="476.8" y="184.8"/>
      <point x="347.8" y="333.6"/>
      <point x="388.0" y="580.4" type="curve"/>
      <point x="329.59999999999997" y="576.8" type="line"/>
      <point x="1360.8000000000002" y="576.8" type="line"/>
      <point x="1391.2" y="762.4" type="line"/>
      <point x="200.79999999999998" y="762.4" type="line"/>
      <point x="174.39999999999998" y="600.6" type="line" smooth="yes"/>
      <point x="111.2" y="223.8"/>
      <point x="335.2" y="-20.0"/>
    </contour>
  </outline>
</glyph>
<glyph name="Eopen" format="2">
  <advance height="2479.0" width="1318.6000000000001"/>
  <unicode hex="0190"/>
  <outline>
    <contour>
      <point x="566.8000000000001" y="-23.0" type="curve" smooth="yes"/>
      <point x="861.2" y="-23.0"/>
      <point x="1126.4" y="117.0"/>
      <point x="1174.1999999999998" y="404.0" type="curve"/>
      <point x="953.6" y="404.0" type="line"/>
      <point x="933.4" y="280.8"/>
      <point x="784.1999999999999" y="181.8"/>
      <point x="584.0" y="181.8" type="curve" smooth="yes"/>
      <point x="424.4" y="181.8"/>
      <point x="288.8" y="245.2"/>
      <point x="316.6" y="410.6" type="curve" smooth="yes"/>
      <point x="342.40000000000003" y="572.6"/>
      <point x="488.8" y="657.4"/>
      <point x="682.0" y="657.4" type="curve" smooth="yes"/>
      <point x="845.4000000000001" y="657.4" type="line"/>
      <point x="867.4000000000001" y="801.6" type="line"/>
      <point x="673.6" y="801.6" type="line"/>
      <point x="346.4" y="801.6"/>
      <point x="136.6" y="672.4"/>
      <point x="94.39999999999999" y="417.40000000000003" type="curve" smooth="yes"/>
      <point x="43.99999999999999" y="116.80000000000001"/>
      <point x="268.6" y="-23.0"/>
    </contour>
    <contour>
      <point x="671.1999999999999" y="710.4" type="curve"/>
      <point x="852.2" y="710.4" type="line"/>
      <point x="876.8000000000001" y="857.8" type="line"/>
      <point x="702.1999999999999" y="857.8" type="line" smooth="yes"/>
      <point x="510.6" y="857.8"/>
      <point x="434.6" y="958.1999999999999"/>
      <point x="453.6" y="1073.0" type="curve" smooth="yes"/>
      <point x="476.20000000000005" y="1209.1999999999998"/>
      <point x="613.8" y="1304.4"/>
      <point x="796.8000000000001" y="1304.4" type="curve" smooth="yes"/>
      <point x="962.6" y="1304.4"/>
      <point x="1064.0" y="1222.4"/>
      <point x="1043.6" y="1104.0" type="curve"/>
      <point x="1269.0" y="1104.0" type="line"/>
      <point x="1309.6" y="1351.2"/>
      <point x="1116.6" y="1510.0"/>
      <point x="807.0" y="1510.0" type="curve" smooth="yes"/>
      <point x="513.6" y="1510.0"/>
      <point x="274.4" y="1362.8000000000002"/>
      <point x="232.8" y="1115.4" type="curve" smooth="yes"/>
      <point x="191.6" y="863.8"/>
      <point x="377.8" y="711.2"/>
    </contour>
  </outline>
</glyph>
<glyph name="Fhook" format="2">
  <advance height="2479.0" width="1216.2"/>
  <unicode hex="0191"/>
  <anchor x="501.2" y="12.0" name="bottom"/>
  <anchor x="253.79999999999998" y="329.2" name="cross"/>
  <anchor x="843.6" y="1676.0" name="top"/>
  <outline>
    <contour>
      <point x="86.4" y="0.0" type="line"/>
      <point x="71.80000000000001" y="-99.8" type="line" smooth="yes"/>
      <point x="54.800000000000004" y="-210.20000000000002"/>
      <point x="-23.599999999999994" y="-237.6"/>
      <point x="-105.6" y="-237.6" type="curve" smooth="yes"/>
      <point x="-130.39999999999998" y="-237.6"/>
      <point x="-152.8" y="-235.8"/>
      <point x="-167.8" y="-232.8" type="curve"/>
      <point x="-196.20000000000002" y="-410.6" type="line"/>
      <point x="-165.79999999999998" y="-419.0"/>
      <point x="-130.4" y="-419.0"/>
      <point x="-108.2" y="-419.0" type="curve" smooth="yes"/>
      <point x="96.4" y="-419.0"/>
      <point x="256.8" y="-327.4"/>
      <point x="294.2" y="-102.2" type="curve" smooth="yes"/>
      <point x="312.2" y="0.0" type="line"/>
    </contour>
    <component base="F" xOffset="16.200000000000003"/>
  </outline>
</glyph>
<glyph name="florin" format="2">
  <advance height="2479.0" width="847.4"/>
  <unicode hex="0192"/>
  <outline>
    <contour>
      <point x="803.8" y="1082.0" type="line"/>
      <point x="595.2" y="1082.0" type="line"/>
      <point x="611.2" y="1186.6" type="line" smooth="yes"/>
      <point x="630.6" y="1302.4"/>
      <point x="699.8" y="1360.6"/>
      <point x="808.8" y="1360.6" type="curve" smooth="yes"/>
      <point x="848.1999999999999" y="1360.6"/>
      <point x="874.1999999999999" y="1355.2"/>
      <point x="894.0" y="1349.2" type="curve"/>
      <point x="963.4" y="1531.8" type="line"/>
      <point x="924.0" y="1545.6"/>
      <point x="854.5999999999999" y="1556.0"/>
      <point x="796.2" y="1556.0" type="curve" smooth="yes"/>
      <point x="592.6" y="1556.0"/>
      <point x="430.4" y="1426.4"/>
      <point x="391.0" y="1186.6" type="curve" smooth="yes"/>
      <point x="375.0" y="1082.0" type="line"/>
      <point x="198.2" y="1082.0" type="line"/>
      <point x="168.79999999999998" y="910.2" type="line"/>
      <point x="344.8" y="910.2" type="line"/>
      <point x="186.0" y="-57.2" type="line" smooth="yes"/>
      <point x="168.2" y="-165.2"/>
      <point x="107.6" y="-231.0"/>
      <point x="25.200000000000006" y="-231.0" type="curve" smooth="yes"/>
      <point x="4.6000000000000005" y="-231.0"/>
      <point x="-48.800000000000004" y="-227.4"/>
      <point x="-69.60000000000001" y="-219.2" type="curve"/>
      <point x="-115.2" y="-404.0" type="line"/>
      <point x="-71.8" y="-416.0"/>
      <point x="-36.2" y="-419.0"/>
      <point x="7.800000000000011" y="-419.0" type="curve" smooth="yes"/>
      <point x="223.0" y="-419.0"/>
      <point x="367.4" y="-291.8"/>
      <point x="406.2" y="-57.2" type="curve" smooth="yes"/>
      <point x="565.8000000000001" y="910.2" type="line"/>
      <point x="773.6" y="910.2" type="line"/>
    </contour>
  </outline>
</glyph>
<glyph name="Ghook" format="2">
  <advance height="2479.0" width="1625.3999999999999"/>
  <unicode hex="0193"/>
  <anchor x="683.1999999999999" y="1.2000000000000002" name="bottom"/>
  <anchor x="964.6" y="1676.0" name="top"/>
  <outline>
    <contour>
      <point x="1475.2" y="1018.8" type="line"/>
      <point x="1506.0" y="1199.0" type="line" smooth="yes"/>
      <point x="1525.4" y="1316.8"/>
      <point x="1607.0" y="1348.4"/>
      <point x="1704.3999999999999" y="1348.4" type="curve" smooth="yes"/>
      <point x="1726.6" y="1348.4"/>
      <point x="1749.0" y="1344.8"/>
      <point x="1767.0" y="1342.6" type="curve"/>
      <point x="1795.8000000000002" y="1521.4" type="line"/>
      <point x="1764.8" y="1531.6"/>
      <point x="1723.8000000000002" y="1533.4"/>
      <point x="1684.0" y="1533.4" type="curve" smooth="yes"/>
      <point x="1479.0" y="1533.4"/>
      <point x="1327.0" y="1413.8"/>
      <point x="1282.8" y="1199.0" type="curve" smooth="yes"/>
      <point x="1246.2" y="1018.8" type="line"/>
    </contour>
    <component base="G"/>
  </outline>
</glyph>
<glyph name="Gamma-latin" format="2">
  <advance height="2479.0" width="1369.8"/>
  <unicode hex="0194"/>
  <outline>
    <contour>
      <point x="191.0" y="1489.0" type="line"/>
      <point x="583.0" y="124.2" type="line" smooth="yes"/>
      <point x="627.2" y="-33.0"/>
      <point x="649.6" y="-118.0"/>
      <point x="640.6" y="-181.6" type="curve" smooth="yes"/>
      <point x="634.2" y="-225.8"/>
      <point x="598.4000000000001" y="-260.4"/>
      <point x="551.2" y="-260.4" type="curve" smooth="yes"/>
      <point x="503.79999999999995" y="-260.4"/>
      <point x="478.80000000000007" y="-228.0"/>
      <point x="484.20000000000005" y="-182.0" type="curve" smooth="yes"/>
      <point x="493.20000000000005" y="-118.39999999999999"/>
      <point x="552.8000000000001" y="-29.2"/>
      <point x="647.4" y="124.2" type="curve" smooth="yes"/>
      <point x="1487.6000000000001" y="1489.0" type="line"/>
      <point x="1238.8" y="1489.0" type="line"/>
      <point x="564.2" y="363.2" type="line" smooth="yes"/>
      <point x="357.0" y="21.4"/>
      <point x="274.0" y="-89.0"/>
      <point x="257.59999999999997" y="-186.4" type="curve" smooth="yes"/>
      <point x="230.6" y="-349.4"/>
      <point x="332.2" y="-442.0"/>
      <point x="519.2" y="-442.0" type="curve" smooth="yes"/>
      <point x="705.6" y="-442.0"/>
      <point x="836.5999999999999" y="-347.0"/>
      <point x="863.0" y="-188.6" type="curve" smooth="yes"/>
      <point x="880.0" y="-88.39999999999999"/>
      <point x="820.0" y="61.0"/>
      <point x="736.4" y="363.0" type="curve" smooth="yes"/>
      <point x="439.2" y="1489.0" type="line"/>
    </contour>
  </outline>
</glyph>
<glyph name="hv" format="2">
  <advance height="2479.0" width="1999.4"/>
  <unicode hex="0195"/>
  <outline>
    <contour>
      <point x="53.6" y="0.0" type="line"/>
      <point x="271.40000000000003" y="0.0" type="line"/>
      <point x="380.40000000000003" y="663.2" type="line" smooth="yes"/>
      <point x="412.2" y="841.4"/>
      <point x="541.6" y="942.8"/>
      <point x="695.6" y="942.8" type="curve" smooth="yes"/>
      <point x="844.0" y="942.8"/>
      <point x="919.0" y="848.6"/>
      <point x="892.2" y="684.0" type="curve" smooth="yes"/>
      <point x="870.6" y="559.0" type="line"/>
      <point x="1088.6" y="559.0" type="line"/>
      <point x="1114.6" y="710.6" type="line" smooth="yes"/>
      <point x="1160.2" y="989.8"/>
      <point x="1030.3999999999999" y="1132.0"/>
      <point x="801.8000000000001" y="1132.0" type="curve" smooth="yes"/>
      <point x="626.8" y="1132.0"/>
      <point x="508.4" y="1056.6"/>
      <point x="437.79999999999995" y="935.4" type="curve"/>
      <point x="424.4" y="935.4" type="line"/>
      <point x="515.6" y="1489.0" type="line"/>
      <point x="300.6" y="1489.0" type="line"/>
    </contour>
    <contour>
      <point x="1173.6" y="-20.0" type="curve" smooth="yes"/>
      <point x="1505.6" y="-20.0"/>
      <point x="1770.2" y="282.2"/>
      <point x="1885.4" y="975.2" type="curve" smooth="yes"/>
      <point x="1909.8" y="1117.0" type="line"/>
      <point x="1692.6" y="1117.0" type="line"/>
      <point x="1668.4" y="975.2" type="line" smooth="yes"/>
      <point x="1572.0" y="393.8"/>
      <point x="1394.6000000000001" y="165.8"/>
      <point x="1217.4" y="165.8" type="curve" smooth="yes"/>
      <point x="1132.6000000000001" y="165.8"/>
      <point x="1030.4" y="214.6"/>
      <point x="1068.4" y="439.8" type="curve" smooth="yes"/>
      <point x="1088.6" y="559.0" type="line"/>
      <point x="870.6" y="559.0" type="line"/>
      <point x="850.6" y="439.8" type="line" smooth="yes"/>
      <point x="800.0" y="128.0"/>
      <point x="940.1999999999999" y="-20.0"/>
    </contour>
  </outline>
</glyph>
<glyph name="Khook" format="2">
  <advance height="2479.0" width="1415.0"/>
  <unicode hex="0198"/>
  <outline>
    <contour>
      <point x="70.19999999999999" y="0.0" type="line"/>
      <point x="295.8" y="0.0" type="line"/>
      <point x="371.2" y="450.40000000000003" type="line"/>
      <point x="589.8" y="654.2" type="line"/>
      <point x="972.0" y="0.0" type="line"/>
      <point x="1243.0" y="0.0" type="line"/>
      <point x="756.2" y="811.8" type="line"/>
      <point x="1227.2" y="1238.6" type="line" smooth="yes"/>
      <point x="1310.8" y="1313.6"/>
      <point x="1375.2" y="1326.4"/>
      <point x="1436.6" y="1284.8" type="curve"/>
      <point x="1546.6" y="1448.4" type="line"/>
      <point x="1420.0" y="1541.2"/>
      <point x="1252.2" y="1528.0"/>
      <point x="1101.0" y="1389.8" type="curve" smooth="yes"/>
      <point x="443.8" y="783.4" type="line"/>
      <point x="426.2" y="783.4" type="line"/>
      <point x="543.0" y="1489.0" type="line"/>
      <point x="318.0" y="1489.0" type="line"/>
    </contour>
  </outline>
</glyph>
<glyph name="khook" format="2">
  <advance height="2479.0" width="1121.2"/>
  <unicode hex="0199"/>
  <outline>
    <contour>
      <point x="755.6" y="0.0" type="line"/>
      <point x="1006.8" y="0.0" type="line"/>
      <point x="641.6" y="640.0" type="line"/>
      <point x="1152.8" y="1117.0" type="line"/>
      <point x="887.2" y="1117.0" type="line"/>
      <point x="393.4" y="651.2" type="line"/>
      <point x="378.40000000000003" y="651.2" type="line"/>
      <point x="458.8" y="1137.8" type="line"/>
      <point x="240.8" y="1137.8" type="line"/>
      <point x="53.0" y="0.0" type="line"/>
      <point x="270.8" y="0.0" type="line"/>
      <point x="328.40000000000003" y="346.4" type="line"/>
      <point x="477.4" y="483.0" type="line"/>
    </contour>
    <contour>
      <point x="442.6" y="1034.6" type="line"/>
      <point x="468.0" y="1193.2" type="line" smooth="yes"/>
      <point x="487.4" y="1300.2"/>
      <point x="564.2" y="1330.2"/>
      <point x="652.4" y="1330.2" type="curve" smooth="yes"/>
      <point x="675.1999999999999" y="1330.2"/>
      <point x="697.0" y="1328.0"/>
      <point x="712.8000000000001" y="1325.0" type="curve"/>
      <point x="743.0" y="1500.4" type="line"/>
      <point x="713.6" y="1508.2"/>
      <point x="669.8" y="1510.0"/>
      <point x="624.8" y="1510.0" type="curve" smooth="yes"/>
      <point x="453.2" y="1510.0"/>
      <point x="288.4" y="1417.2"/>
      <point x="251.0" y="1193.2" type="curve" smooth="yes"/>
      <point x="224.8" y="1034.6" type="line"/>
    </contour>
  </outline>
</glyph>
<glyph name="lambdastroke" format="2">
  <advance height="2479.0" width="1214.0"/>
  <unicode hex="019B"/>
  <outline>
    <contour>
      <point x="275.8" y="1028.0" type="line"/>
      <point x="845.4000000000001" y="1220.3999999999999" type="line"/>
      <point x="876.0" y="1400.3999999999999" type="line"/>
      <point x="305.2" y="1206.8" type="line"/>
    </contour>
    <component base="lambda"/>
  </outline>
</glyph>
<glyph name="Mturned" format="2">
  <advance height="2479.0" width="1884.8"/>
  <unicode hex="019C"/>
  <outline>
    <contour>
      <point x="442.40000000000003" y="-22.8" type="curve" smooth="yes"/>
      <point x="736.2" y="-22.8"/>
      <point x="889.8" y="194.79999999999998"/>
      <point x="940.1999999999999" y="498.6" type="curve"/>
      <point x="846.4000000000001" y="510.4" type="line"/>
      <point x="815.8000000000001" y="323.40000000000003"/>
      <point x="712.6" y="171.6"/>
      <point x="526.1999999999999" y="171.6" type="curve" smooth="yes"/>
      <point x="417.4" y="171.6"/>
      <point x="332.0" y="222.6"/>
      <point x="366.6" y="428.8" type="curve" smooth="yes"/>
      <point x="542.0" y="1489.0" type="line"/>
      <point x="317.0" y="1489.0" type="line"/>
      <point x="143.39999999999998" y="443.59999999999997" type="line" smooth="yes"/>
      <point x="87.6" y="104.60000000000001"/>
      <point x="217.2" y="-22.8"/>
    </contour>
    <contour>
      <point x="1108.6000000000001" y="-22.8" type="curve" smooth="yes"/>
      <point x="1399.0" y="-22.8"/>
      <point x="1551.0" y="196.6"/>
      <point x="1601.8" y="498.6" type="curve"/>
      <point x="1509.2" y="510.4" type="line"/>
      <point x="1477.8" y="324.0"/>
      <point x="1377.8" y="171.6"/>
      <point x="1190.6000000000001" y="171.6" type="curve" smooth="yes"/>
      <point x="1081.8" y="171.6"/>
      <point x="997.4000000000001" y="222.6"/>
      <point x="1031.2" y="428.8" type="curve"/>
      <point x="1207.2" y="1489.0" type="line"/>
      <point x="981.6" y="1489.0" type="line"/>
      <point x="808.8" y="443.59999999999997" type="line"/>
      <point x="751.8" y="101.60000000000001"/>
      <point x="891.1999999999999" y="-22.8"/>
    </contour>
    <contour>
      <point x="1403.0" y="0.0" type="line"/>
      <point x="1628.0" y="0.0" type="line"/>
      <point x="1874.8" y="1489.0" type="line"/>
      <point x="1650.0" y="1489.0" type="line"/>
    </contour>
  </outline>
</glyph>
<glyph name="Nhookleft" format="2">
  <advance height="2479.0" width="1552.2"/>
  <unicode hex="019D"/>
  <anchor x="693.8" y="0.0" name="bottom"/>
  <anchor x="1305.8" y="0.0" name="right"/>
  <anchor x="972.8" y="1676.0" name="top"/>
  <outline>
    <contour>
      <point x="91.80000000000001" y="0.0" type="line"/>
      <point x="74.60000000000001" y="-99.8" type="line" smooth="yes"/>
      <point x="55.80000000000001" y="-207.0"/>
      <point x="-18.800000000000004" y="-237.6"/>
      <point x="-109.2" y="-237.6" type="curve" smooth="yes"/>
      <point x="-128.0" y="-237.6"/>
      <point x="-150.39999999999998" y="-235.8"/>
      <point x="-167.4" y="-232.8" type="curve"/>
      <point x="-195.8" y="-410.6" type="line"/>
      <point x="-163.4" y="-417.4"/>
      <point x="-110.39999999999999" y="-421.4"/>
      <point x="-66.19999999999999" y="-421.4" type="curve" smooth="yes"/>
      <point x="106.0" y="-421.4"/>
      <point x="252.4" y="-338.4"/>
      <point x="297.0" y="-102.2" type="curve" smooth="yes"/>
      <point x="316.6" y="0.0" type="line"/>
    </contour>
    <component base="N" xOffset="21.6"/>
  </outline>
</glyph>
<glyph name="Ohorn" format="2">
  <advance height="2479.0" width="1611.8"/>
  <unicode hex="01A0"/>
  <anchor x="702.6" y="4.8" name="bottom"/>
  <anchor x="859.0" y="1.2000000000000002" name="ogonek"/>
  <anchor x="328.40000000000003" y="1489.0" name="tonos"/>
  <anchor x="970.6" y="1676.0" name="top"/>
  <outline>
    <contour>
      <point x="1575.3999999999999" y="1585.4" type="line"/>
      <point x="1546.6" y="1412.4"/>
      <point x="1471.0" y="1311.0"/>
      <point x="1323.1999999999998" y="1311.0" type="curve"/>
      <point x="1299.0" y="1163.2" type="line"/>
      <point x="1559.8" y="1163.2"/>
      <point x="1711.6" y="1316.4"/>
      <point x="1756.6" y="1585.4" type="curve"/>
    </contour>
    <component base="O"/>
  </outline>
</glyph>
<glyph name="ohorn" format="2">
  <advance height="2479.0" width="1250.6000000000001"/>
  <unicode hex="01A1"/>
  <anchor x="524.5999999999999" y="0.0" name="bottom"/>
  <anchor x="660.1999999999999" y="0.0" name="ogonek"/>
  <anchor x="740.4" y="1303.0" name="top"/>
  <outline>
    <contour>
      <point x="1186.0" y="1194.6" type="line"/>
      <point x="1159.6" y="1045.0"/>
      <point x="1120.0" y="947.2"/>
      <point x="971.8000000000001" y="947.2" type="curve"/>
      <point x="950.4000000000001" y="824.6" type="line"/>
      <point x="1198.8" y="824.6"/>
      <point x="1316.0" y="965.6"/>
      <point x="1354.2" y="1194.6" type="curve"/>
    </contour>
    <component base="o"/>
  </outline>
</glyph>
<glyph name="Oi" format="2">
  <advance height="2479.0" width="1819.0"/>
  <unicode hex="01A2"/>
  <outline>
    <contour>
      <point x="1312.6" y="800.4" type="line" name="hr00"/>
      <point x="1078.6" y="800.4" type="line"/>
      <point x="989.5999999999999" y="268.0" type="line"/>
      <point x="920.2" y="207.4"/>
      <point x="815.0" y="174.2"/>
      <point x="701.5999999999999" y="174.2" type="curve" smooth="yes"/>
      <point x="425.8" y="174.2"/>
      <point x="328.6" y="363.8"/>
      <point x="381.4" y="680.2" type="curve" smooth="yes"/>
      <point x="400.2" y="800.2" type="line"/>
      <point x="155.79999999999998" y="797.2" type="line"/>
      <point x="136.79999999999998" y="680.2" type="line" smooth="yes"/>
      <point x="64.39999999999999" y="247.4"/>
      <point x="256.0" y="-20.0"/>
      <point x="657.4" y="-20.0" type="curve" smooth="yes"/>
      <point x="891.2" y="-20.0"/>
      <point x="1103.2" y="67.2"/>
      <point x="1211.2" y="193.8" type="curve"/>
    </contour>
    <contour>
      <point x="1394.3999999999999" y="1296.0" type="line"/>
      <point x="1329.6000000000001" y="1418.4"/>
      <point x="1151.2" y="1510.0"/>
      <point x="924.0" y="1510.0" type="curve" smooth="yes"/>
      <point x="516.2" y="1510.0"/>
      <point x="229.79999999999998" y="1249.4"/>
      <point x="157.4" y="809.6" type="curve" smooth="yes"/>
      <point x="138.6" y="695.6" type="line"/>
      <point x="384.0" y="695.0" type="line"/>
      <point x="402.6" y="809.6" type="line" smooth="yes"/>
      <point x="456.6" y="1137.8"/>
      <point x="615.2" y="1312.6"/>
      <point x="893.0" y="1312.6" type="curve" smooth="yes"/>
      <point x="1005.8000000000001" y="1312.6"/>
      <point x="1101.8000000000002" y="1278.2"/>
      <point x="1147.2" y="1219.2" type="curve"/>
      <point x="1061.6" y="699.4" type="line"/>
      <point x="1296.0" y="700.6" type="line"/>
    </contour>
    <contour>
      <point x="1808.0" y="1489.0" type="line"/>
      <point x="1628.2" y="1489.0" type="line"/>
      <point x="1288.2" y="1353.8" type="line"/>
      <point x="1252.2" y="1132.0" type="line"/>
      <point x="1531.3999999999999" y="1236.6" type="line"/>
      <point x="1256.8" y="-419.0" type="line"/>
      <point x="1492.2" y="-419.0" type="line"/>
    </contour>
  </outline>
</glyph>
<glyph name="oi" format="2">
  <advance height="2479.0" width="1463.4"/>
  <unicode hex="01A3"/>
  <outline>
    <contour>
      <point x="526.0" y="168.39999999999998" type="curve" smooth="yes"/>
      <point x="355.0" y="168.39999999999998"/>
      <point x="294.8" y="306.4"/>
      <point x="326.79999999999995" y="523.2" type="curve" smooth="yes"/>
      <point x="332.2" y="558.8" type="line" smooth="yes"/>
      <point x="361.4" y="762.0"/>
      <point x="446.79999999999995" y="944.0"/>
      <point x="648.6" y="944.0" type="curve" smooth="yes"/>
      <point x="713.1999999999999" y="944.0"/>
      <point x="757.6" y="925.0"/>
      <point x="787.8" y="893.0" type="curve"/>
      <point x="727.6" y="534.6" type="line"/>
      <point x="962.4000000000001" y="527.6" type="line"/>
      <point x="1032.8" y="946.2" type="line"/>
      <point x="977.4" y="1047.0"/>
      <point x="860.6" y="1132.0"/>
      <point x="687.0" y="1132.0" type="curve" smooth="yes"/>
      <point x="352.2" y="1132.0"/>
      <point x="145.2" y="883.8"/>
      <point x="96.8" y="558.8" type="curve" smooth="yes"/>
      <point x="91.4" y="523.2" type="line" smooth="yes"/>
      <point x="47.8" y="227.39999999999998"/>
      <point x="166.8" y="-20.0"/>
      <point x="489.79999999999995" y="-20.0" type="curve" smooth="yes"/>
      <point x="674.0" y="-20.0"/>
      <point x="806.1999999999999" y="56.2"/>
      <point x="901.6" y="159.0" type="curve"/>
      <point x="969.8000000000001" y="572.6" type="line"/>
      <point x="734.0" y="572.6" type="line"/>
      <point x="675.0" y="212.2" type="line"/>
      <point x="632.4" y="185.0"/>
      <point x="586.4" y="168.39999999999998"/>
    </contour>
    <contour>
      <point x="1409.4" y="1117.0" type="line"/>
      <point x="1235.0" y="1117.0" type="line"/>
      <point x="928.6" y="979.0" type="line"/>
      <point x="883.8" y="713.2" type="line"/>
      <point x="1128.8" y="830.1999999999999" type="line"/>
      <point x="924.0" y="-419.0" type="line"/>
      <point x="1158.0" y="-419.0" type="line"/>
    </contour>
  </outline>
</glyph>
<glyph name="Phook" format="2">
  <advance height="2479.0" width="1653.8"/>
  <unicode hex="01A4"/>
  <anchor x="633.4" y="1489.0" name="tonos"/>
  <anchor x="1184.2" y="1676.0" name="top"/>
  <outline>
    <contour>
      <point x="378.59999999999997" y="1049.2" type="line"/>
      <point x="389.4" y="1114.6" type="line" smooth="yes"/>
      <point x="403.4" y="1206.6"/>
      <point x="437.4" y="1296.6"/>
      <point x="555.2" y="1296.6" type="curve" smooth="yes"/>
      <point x="721.8000000000001" y="1296.6" type="line"/>
      <point x="753.0" y="1489.0" type="line"/>
      <point x="584.0" y="1489.0" type="line" smooth="yes"/>
      <point x="368.4" y="1489.0"/>
      <point x="218.6" y="1350.6"/>
      <point x="190.39999999999998" y="1163.8" type="curve" smooth="yes"/>
      <point x="172.39999999999998" y="1049.2" type="line"/>
    </contour>
    <component base="P" xOffset="347.40000000000003"/>
  </outline>
</glyph>
<glyph name="phook" format="2">
  <advance height="2479.0" width="1263.8"/>
  <unicode hex="01A5"/>
  <anchor x="94.20000000000002" y="-415.4" name="bottom"/>
  <anchor x="1094.8000000000002" y="-491.4" name="bottom0315"/>
  <anchor x="138.0" y="-163.0" name="cross"/>
  <anchor x="795.8" y="1303.0" name="top"/>
  <outline>
    <contour>
      <point x="451.4" y="1117.0" type="line"/>
      <point x="463.79999999999995" y="1192.0"/>
      <point x="515.1999999999999" y="1223.8"/>
      <point x="616.4" y="1223.2" type="curve" smooth="yes"/>
      <point x="641.8" y="1222.6"/>
      <point x="668.4" y="1218.6"/>
      <point x="685.6" y="1215.2" type="curve"/>
      <point x="712.8" y="1380.6" type="line"/>
      <point x="693.1999999999999" y="1387.2"/>
      <point x="650.2" y="1392.4"/>
      <point x="597.0" y="1392.4" type="curve" smooth="yes"/>
      <point x="395.0" y="1392.4"/>
      <point x="268.2" y="1300.2"/>
      <point x="239.0" y="1117.0" type="curve"/>
    </contour>
    <component base="p"/>
  </outline>
</glyph>
<glyph name="Yr" format="2">
  <advance height="2479.0" width="1429.2"/>
  <unicode hex="01A6"/>
  <outline>
    <contour>
      <point x="229.39999999999998" y="319.6" type="line"/>
      <point x="614.4" y="319.6" type="line" smooth="yes"/>
      <point x="945.4" y="319.6"/>
      <point x="1160.0" y="511.6"/>
      <point x="1198.8" y="755.4" type="curve" smooth="yes"/>
      <point x="1241.0" y="1000.0"/>
      <point x="1088.8000000000002" y="1192.6"/>
      <point x="757.8" y="1192.6" type="curve" smooth="yes"/>
      <point x="372.8" y="1192.6" type="line"/>
      <point x="341.2" y="1004.8" type="line"/>
      <point x="726.4" y="1004.8" type="line" smooth="yes"/>
      <point x="924.0" y="1004.8"/>
      <point x="1010.1999999999999" y="904.0"/>
      <point x="984.5999999999999" y="753.2" type="curve" smooth="yes"/>
      <point x="958.5999999999999" y="602.4"/>
      <point x="842.8" y="507.0"/>
      <point x="645.1999999999999" y="507.0" type="curve" smooth="yes"/>
      <point x="260.0" y="507.0" type="line"/>
    </contour>
    <contour>
      <point x="939.4" y="-419.0" type="line"/>
      <point x="1195.2" y="-419.0" type="line"/>
      <point x="879.1999999999999" y="413.2" type="line"/>
      <point x="629.8" y="413.2" type="line"/>
    </contour>
    <contour>
      <point x="70.19999999999999" y="0.0" type="line"/>
      <point x="295.8" y="0.0" type="line"/>
      <point x="543.0" y="1489.0" type="line"/>
      <point x="318.0" y="1489.0" type="line"/>
    </contour>
  </outline>
</glyph>
<glyph name="Tonetwo" format="2">
  <advance height="2479.0" width="1316.8"/>
  <unicode hex="01A7"/>
  <anchor x="559.6" y="-20.8" name="bottom"/>
  <anchor x="563.2" y="0.0" name="cedilla"/>
  <anchor x="844.2" y="1676.0" name="top"/>
  <outline>
    <contour>
      <point x="430.6" y="1098.4" type="line"/>
      <point x="469.2" y="1235.4"/>
      <point x="603.4" y="1315.6"/>
      <point x="774.4" y="1315.6" type="curve" smooth="yes"/>
      <point x="957.8" y="1315.6"/>
      <point x="1057.4" y="1222.0"/>
      <point x="1036.2" y="1095.4" type="curve" smooth="yes"/>
      <point x="1013.8" y="953.0"/>
      <point x="850.2" y="897.6"/>
      <point x="728.1999999999999" y="868.4" type="curve" smooth="yes"/>
      <point x="577.4" y="831.2" type="line" smooth="yes"/>
      <point x="380.40000000000003" y="784.2"/>
      <point x="124.2" y="680.4"/>
      <point x="79.60000000000001" y="411.0" type="curve" smooth="yes"/>
      <point x="38.0" y="159.4"/>
      <point x="209.2" y="-24.2"/>
      <point x="559.0" y="-24.2" type="curve" smooth="yes"/>
      <point x="892.6" y="-24.2"/>
      <point x="1128.8" y="142.0"/>
      <point x="1188.0" y="412.0" type="curve"/>
      <point x="962.4" y="412.0" type="line"/>
      <point x="922.0" y="249.4"/>
      <point x="765.1999999999999" y="172.4"/>
      <point x="592.0" y="172.4" type="curve" smooth="yes"/>
      <point x="401.2" y="172.4"/>
      <point x="278.4" y="268.4"/>
      <point x="301.4" y="413.4" type="curve" smooth="yes"/>
      <point x="323.79999999999995" y="546.2"/>
      <point x="455.8" y="598.4"/>
      <point x="621.1999999999999" y="641.0" type="curve" smooth="yes"/>
      <point x="805.6" y="689.0" type="line" smooth="yes"/>
      <point x="1055.6" y="753.8"/>
      <point x="1224.2" y="875.0"/>
      <point x="1258.2" y="1082.4" type="curve" smooth="yes"/>
      <point x="1301.4" y="1339.0"/>
      <point x="1101.0" y="1510.0"/>
      <point x="802.2" y="1510.0" type="curve" smooth="yes"/>
      <point x="499.6" y="1510.0"/>
      <point x="259.4" y="1336.8"/>
      <point x="213.20000000000002" y="1098.4" type="curve"/>
    </contour>
  </outline>
</glyph>
<glyph name="tonetwo" format="2">
  <advance height="2479.0" width="1097.3999999999999"/>
  <unicode hex="01A8"/>
  <outline>
    <contour>
      <point x="464.8" y="-22.4" type="curve" smooth="yes"/>
      <point x="710.2" y="-22.4"/>
      <point x="886.8" y="84.0"/>
      <point x="955.5999999999999" y="281.8" type="curve"/>
      <point x="750.6" y="323.40000000000003" type="line"/>
      <point x="706.1999999999999" y="213.0"/>
      <point x="607.4" y="152.4"/>
      <point x="471.2" y="152.4" type="curve" smooth="yes"/>
      <point x="334.6" y="152.4"/>
      <point x="258.4" y="213.4"/>
      <point x="272.8" y="294.4" type="curve" smooth="yes"/>
      <point x="284.59999999999997" y="369.8"/>
      <point x="347.40000000000003" y="422.6"/>
      <point x="460.8" y="446.6" type="curve" smooth="yes"/>
      <point x="656.8" y="488.8" type="line" smooth="yes"/>
      <point x="873.8" y="535.4"/>
      <point x="980.5999999999999" y="635.0"/>
      <point x="1004.8000000000001" y="786.0" type="curve" smooth="yes"/>
      <point x="1039.8" y="991.2"/>
      <point x="877.4" y="1132.0"/>
      <point x="618.8000000000001" y="1132.0" type="curve" smooth="yes"/>
      <point x="383.2" y="1132.0"/>
      <point x="234.6" y="1022.8"/>
      <point x="161.60000000000002" y="849.0" type="curve"/>
      <point x="353.2" y="804.2" type="line"/>
      <point x="391.0" y="880.4"/>
      <point x="472.0" y="959.2"/>
      <point x="613.8" y="959.2" type="curve" smooth="yes"/>
      <point x="730.4000000000001" y="959.2"/>
      <point x="808.2" y="905.4"/>
      <point x="794.8000000000001" y="823.8" type="curve" smooth="yes"/>
      <point x="781.4" y="741.8"/>
      <point x="715.0" y="697.2"/>
      <point x="587.8000000000001" y="668.0" type="curve" smooth="yes"/>
      <point x="402.6" y="627.0" type="line" smooth="yes"/>
      <point x="190.2" y="580.2"/>
      <point x="80.0" y="488.0"/>
      <point x="55.4" y="337.6" type="curve" smooth="yes"/>
      <point x="21.000000000000007" y="127.8"/>
      <point x="189.59999999999997" y="-22.4"/>
    </contour>
  </outline>
</glyph>
